<svg width="50" height="50" viewBox="0 0 50 50" fill="none" xmlns="http://www.w3.org/2000/svg">
<g filter="url(#filter0_i_1024_470)">
<rect width="50" height="50" rx="12" fill="white"/>
<g clip-path="url(#clip0_1024_470)">
<path d="M32.2929 30.1949L31.5417 29.4208C31.7988 29.4521 32.0452 29.2885 32.1103 29.0308C32.1809 28.7512 32.0115 28.4673 31.7319 28.3967L29.9615 27.9495C29.7833 27.9045 29.5945 27.9566 29.4645 28.0865C29.3344 28.2165 29.2824 28.4053 29.3274 28.5836L29.7746 30.3539C29.8345 30.5905 30.047 30.7483 30.2805 30.7482C30.3228 30.7482 30.3659 30.743 30.4087 30.7322C30.6697 30.6663 30.8345 30.4145 30.7979 30.1539L31.5435 30.9222C31.6459 31.0276 31.782 31.0807 31.9183 31.0807C32.0492 31.0807 32.1805 31.0316 32.2819 30.9332C32.4888 30.7324 32.4938 30.4018 32.2929 30.1949Z" fill="#FE4A01"/>
<path d="M23.6198 24.4338C23.587 24.3468 23.5035 24.2891 23.4104 24.2891C23.4103 24.2891 23.4101 24.2891 23.41 24.2891L23.0329 24.2898C22.9396 24.29 22.8562 24.348 22.8236 24.4355L21.513 27.9566C21.4875 28.0253 21.4972 28.1021 21.539 28.1624C21.5808 28.2225 21.6494 28.2584 21.7227 28.2584H22.0638C22.1572 28.2584 22.2409 28.2004 22.2735 28.1127L22.6611 27.0714H23.7939L24.1867 28.1135C24.2196 28.2007 24.3029 28.2584 24.396 28.2584H24.7376C24.7381 28.2584 24.7384 28.2584 24.739 28.2584C24.8626 28.2584 24.9627 28.1582 24.9627 28.0345C24.9627 27.9985 24.954 27.9643 24.9389 27.9341L23.6198 24.4338ZM22.9467 26.3043L23.2241 25.5591L23.5049 26.3043H22.9467Z" fill="#FE4A01"/>
<path d="M26.4807 24.2734H25.5108C25.3873 24.2734 25.2871 24.3736 25.2871 24.4972V28.013C25.2871 28.1366 25.3872 28.2367 25.5108 28.2367H26.4807C27.5949 28.2367 28.5013 27.3489 28.5013 26.2575C28.5014 25.1636 27.595 24.2734 26.4807 24.2734ZM26.4807 27.4697H26.0542V25.0407H26.4807C27.1719 25.0407 27.7342 25.5864 27.7342 26.2575C27.7343 26.9259 27.1719 27.4697 26.4807 27.4697Z" fill="#FE4A01"/>
<path d="M33.925 15.5195H16.075C15.4823 15.5195 15 16.0018 15 16.5945V33.4049C15 33.9976 15.4823 34.4798 16.075 34.4798H33.925C34.5177 34.4798 35 33.9976 35 33.4049V16.5945C35 16.0017 34.5177 15.5195 33.925 15.5195ZM31.798 17.1678C32.2891 17.1678 32.6887 17.5674 32.6887 18.0585C32.6887 18.5496 32.2891 18.9492 31.798 18.9492C31.3069 18.9492 30.9073 18.5496 30.9073 18.0585C30.9073 17.5674 31.3069 17.1678 31.798 17.1678ZM28.7776 17.1678C29.2687 17.1678 29.6683 17.5674 29.6683 18.0585C29.6683 18.5496 29.2687 18.9492 28.7776 18.9492C28.2865 18.9492 27.8869 18.5496 27.8869 18.0585C27.8869 17.5674 28.2865 17.1678 28.7776 17.1678ZM17.7273 17.5978H21.3207C21.5752 17.5978 21.7814 17.804 21.7814 18.0585C21.7814 18.3129 21.5752 18.5192 21.3207 18.5192H17.7273C17.4728 18.5192 17.2666 18.3129 17.2666 18.0585C17.2666 17.804 17.4728 17.5978 17.7273 17.5978ZM33.2926 32.6172C33.2926 32.6945 33.2297 32.7574 33.1523 32.7574H16.8477C16.7704 32.7574 16.7074 32.6945 16.7074 32.6172V21.0401H33.2926V32.6172Z" fill="#FE4A01"/>
</g>
</g>
<defs>
<filter id="filter0_i_1024_470" x="0" y="0" width="50" height="50" filterUnits="userSpaceOnUse" color-interpolation-filters="sRGB">
<feFlood flood-opacity="0" result="BackgroundImageFix"/>
<feBlend mode="normal" in="SourceGraphic" in2="BackgroundImageFix" result="shape"/>
<feColorMatrix in="SourceAlpha" type="matrix" values="0 0 0 0 0 0 0 0 0 0 0 0 0 0 0 0 0 0 127 0" result="hardAlpha"/>
<feMorphology radius="2" operator="erode" in="SourceAlpha" result="effect1_innerShadow_1024_470"/>
<feOffset/>
<feGaussianBlur stdDeviation="2"/>
<feComposite in2="hardAlpha" operator="arithmetic" k2="-1" k3="1"/>
<feColorMatrix type="matrix" values="0 0 0 0 0 0 0 0 0 0 0 0 0 0 0 0 0 0 0.43 0"/>
<feBlend mode="normal" in2="shape" result="effect1_innerShadow_1024_470"/>
</filter>
<clipPath id="clip0_1024_470">
<rect width="20" height="20" fill="white" transform="translate(15 15)"/>
</clipPath>
</defs>
</svg>
