<svg width="50" height="50" viewBox="0 0 50 50" fill="none" xmlns="http://www.w3.org/2000/svg">
<g filter="url(#filter0_i_1004_3270)">
<rect width="50" height="50" rx="12" fill="#FE4A01"/>
<path d="M28.8712 29.9515C29.0637 29.8013 29.2383 29.6267 29.5875 29.2775L33.9407 24.9244C34.0458 24.8192 33.9976 24.6379 33.8571 24.5891C33.3433 24.4109 32.6748 24.0761 32.0495 23.4509C31.4243 22.8257 31.0896 22.1572 30.9114 21.6434C30.8625 21.5028 30.6813 21.4546 30.5761 21.5598L26.2229 25.9129C25.8737 26.2622 25.6991 26.4367 25.549 26.6292C25.3719 26.8564 25.22 27.102 25.0961 27.3621C24.9911 27.5824 24.913 27.8167 24.7569 28.2852L24.555 28.8905L24.2341 29.853L23.9333 30.7556C23.8565 30.9861 23.9165 31.2402 24.0883 31.4122C24.2602 31.584 24.5143 31.6439 24.7449 31.5671L25.6474 31.2663L26.6099 30.9454L27.2153 30.7436C27.6836 30.5875 27.9181 30.5094 28.1384 30.4043C28.3984 30.2805 28.6441 30.1286 28.8712 29.9515Z" fill="white"/>
<path d="M35.303 23.5614C36.2322 22.6323 36.2322 21.1259 35.303 20.1968C34.374 19.2677 32.8676 19.2677 31.9385 20.1968L31.7986 20.3368C31.6635 20.4718 31.6023 20.6605 31.6361 20.8484C31.6573 20.9667 31.6966 21.1396 31.7682 21.3459C31.9113 21.7585 32.1816 22.3 32.6908 22.8091C33.1998 23.3183 33.7415 23.5886 34.154 23.7317C34.3603 23.8033 34.5332 23.8426 34.6514 23.8638C34.8394 23.8976 35.028 23.8364 35.1631 23.7013L35.303 23.5614Z" fill="white"/>
<path fill-rule="evenodd" clip-rule="evenodd" d="M15.2887 15.2887C14 16.5775 14 18.6516 14 22.8V27.2C14 31.3483 14 33.4226 15.2887 34.7112C16.5775 36 18.6516 36 22.8 36H25C29.1483 36 31.2226 36 32.5112 34.7112C33.7793 33.4432 33.7997 31.4148 33.8 27.3981L30.6999 30.4982C30.4031 30.7951 30.1601 31.0383 29.8856 31.2525C29.564 31.5033 29.2161 31.7184 28.8479 31.8938C28.5336 32.0435 28.2075 32.1522 27.8092 32.2847L25.2663 33.1324C24.4429 33.4069 23.535 33.1926 22.9212 32.5788C22.3075 31.965 22.0931 31.0571 22.3677 30.2337L22.6685 29.3313L23.1912 27.7633L23.2153 27.6909C23.3479 27.2926 23.4565 26.9664 23.6062 26.6521C23.7816 26.2839 23.9967 25.936 24.2476 25.6145C24.4617 25.3399 24.7049 25.0969 25.0019 24.8001L29.4089 20.3931L30.632 19.17L30.7719 19.0301C31.5589 18.2432 32.5903 17.8498 33.6218 17.85C33.4554 16.7164 33.1335 15.911 32.5112 15.2887C31.2226 14 29.1483 14 25 14H22.8C18.6516 14 16.5775 14 15.2887 15.2887ZM18.675 21.7C18.675 21.2444 19.0444 20.875 19.5 20.875H26.65C27.1056 20.875 27.475 21.2444 27.475 21.7C27.475 22.1556 27.1056 22.525 26.65 22.525H19.5C19.0444 22.525 18.675 22.1556 18.675 21.7ZM18.675 26.1C18.675 25.6444 19.0444 25.275 19.5 25.275H22.25C22.7056 25.275 23.075 25.6444 23.075 26.1C23.075 26.5556 22.7056 26.925 22.25 26.925H19.5C19.0444 26.925 18.675 26.5556 18.675 26.1ZM18.675 30.5C18.675 30.0444 19.0444 29.675 19.5 29.675H21.15C21.6056 29.675 21.975 30.0444 21.975 30.5C21.975 30.9556 21.6056 31.325 21.15 31.325H19.5C19.0444 31.325 18.675 30.9556 18.675 30.5Z" fill="white"/>
</g>
<defs>
<filter id="filter0_i_1004_3270" x="0" y="0" width="50" height="50" filterUnits="userSpaceOnUse" color-interpolation-filters="sRGB">
<feFlood flood-opacity="0" result="BackgroundImageFix"/>
<feBlend mode="normal" in="SourceGraphic" in2="BackgroundImageFix" result="shape"/>
<feColorMatrix in="SourceAlpha" type="matrix" values="0 0 0 0 0 0 0 0 0 0 0 0 0 0 0 0 0 0 127 0" result="hardAlpha"/>
<feMorphology radius="2" operator="erode" in="SourceAlpha" result="effect1_innerShadow_1004_3270"/>
<feOffset/>
<feGaussianBlur stdDeviation="2"/>
<feComposite in2="hardAlpha" operator="arithmetic" k2="-1" k3="1"/>
<feColorMatrix type="matrix" values="0 0 0 0 0 0 0 0 0 0 0 0 0 0 0 0 0 0 0.43 0"/>
<feBlend mode="normal" in2="shape" result="effect1_innerShadow_1004_3270"/>
</filter>
</defs>
</svg>
