<svg width="37" height="37" viewBox="0 0 37 37" fill="none" xmlns="http://www.w3.org/2000/svg">
<g opacity="0.9996">
<rect width="37" height="37" rx="18.5" fill="#FE4A01"/>
<path d="M20.3665 18.8951L19.3972 20.416C19.2348 20.6721 19.0088 20.8916 18.7365 21.0575C18.4642 21.2233 18.1529 21.3311 17.8265 21.3726C17.6784 21.3902 17.5278 21.3646 17.3972 21.2996L15.6937 20.4631C15.6756 20.4539 15.655 20.4492 15.6341 20.4494C15.6065 20.4495 15.5797 20.4577 15.5579 20.4728C15.5362 20.4879 15.5206 20.5091 15.5138 20.533C15.507 20.5568 15.5092 20.5821 15.5202 20.6047C15.5312 20.6272 15.5503 20.6459 15.5745 20.6578L17.2082 21.4593C17.3952 21.5495 17.5424 21.6937 17.6255 21.8684C17.7335 22.1011 17.7891 22.3504 17.7891 22.6023C17.7891 22.8541 17.7335 23.1035 17.6255 23.3361C17.361 23.8922 17.1513 24.4677 16.9986 25.0563C16.9424 25.2814 16.8913 25.5217 16.8504 25.7741C16.7972 26.1094 16.7659 26.4471 16.7567 26.7855H16.7363L16.5336 26.7278L16.491 26.7171L16.3751 26.6836L16.3036 26.6608L16.2014 26.6274C15.9848 26.5537 15.7727 26.47 15.566 26.3764L15.5353 26.3612C15.365 26.2821 15.2048 26.2015 15.0532 26.1179C14.9902 26.0844 14.9306 26.0494 14.8726 26.016C14.3778 25.7301 13.931 25.3829 13.5456 24.9848C12.8912 24.2846 12.426 23.4594 12.1861 22.5729C11.9463 21.6865 11.9381 20.7627 12.1624 19.873C12.2296 19.5762 12.3236 19.2848 12.4434 19.0015C12.4434 18.9848 12.4571 18.9726 12.4605 18.9635V18.9544C12.4619 19.12 12.4778 19.2853 12.5082 19.4487C12.6939 20.454 13.3599 20.9255 13.3599 20.9255C12.8489 19.4228 13.2236 18.381 13.7177 17.47C13.888 17.1475 14.0822 16.8449 14.2526 16.5422C14.3718 16.3293 14.4842 16.1209 14.5762 15.9065C14.9902 15.0335 14.7807 14.5452 14.767 14.5148C14.7785 14.5233 14.7893 14.5324 14.7994 14.5422C14.8726 14.6 14.9391 14.6578 15.0021 14.7141L15.026 14.7369L15.0583 14.7688C15.0685 14.7795 15.0822 14.7901 15.0907 14.8008L15.1316 14.8433L15.1742 14.889L15.273 15.0046L15.3207 15.0654V15.0745C15.3462 15.1095 15.3718 15.143 15.3939 15.1779C15.4161 15.2129 15.4195 15.216 15.4297 15.2357C15.4649 15.2935 15.4961 15.3498 15.5234 15.4046C15.5336 15.4243 15.5421 15.4426 15.5506 15.4608L15.5762 15.5171C15.5787 15.5265 15.5821 15.5356 15.5864 15.5445V15.5643C15.5966 15.5901 15.6051 15.6144 15.6137 15.6388C15.6222 15.6631 15.6324 15.6966 15.6409 15.724C15.6494 15.7513 15.6511 15.762 15.6563 15.7817C15.657 15.7919 15.657 15.802 15.6563 15.8122C15.6563 15.8243 15.6563 15.8365 15.6563 15.8471C15.6653 15.8907 15.6733 15.9328 15.6801 15.9734V16.0129C15.6801 16.0464 15.6835 16.0788 15.6903 16.1103C15.6903 16.124 15.6903 16.1376 15.6903 16.1498C15.6903 16.1909 15.6903 16.2304 15.6903 16.2669V16.2958C15.6903 16.3171 15.6903 16.3369 15.6903 16.3551C15.6903 16.3734 15.6903 16.3825 15.6903 16.3947C15.6903 16.4068 15.6903 16.4357 15.6903 16.4555C15.6903 16.4753 15.6903 16.4677 15.6903 16.4738C15.6903 16.4798 15.6903 16.5209 15.6801 16.5407C15.6699 16.5605 15.6801 16.5559 15.6801 16.5635C15.6801 16.5711 15.6801 16.5878 15.6801 16.597C15.6801 16.6061 15.6801 16.6167 15.6801 16.6243V16.6593C15.6808 16.6684 15.6808 16.6776 15.6801 16.6867C15.7499 16.5985 15.8505 16.4798 15.9527 16.3354C16.3598 15.8046 17.0105 14.9194 17.6834 13.8274C18.1883 12.9605 18.3314 11.9616 18.0872 11.0091L18.1093 11C18.4693 11.1782 18.8029 11.3958 19.1025 11.6479C19.9822 12.357 20.6259 13.2691 20.9627 14.2836C21.2188 15.0482 21.2981 15.8513 21.1956 16.6441C21.0931 17.4368 20.811 18.2027 20.3665 18.8951Z" fill="white"/>
<path d="M24.9778 21.5734C24.9066 22.3516 24.6612 23.1091 24.2563 23.8011C23.8513 24.4932 23.295 25.1056 22.6201 25.6023C22.2532 25.8818 21.8533 26.1251 21.4277 26.3278C21.271 26.4038 21.1108 26.4798 20.9473 26.5346C20.4572 26.7251 19.942 26.8595 19.4141 26.9346H19.3801C19.0713 26.9782 18.7592 27.0001 18.4465 27C18.1202 26.9998 17.7943 26.9764 17.4721 26.93L17.2541 26.8951C17.2673 26.3135 17.3466 25.7346 17.4909 25.1673C17.5898 24.769 17.7173 24.3768 17.8725 23.9932L17.9014 23.9262C18.0035 23.7079 18.1561 23.5113 18.3491 23.3492C18.5421 23.1871 18.7713 23.0632 19.0216 22.9855C19.2719 22.9079 19.5378 22.8782 19.8018 22.8985C20.0658 22.9189 20.322 22.9887 20.5538 23.1034H20.5657C20.5839 23.1126 20.6045 23.1174 20.6253 23.1171C20.6479 23.117 20.67 23.1117 20.6894 23.1015C20.7089 23.0914 20.725 23.0768 20.7361 23.0593C20.7441 23.0464 20.7491 23.0321 20.7509 23.0174C20.7527 23.0027 20.7511 22.9878 20.7464 22.9737C20.7416 22.9595 20.7337 22.9463 20.7232 22.9349C20.7126 22.9235 20.6996 22.9141 20.685 22.9072L20.0121 22.5787C19.9145 22.5299 19.836 22.4556 19.7872 22.3658C19.6505 22.1097 19.5795 21.8297 19.5794 21.546C19.5795 21.2107 19.6769 20.8811 19.8622 20.5894L21.1262 18.6061C21.1264 18.603 21.1264 18.6 21.1262 18.597L21.1415 18.5696C21.2693 18.3627 21.8042 17.4122 21.7173 16.4509C21.7343 16.5376 21.8246 16.962 21.9132 17.3635L21.9677 17.6144C22.0001 17.7665 22.0324 17.8928 22.0563 17.9825C22.1137 18.2366 22.1877 18.4874 22.2777 18.7338C22.8808 20.3612 23.7581 19.9019 23.7853 18.3247V18.2578C23.7759 17.6408 23.678 17.0275 23.494 16.4327C24.0125 17.3737 24.4311 18.3559 24.7444 19.3665C24.7853 19.5004 24.8194 19.6357 24.85 19.7696C24.9882 20.3624 25.0312 20.9697 24.9778 21.5734Z" fill="white"/>
<path d="M15.6069 15.5643C15.5847 15.511 15.5609 15.4548 15.5336 15.4C15.5609 15.4593 15.5864 15.5156 15.6069 15.5643Z" fill="white"/>
<path d="M15.721 16.4601C15.721 16.4738 15.721 16.4844 15.721 16.4966C15.7108 16.5665 15.6972 16.6213 15.6886 16.6487V16.676C15.6883 16.6811 15.6883 16.6862 15.6886 16.6913C14.4774 18.2289 14.7585 19.2586 14.779 19.324V19.3118L14.5882 18.9711C14.3412 18.4144 14.4655 17.8852 14.8795 16.5072C15.2934 15.1293 14.9493 14.6487 14.8284 14.53C14.9645 14.6355 15.0904 14.751 15.2048 14.8753C15.2406 14.9148 15.273 14.9529 15.3037 14.9909C15.3343 15.0289 15.3633 15.0684 15.3922 15.1065C15.4212 15.1445 15.4433 15.1825 15.4689 15.2221C15.4944 15.2616 15.5353 15.3346 15.5626 15.3909C15.5898 15.4471 15.6137 15.5019 15.6358 15.5551C15.658 15.6084 15.675 15.6631 15.6903 15.7163C15.7521 15.9604 15.7625 16.2126 15.721 16.4601Z" fill="white"/>
<path d="M23.7291 19.7726C23.6613 19.8977 23.5427 19.995 23.3975 20.0447C23.2522 20.0944 23.0912 20.0929 22.9471 20.0403C22.3645 19.8319 22.2896 18.7262 22.2896 18.7262C22.8926 20.3536 23.7716 19.8943 23.7972 18.3171C23.8006 18.3354 24.0255 19.3164 23.7291 19.7726Z" fill="white"/>
<path d="M15.6069 15.5643C15.5847 15.511 15.5609 15.4548 15.5336 15.4C15.5609 15.4593 15.5864 15.5156 15.6069 15.5643Z" fill="white"/>
<path d="M16.852 25.7726C16.7988 26.1078 16.7675 26.4456 16.7583 26.784H16.7396L16.6664 26.7627L16.6033 26.7445L16.3785 26.6806L16.3069 26.6578L16.2047 26.6243C15.9866 26.554 15.7743 26.4702 15.5693 26.3734L15.5386 26.3582C15.3683 26.2791 15.2082 26.1985 15.0565 26.1148L14.876 26.0129C14.3811 25.7271 13.9343 25.3799 13.5489 24.9817C12.8945 24.2816 12.4293 23.4563 12.1895 22.5699C11.9496 21.6835 11.9415 20.7596 12.1657 19.87C12.233 19.5732 12.327 19.2817 12.4468 18.9985C12.4468 18.9817 12.4604 18.9696 12.4638 18.9605V18.9513C12.4638 18.9513 11.3667 24.2502 16.852 25.7726Z" fill="white"/>
<path d="M16.5334 26.7262L16.7361 26.784C16.6629 26.7643 16.5794 26.7414 16.4908 26.7156L16.5334 26.7262Z" fill="white"/>
<path d="M21.9217 17.3498C21.8331 16.9513 21.7514 16.5285 21.7258 16.4373C21.8059 16.7703 21.8962 17.1536 21.9762 17.5977L21.9217 17.3498Z" fill="white"/>
</g>
</svg>
