<svg width="483" height="88" viewBox="0 0 483 88" fill="none" xmlns="http://www.w3.org/2000/svg">
<path d="M4.23805 17.5109C3.39871 17.5109 2.65986 17.3277 2.02149 16.9612C1.38313 16.5829 0.886617 16.0627 0.53197 15.4007C0.177322 14.7269 0 13.9526 0 13.0778C0 12.0256 0.260075 11.1035 0.780229 10.3116C1.3122 9.51948 2.06287 8.91063 3.03224 8.48503C4.01343 8.05954 5.16013 7.84674 6.47233 7.84674C7.07523 7.84674 7.56583 7.88808 7.94413 7.97086V7.59849C7.94413 6.70001 7.77862 6.03209 7.44762 5.5947C7.11661 5.14547 6.61419 4.92086 5.94035 4.92086C4.85277 4.92086 4.15529 5.49421 3.84794 6.6409C3.75336 6.97191 3.55831 7.11377 3.26276 7.06648L0.851158 6.6409C0.673826 6.60544 0.549704 6.5286 0.478774 6.41038C0.419668 6.29216 0.413755 6.13258 0.461051 5.93161C0.768412 4.7258 1.41861 3.79189 2.41161 3.12988C3.41646 2.45606 4.67546 2.11914 6.18862 2.11914C7.98551 2.11914 9.3509 2.60383 10.2848 3.5732C11.2306 4.54257 11.7034 5.95525 11.7034 7.81129V16.7307C11.7034 16.8607 11.6562 16.9729 11.5616 17.0675C11.4788 17.1503 11.3724 17.1916 11.2423 17.1916H8.93714C8.65342 17.1916 8.4761 17.038 8.40517 16.7307L8.05052 15.0639H7.90866C7.58949 15.8441 7.11071 16.4469 6.47234 16.8725C5.8458 17.2981 5.10103 17.5109 4.23805 17.5109ZM3.86566 12.6521C3.86566 13.2788 4.02526 13.7812 4.34444 14.1594C4.67545 14.5259 5.11875 14.7091 5.67437 14.7091C6.40732 14.7091 6.96884 14.384 7.35895 13.7338C7.74906 13.0719 7.94413 12.1261 7.94413 10.8967V9.95686C7.61311 9.89774 7.29985 9.86818 7.0043 9.86818C6.03493 9.86818 5.26653 10.1223 4.69909 10.6307C4.14347 11.1272 3.86566 11.8011 3.86566 12.6521ZM13.9022 2.89936C13.9022 2.76932 13.9436 2.66293 14.0263 2.58018C14.1209 2.4856 14.2332 2.43832 14.3632 2.43832H16.7039C16.8339 2.43832 16.9404 2.47969 17.0231 2.56244C17.1177 2.6452 17.1768 2.7575 17.2004 2.89936L17.5551 4.63714H17.6969C18.0162 3.82145 18.4712 3.20081 19.0624 2.77523C19.6652 2.33783 20.3745 2.11914 21.1902 2.11914C22.0651 2.11914 22.8157 2.34965 23.4422 2.8107C24.0806 3.27174 24.5712 3.92785 24.914 4.779H25.0559C25.5761 3.88055 26.1613 3.21264 26.8115 2.77523C27.4616 2.33783 28.1886 2.11914 28.9925 2.11914C29.8673 2.11914 30.6239 2.35557 31.2623 2.82843C31.9125 3.3013 32.409 3.97513 32.7518 4.84993C33.0946 5.72473 33.2661 6.75912 33.2661 7.95308V16.7307C33.2661 16.8607 33.2187 16.9729 33.1241 17.0675C33.0414 17.1503 32.935 17.1916 32.805 17.1916H29.9678C29.8378 17.1916 29.7254 17.1503 29.6309 17.0675C29.5481 16.9729 29.5068 16.8607 29.5068 16.7307V8.23678C29.5068 7.3738 29.3413 6.71183 29.0103 6.25079C28.6792 5.78975 28.2005 5.55923 27.5739 5.55923C26.8882 5.55923 26.3622 5.83112 25.9957 6.37491C25.6411 6.9187 25.4638 7.70483 25.4638 8.73328V16.7307C25.4638 16.8607 25.4164 16.9729 25.3219 17.0675C25.2392 17.1503 25.1327 17.1916 25.0027 17.1916H22.1655C22.0355 17.1916 21.9232 17.1503 21.8286 17.0675C21.7458 16.9729 21.7045 16.8607 21.7045 16.7307V8.23678C21.7045 7.3738 21.539 6.71183 21.208 6.25079C20.8769 5.78975 20.3982 5.55923 19.7717 5.55923C19.086 5.55923 18.5599 5.83112 18.1934 6.37491C17.8388 6.9187 17.6615 7.70483 17.6615 8.73328V16.7307C17.6615 16.8607 17.6142 16.9729 17.5197 17.0675C17.4369 17.1503 17.3304 17.1916 17.2004 17.1916H14.3632C14.2332 17.1916 14.1209 17.1503 14.0263 17.0675C13.9436 16.9729 13.9022 16.8607 13.9022 16.7307V2.89936ZM35.1101 13.0778C35.1101 12.0256 35.3703 11.1035 35.8904 10.3116C36.4224 9.51948 37.173 8.91063 38.1425 8.48503C39.1236 8.05954 40.2704 7.84674 41.5825 7.84674C42.1855 7.84674 42.6761 7.88808 43.0543 7.97086V7.59849C43.0543 6.70001 42.8888 6.03209 42.5578 5.5947C42.2268 5.14547 41.7244 4.92086 41.0506 4.92086C39.963 4.92086 39.2655 5.49421 38.9581 6.6409C38.8635 6.97191 38.6685 7.11377 38.3729 7.06648L35.9613 6.6409C35.784 6.60544 35.6599 6.5286 35.589 6.41038C35.5299 6.29216 35.524 6.13258 35.5712 5.93161C35.8786 4.7258 36.5287 3.79189 37.5218 3.12988C38.5266 2.45606 39.7856 2.11914 41.2988 2.11914C43.0957 2.11914 44.461 2.60383 45.395 3.5732C46.3407 4.54257 46.8136 5.95525 46.8136 7.81129V16.7307C46.8136 16.8607 46.7663 16.9729 46.6717 17.0675C46.5889 17.1503 46.4826 17.1916 46.3526 17.1916H44.0473C43.7636 17.1916 43.5863 17.038 43.5154 16.7307L43.1607 15.0639H43.0189C42.6996 15.8441 42.2209 16.4469 41.5825 16.8725C40.956 17.2981 40.2113 17.5109 39.3483 17.5109C38.4853 17.5109 37.7701 17.3277 37.1317 16.9612C36.4933 16.5829 35.9968 16.0627 35.6422 15.4007C35.2875 14.7269 35.1101 13.9526 35.1101 13.0778ZM38.9759 12.6521C38.9759 13.2788 39.1355 13.7812 39.4546 14.1594C39.7856 14.5259 40.2289 14.7091 40.7845 14.7091C41.5175 14.7091 42.079 14.384 42.4692 13.7338C42.8592 13.0719 43.0543 12.1261 43.0543 10.8967V9.95686C42.7233 9.89774 42.41 9.86818 42.1145 9.86818C41.1451 9.86818 40.3767 10.1223 39.8093 10.6307C39.2537 11.1272 38.9759 11.8011 38.9759 12.6521ZM48.7287 14.585C48.7287 14.325 48.7996 14.1003 48.9415 13.9112L55.006 5.41737H49.3316C49.2016 5.41737 49.0892 5.37599 48.9946 5.29324C48.912 5.19866 48.8705 5.08636 48.8705 4.95633V2.89936C48.8705 2.76932 48.912 2.66293 48.9946 2.58018C49.0892 2.4856 49.2016 2.43832 49.3316 2.43832H58.6588C58.7889 2.43832 58.8953 2.4856 58.9781 2.58018C59.0726 2.66293 59.1199 2.76932 59.1199 2.89936V5.04498C59.1199 5.30506 59.049 5.52967 58.9071 5.71882L53.41 13.2728C53.741 13.2138 54.078 13.1842 54.4208 13.1842C55.272 13.1842 56.0522 13.261 56.7615 13.4147C57.4826 13.5566 58.2273 13.7929 58.9957 14.124C59.2677 14.2422 59.4036 14.4431 59.4036 14.7269V16.7661C59.4036 16.9553 59.3446 17.0853 59.2263 17.1562C59.1081 17.2153 58.9603 17.2094 58.7829 17.1385C57.8964 16.8075 57.1102 16.577 56.4246 16.4469C55.7507 16.3051 55.0119 16.2341 54.208 16.2341C53.4041 16.2341 52.6357 16.3051 51.8673 16.4469C51.1108 16.5888 50.2715 16.8193 49.3494 17.1385C49.172 17.1976 49.0242 17.1976 48.906 17.1385C48.7878 17.0675 48.7287 16.9434 48.7287 16.7661V14.585ZM60.1839 9.81495C60.1839 8.37279 60.4617 7.06648 61.0173 5.89614C61.5729 4.71398 62.3353 3.79189 63.3048 3.12988C64.286 2.45606 65.3735 2.11914 66.5674 2.11914C67.7615 2.11914 68.8609 2.45606 69.8302 3.12988C70.8115 3.79189 71.5799 4.71398 72.1355 5.89614C72.7029 7.06648 72.9867 8.37279 72.9867 9.81495C72.9867 11.2572 72.7029 12.5695 72.1355 13.7516C71.5799 14.922 70.8115 15.844 69.8302 16.5179C68.8609 17.1799 67.7733 17.5109 66.5674 17.5109C65.3616 17.5109 64.286 17.1799 63.3048 16.5179C62.3353 15.844 61.5729 14.922 61.0173 13.7516C60.4617 12.5695 60.1839 11.2572 60.1839 9.81495ZM64.0849 9.81495C64.0849 11.3163 64.2978 12.4749 64.7234 13.2906C65.149 14.0944 65.7636 14.4963 66.5674 14.4963C67.3714 14.4963 67.992 14.0944 68.4294 13.2906C68.8668 12.4749 69.0855 11.3163 69.0855 9.81495C69.0855 8.31368 68.8668 7.16105 68.4294 6.35719C67.992 5.54149 67.3714 5.13364 66.5674 5.13364C65.7636 5.13364 65.149 5.54149 64.7234 6.35719C64.2978 7.16105 64.0849 8.31368 64.0849 9.81495ZM74.9017 2.89936C74.9017 2.76932 74.9431 2.66293 75.0259 2.58018C75.1205 2.4856 75.2327 2.43832 75.3627 2.43832H77.7034C77.8334 2.43832 77.9399 2.47969 78.0227 2.56244C78.1172 2.6452 78.1764 2.7575 78.1999 2.89936L78.5546 4.63714H78.6964C79.0157 3.83327 79.4826 3.21264 80.0974 2.77523C80.7239 2.33783 81.4568 2.11914 82.2962 2.11914C83.1946 2.11914 83.9689 2.35557 84.6191 2.82843C85.2811 3.3013 85.7894 3.97513 86.1441 4.84993C86.4987 5.72473 86.6761 6.75912 86.6761 7.95308V16.7307C86.6761 16.8607 86.6287 16.9729 86.5342 17.0675C86.4515 17.1503 86.345 17.1916 86.215 17.1916H83.3778C83.2478 17.1916 83.1355 17.1503 83.0409 17.0675C82.9582 16.9729 82.9168 16.8607 82.9168 16.7307V8.23678C82.9168 7.3738 82.7394 6.71183 82.3848 6.25079C82.0301 5.78975 81.5277 5.55923 80.8775 5.55923C80.1565 5.55923 79.6067 5.83112 79.2285 6.37491C78.8501 6.9187 78.661 7.70483 78.661 8.73328V16.7307C78.661 16.8607 78.6137 16.9729 78.5192 17.0675C78.4364 17.1503 78.33 17.1916 78.1999 17.1916H75.3627C75.2327 17.1916 75.1205 17.1503 75.0259 17.0675C74.9431 16.9729 74.9017 16.8607 74.9017 16.7307V2.89936Z" fill="white"/>
<path d="M9.85987 19.2301C9.63526 19.4075 9.58796 19.703 9.71801 20.1168C9.83622 20.4833 10.114 20.9383 10.5514 21.4821C12.3128 23.6574 14.4112 25.466 16.8464 26.9083C19.2817 28.3506 21.8884 29.4144 24.6665 30.1001C27.4563 30.7976 30.3053 31.1463 33.2134 31.1463C36.9373 31.1463 40.4838 30.6026 43.8529 29.5149C47.222 28.4391 50.0356 26.926 52.2936 24.9754C53.0856 24.278 53.4816 23.7224 53.4816 23.3086C53.4816 23.1549 53.4166 23.0012 53.2866 22.8475C53.1092 22.6703 52.8964 22.6112 52.6482 22.6703C52.3999 22.7293 52.0512 22.8771 51.602 23.1135C49.4386 24.2484 46.8024 25.1528 43.6933 25.8266C40.5961 26.5122 37.3629 26.8551 33.9937 26.8551C29.8207 26.8551 25.7895 26.2877 21.9002 25.1528C18.0109 24.0179 14.5648 22.2447 11.5622 19.8331C11.1248 19.4903 10.7701 19.2715 10.4982 19.1769C10.2382 19.0823 10.0254 19.1001 9.85987 19.2301Z" fill="#FF6201"/>
<path d="M49.2581 20.1179C49.0098 20.3544 48.9448 20.6026 49.0631 20.8628C49.1459 21.0519 49.3054 21.1583 49.5419 21.1819C49.7783 21.2174 50.1152 21.1937 50.5526 21.111C51.2619 20.9573 52.0007 20.8509 52.7691 20.7918C53.5376 20.7445 54.2055 20.7563 54.7729 20.8272C55.3404 20.91 55.695 21.0519 55.8369 21.2528C56.0497 21.5721 55.9728 22.2458 55.6063 23.2744C55.2517 24.3028 54.767 25.3017 54.1523 26.2711C53.9158 26.6612 53.774 26.9686 53.7267 27.1932C53.6795 27.4178 53.7386 27.607 53.904 27.7606C54.0104 27.867 54.1286 27.9202 54.2586 27.9202C54.6016 27.9202 55.0981 27.6187 55.7482 27.0159C56.9186 25.9992 57.7401 24.7934 58.2131 23.3985C58.4731 22.6773 58.6327 21.9208 58.6918 21.1287C58.7509 20.3367 58.6622 19.7692 58.4258 19.4264C58.2012 19.0954 57.7047 18.8234 56.9363 18.6108C56.1797 18.398 55.4172 18.2915 54.6488 18.2915C53.1474 18.2915 51.7229 18.6462 50.3753 19.3555C49.8788 19.6274 49.5065 19.8816 49.2581 20.1179Z" fill="#FF6201"/>
<path d="M154.826 17.5182C151.514 17.6268 149.456 18.2246 149.456 20.4064C149.456 21.8189 150.582 23.3502 153.441 23.3502C157.274 23.3502 159.32 21.261 159.32 17.8344L159.32 17.4575C157.976 17.4575 156.319 17.4693 154.826 17.5182ZM162.973 22.0455C162.973 23.1086 163.004 24.158 163.097 25.103H159.698C159.608 24.3248 159.575 23.5517 159.575 22.8018C157.737 25.0601 155.552 25.7094 152.521 25.7094C148.025 25.7094 145.617 23.3329 145.617 20.5841C145.617 16.6029 148.892 15.1992 154.576 15.0689C156.13 15.0334 157.876 15.0282 159.32 15.0282L159.32 14.6392C159.32 11.9739 157.611 10.8781 154.649 10.8781C152.45 10.8781 150.83 11.7879 150.663 13.3601H146.825C147.231 9.44013 151.35 8.44873 154.971 8.44873C159.309 8.44873 162.973 9.99222 162.973 14.5807L162.973 22.0455Z" fill="#FFBC13"/>
<path d="M123.229 15.5742C123.087 12.1569 120.621 10.8781 117.985 10.8781C115.142 10.8781 112.872 12.3166 112.475 15.5742H123.229ZM112.396 18.0036C112.593 21.3193 114.88 23.2804 118.024 23.2804C120.202 23.2804 122.14 22.3928 122.788 20.462H126.556C125.823 24.3796 121.661 25.7094 118.078 25.7094C111.563 25.7094 108.676 22.1215 108.676 17.283C108.676 11.9567 111.662 8.44873 118.137 8.44873C123.291 8.44873 127.067 11.146 127.067 17.0331V18.0036H112.396Z" fill="#F12C2D"/>
<path d="M136.439 23.2112C139.834 23.2112 142.157 20.7675 142.157 17.0797C142.157 13.3923 139.834 10.9483 136.439 10.9483C133.063 10.9483 130.72 13.3923 130.72 17.0797C130.72 20.7675 133.063 23.2112 136.439 23.2112ZM127.068 2.0249H130.72L130.72 11.2013C132.51 9.06825 134.976 8.44894 137.404 8.44894C141.474 8.44894 145.995 11.1956 145.995 17.1261C145.995 22.0922 142.4 25.7096 137.336 25.7096C134.686 25.7096 132.191 24.7588 130.652 22.8751C130.652 23.6275 130.61 24.3858 130.528 25.1032H126.943C127.006 23.9434 127.068 22.4993 127.068 21.3308L127.068 2.0249Z" fill="#0968F6"/>
<path d="M181.574 9.05713L170.279 31.24H166.189L169.436 25.0803L160.936 9.05713H165.209L171.465 21.5762L177.702 9.05713H181.574Z" fill="#93C822"/>
<path d="M217.313 19.1667C216.874 21.3201 216.013 22.9768 214.732 24.1368C213.451 25.2968 212.033 25.8768 210.479 25.8768C208.628 25.8768 207.015 25.0975 205.639 23.539C204.262 21.9804 203.574 19.8746 203.574 17.2214C203.574 14.6516 204.336 12.5636 205.861 10.9575C207.385 9.35135 209.215 8.54827 211.351 8.54825C212.953 8.54827 214.269 8.9736 215.302 9.82424C216.334 10.6749 216.85 11.5583 216.85 12.4744C216.85 12.9265 216.705 13.2924 216.414 13.5719C216.123 13.8515 215.717 13.9913 215.195 13.9913C214.495 13.9913 213.967 13.7653 213.611 13.3132C213.409 13.0633 213.276 12.5874 213.211 11.8855C213.145 11.1835 212.905 10.6482 212.49 10.2793C212.075 9.92243 211.499 9.74396 210.764 9.74394C209.577 9.74396 208.622 10.1842 207.899 11.0645C206.938 12.2305 206.457 13.7712 206.457 15.6867C206.457 17.6379 206.935 19.36 207.89 20.8531C208.845 22.3462 210.135 23.0928 211.76 23.0928C212.923 23.0928 213.967 22.6942 214.892 21.8971C215.545 21.3498 216.18 20.3564 216.797 18.9168L217.313 19.1667ZM224.395 8.54825V12.2245C225.76 9.77371 227.16 8.54827 228.595 8.54825C229.248 8.54827 229.787 8.74756 230.215 9.14611C230.642 9.54468 230.855 10.0057 230.855 10.5292C230.855 10.9932 230.701 11.3858 230.393 11.707C230.084 12.0283 229.716 12.1889 229.289 12.1889C228.874 12.1889 228.408 11.9836 227.892 11.5732C227.376 11.1627 226.994 10.9575 226.744 10.9575C226.531 10.9575 226.299 11.0765 226.05 11.3144C225.516 11.8022 224.965 12.6053 224.395 13.7236V21.558C224.395 22.4622 224.508 23.1463 224.733 23.6103C224.888 23.9316 225.161 24.1992 225.552 24.4134C225.944 24.6276 226.507 24.7346 227.243 24.7346V25.3771H218.896V24.7346C219.727 24.7346 220.344 24.6038 220.747 24.342C221.044 24.1517 221.251 23.8483 221.37 23.4319C221.429 23.2296 221.459 22.6526 221.459 21.7008V15.3654C221.459 13.4619 221.42 12.3287 221.343 11.9658C221.266 11.6029 221.124 11.3382 220.916 11.1716C220.709 11.0051 220.451 10.9218 220.142 10.9218C219.774 10.9218 219.359 11.011 218.896 11.1895L218.718 10.547L223.648 8.54825H224.395ZM241.034 23.0214C239.362 24.3182 238.312 25.0678 237.885 25.27C237.244 25.5674 236.562 25.7162 235.838 25.7162C234.711 25.7162 233.783 25.3295 233.053 24.5562C232.323 23.7828 231.959 22.7656 231.959 21.5045C231.959 20.7074 232.137 20.0173 232.492 19.4344C232.979 18.6253 233.824 17.8639 235.028 17.1501C236.233 16.4362 238.235 15.5677 241.034 14.5445V13.9021C241.034 12.2722 240.776 11.1538 240.26 10.547C239.744 9.94026 238.994 9.63689 238.009 9.63687C237.262 9.63689 236.669 9.83914 236.23 10.2436C235.779 10.6482 235.553 11.1122 235.553 11.6356L235.589 12.6707C235.589 13.218 235.45 13.6403 235.171 13.9378C234.892 14.2352 234.527 14.3839 234.076 14.3839C233.637 14.3839 233.278 14.2293 233 13.9199C232.721 13.6106 232.581 13.1882 232.581 12.6528C232.581 11.6297 233.103 10.6898 234.147 9.83317C235.191 8.97658 236.657 8.54827 238.543 8.54825C239.99 8.54827 241.177 8.79218 242.102 9.27996C242.802 9.64879 243.318 10.2258 243.65 11.011C243.864 11.5226 243.971 12.5696 243.971 14.1519V19.7021C243.971 21.2606 244 22.2154 244.06 22.5663C244.119 22.9173 244.217 23.1523 244.353 23.2713C244.49 23.3902 244.647 23.4497 244.825 23.4497C245.015 23.4497 245.181 23.4081 245.323 23.3248C245.572 23.1701 246.053 22.7359 246.765 22.022V23.0214C245.436 24.806 244.167 25.6983 242.956 25.6983C242.375 25.6983 241.912 25.4961 241.568 25.0915C241.224 24.687 241.046 23.997 241.034 23.0214ZM241.034 21.8614V15.6331C239.243 16.347 238.086 16.8526 237.564 17.1501C236.627 17.6736 235.957 18.2208 235.553 18.7919C235.15 19.363 234.948 19.9876 234.948 20.6657C234.948 21.5223 235.203 22.2332 235.713 22.7983C236.224 23.3635 236.811 23.646 237.475 23.646C238.377 23.646 239.563 23.0512 241.034 21.8614ZM252.103 0C252.602 2.97909e-05 253.026 0.17552 253.376 0.526464C253.726 0.877461 253.901 1.30278 253.901 1.80245C253.901 2.30217 253.726 2.73048 253.376 3.08737C253.026 3.44431 252.602 3.62277 252.103 3.62275C251.605 3.62277 251.178 3.44431 250.822 3.08737C250.466 2.73048 250.288 2.30217 250.288 1.80245C250.288 1.30278 250.463 0.877461 250.813 0.526464C251.163 0.17552 251.593 2.97909e-05 252.103 0ZM253.581 8.54825V21.683C253.58 22.7061 253.655 23.3873 253.803 23.7263C253.951 24.0654 254.171 24.3182 254.461 24.4848C254.752 24.6513 255.283 24.7346 256.054 24.7346V25.3771H248.135V24.7346C248.93 24.7346 249.464 24.6573 249.737 24.5026C250.009 24.348 250.226 24.0922 250.386 23.7353C250.546 23.3783 250.626 22.6942 250.626 21.683V15.3833C250.626 13.6106 250.573 12.4625 250.466 11.939C250.383 11.5583 250.253 11.2936 250.075 11.1449C249.897 10.9962 249.654 10.9218 249.345 10.9218C249.013 10.9218 248.61 11.011 248.135 11.1895L247.886 10.547L252.797 8.54825H253.581ZM262.425 19.4165C261.428 18.9287 260.663 18.2476 260.129 17.3731C259.596 16.4987 259.329 15.532 259.329 14.4731C259.329 12.8551 259.937 11.4631 261.153 10.2972C262.369 9.13125 263.926 8.54827 265.824 8.54825C267.378 8.54827 268.725 8.929 269.864 9.69042H273.316C273.826 9.69043 274.123 9.70529 274.206 9.73501C274.289 9.76477 274.348 9.81535 274.384 9.88672C274.455 9.99381 274.491 10.1842 274.491 10.4578C274.491 10.7671 274.461 10.9813 274.402 11.1003C274.366 11.1598 274.304 11.2073 274.215 11.243C274.126 11.2787 273.826 11.2966 273.316 11.2966H271.198C271.863 12.1532 272.195 13.2477 272.195 14.5802C272.195 16.1031 271.614 17.4058 270.451 18.4885C269.288 19.5712 267.728 20.1125 265.771 20.1125C264.964 20.1125 264.139 19.9935 263.297 19.7556C262.775 20.2077 262.422 20.6033 262.238 20.9423C262.054 21.2814 261.962 21.5699 261.962 21.8079C261.962 22.0101 262.06 22.2064 262.256 22.3968C262.452 22.5871 262.834 22.724 263.404 22.8072C263.736 22.8548 264.566 22.8965 265.895 22.9322C268.339 22.9917 269.923 23.075 270.647 23.182C271.75 23.3367 272.631 23.7471 273.289 24.4134C273.948 25.0797 274.277 25.9006 274.277 26.8762C274.277 28.2206 273.648 29.4817 272.391 30.6595C270.54 32.3965 268.126 33.265 265.148 33.2651C262.858 33.265 260.924 32.7475 259.346 31.7124C258.457 31.1176 258.012 30.4989 258.012 29.8565C258.012 29.5709 258.077 29.2854 258.207 28.9998C258.409 28.5596 258.824 27.9469 259.453 27.1617C259.536 27.0546 260.141 26.4121 261.268 25.2343C260.651 24.8655 260.215 24.5353 259.96 24.2439C259.705 23.9524 259.578 23.6222 259.578 23.2534C259.578 22.837 259.747 22.3492 260.085 21.79C260.423 21.2309 261.203 20.4397 262.425 19.4165ZM265.522 9.40488C264.644 9.40489 263.908 9.75585 263.315 10.4578C262.722 11.1597 262.425 12.2365 262.425 13.6879C262.425 15.5677 262.828 17.0251 263.635 18.0602C264.252 18.8454 265.035 19.2381 265.984 19.2381C266.886 19.2381 267.627 18.899 268.209 18.2208C268.79 17.5427 269.081 16.4779 269.081 15.0264C269.081 13.1347 268.671 11.6535 267.853 10.5827C267.248 9.79751 266.471 9.40489 265.522 9.40488ZM262.247 25.3771C261.689 25.9838 261.268 26.549 260.984 27.0725C260.699 27.596 260.556 28.0778 260.556 28.518C260.556 29.0891 260.901 29.5887 261.589 30.0171C262.775 30.7547 264.489 31.1235 266.732 31.1235C268.867 31.1235 270.442 30.7458 271.456 29.9903C272.471 29.2348 272.978 28.4288 272.978 27.5722C272.978 26.9535 272.675 26.5133 272.07 26.2516C271.453 25.9898 270.231 25.8351 268.404 25.7875C265.735 25.7162 263.683 25.5793 262.247 25.3771ZM286.823 8.54825V14.1162H286.236C285.785 12.3673 285.207 11.1776 284.501 10.547C283.795 9.91647 282.896 9.6012 281.805 9.60118C280.974 9.6012 280.304 9.82129 279.794 10.2615C279.284 10.7017 279.029 11.1895 279.029 11.7249C279.029 12.3911 279.218 12.9622 279.598 13.4381C279.966 13.9259 280.713 14.4434 281.84 14.9907L284.438 16.2578C286.847 17.4356 288.051 18.9882 288.051 20.9156C288.051 22.4028 287.49 23.6014 286.369 24.5116C285.248 25.4217 283.994 25.8768 282.606 25.8768C281.609 25.8768 280.47 25.6983 279.189 25.3414C278.797 25.2224 278.477 25.1629 278.228 25.1629C277.955 25.1629 277.741 25.3176 277.587 25.6269H277V19.7913H277.587C277.919 21.4569 278.554 22.7121 279.491 23.5568C280.428 24.4015 281.478 24.8238 282.641 24.8238C283.46 24.8238 284.127 24.5829 284.643 24.1011C285.159 23.6193 285.417 23.0393 285.417 22.3611C285.417 21.5402 285.13 20.8501 284.554 20.291C283.979 19.7318 282.831 19.0239 281.111 18.1673C279.39 17.3107 278.263 16.5373 277.729 15.8473C277.196 15.1691 276.929 14.3126 276.929 13.2775C276.929 11.9331 277.388 10.8088 278.308 9.90457C279.227 9.00038 280.417 8.54827 281.876 8.54825C282.517 8.54827 283.294 8.68509 284.207 8.95871C284.812 9.13719 285.216 9.22643 285.417 9.22641C285.607 9.22643 285.755 9.1848 285.862 9.10149C285.969 9.01823 286.093 8.83381 286.236 8.54825H286.823ZM296.059 0V21.683C296.059 22.7061 296.133 23.3843 296.282 23.7174C296.43 24.0505 296.658 24.3034 296.967 24.4759C297.275 24.6484 297.851 24.7346 298.693 24.7346V25.3771H290.703V24.7346C291.45 24.7346 291.96 24.6573 292.233 24.5026C292.506 24.348 292.719 24.0922 292.874 23.7353C293.028 23.3783 293.105 22.6942 293.105 21.683V6.83504C293.105 4.99097 293.064 3.85775 292.98 3.43537C292.897 3.01304 292.764 2.72453 292.58 2.56984C292.396 2.4152 292.162 2.33785 291.877 2.33783C291.569 2.33785 291.177 2.43302 290.703 2.62337L290.4 1.99876L295.258 0H296.059ZM304.708 0C305.206 2.97909e-05 305.63 0.17552 305.98 0.526464C306.33 0.877461 306.505 1.30278 306.505 1.80245C306.505 2.30217 306.33 2.73048 305.98 3.08737C305.63 3.44431 305.206 3.62277 304.708 3.62275C304.21 3.62277 303.783 3.44431 303.427 3.08737C303.071 2.73048 302.893 2.30217 302.893 1.80245C302.893 1.30278 303.068 0.877461 303.418 0.526464C303.768 0.17552 304.198 2.97909e-05 304.708 0ZM306.185 8.54825V21.683C306.185 22.7061 306.259 23.3873 306.407 23.7263C306.556 24.0654 306.775 24.3182 307.066 24.4848C307.357 24.6513 307.887 24.7346 308.659 24.7346V25.3771H300.739V24.7346C301.534 24.7346 302.068 24.6573 302.341 24.5026C302.614 24.348 302.83 24.0922 302.991 23.7353C303.151 23.3783 303.231 22.6942 303.231 21.683V15.3833C303.231 13.6106 303.177 12.4625 303.071 11.939C302.988 11.5583 302.857 11.2936 302.679 11.1449C302.501 10.9962 302.258 10.9218 301.95 10.9218C301.617 10.9218 301.214 11.011 300.739 11.1895L300.49 10.547L305.402 8.54825H306.185ZM321.205 8.54825V14.1162H320.617C320.167 12.3673 319.588 11.1776 318.882 10.547C318.176 9.91647 317.278 9.6012 316.186 9.60118C315.356 9.6012 314.685 9.82129 314.175 10.2615C313.665 10.7017 313.41 11.1895 313.41 11.7249C313.41 12.3911 313.6 12.9622 313.98 13.4381C314.347 13.9259 315.095 14.4434 316.222 14.9907L318.82 16.2578C321.228 17.4356 322.433 18.9882 322.433 20.9156C322.433 22.4028 321.872 23.6014 320.751 24.5116C319.63 25.4217 318.375 25.8768 316.987 25.8768C315.991 25.8768 314.852 25.6983 313.57 25.3414C313.179 25.2224 312.858 25.1629 312.609 25.1629C312.336 25.1629 312.123 25.3176 311.969 25.6269H311.381V19.7913H311.969C312.301 21.4569 312.936 22.7121 313.873 23.5568C314.81 24.4015 315.86 24.8238 317.023 24.8238C317.841 24.8238 318.509 24.5829 319.025 24.1011C319.541 23.6193 319.799 23.0393 319.799 22.3611C319.799 21.5402 319.511 20.8501 318.936 20.291C318.36 19.7318 317.212 19.0239 315.492 18.1673C313.772 17.3107 312.645 16.5373 312.111 15.8473C311.577 15.1691 311.31 14.3126 311.31 13.2775C311.31 11.9331 311.77 10.8088 312.689 9.90457C313.609 9.00038 314.798 8.54827 316.257 8.54825C316.898 8.54827 317.675 8.68509 318.589 8.95871C319.194 9.13719 319.597 9.22643 319.799 9.22641C319.989 9.22643 320.137 9.1848 320.244 9.10149C320.35 9.01823 320.475 8.83381 320.617 8.54825H321.205ZM329.569 3.65845V9.0301H333.377V10.2793H329.569V20.8799C329.569 21.9388 329.72 22.6526 330.023 23.0214C330.325 23.3902 330.714 23.5746 331.188 23.5746C331.58 23.5746 331.959 23.4527 332.327 23.2088C332.695 22.9649 332.98 22.605 333.181 22.1291H333.875C333.46 23.2951 332.873 24.1725 332.114 24.7614C331.354 25.3503 330.571 25.6448 329.764 25.6448C329.219 25.6448 328.685 25.4931 328.163 25.1897C327.641 24.8863 327.255 24.4521 327.006 23.887C326.757 23.3218 326.632 22.4503 326.632 21.2725V10.2793H324.052V9.69042C324.705 9.42869 325.372 8.98551 326.054 8.36088C326.736 7.73628 327.344 6.99566 327.878 6.13904C328.151 5.68695 328.531 4.86011 329.017 3.65845H329.569Z" fill="#800080"/>
<mask id="mask0_889_5489" style="mask-type:luminance" maskUnits="userSpaceOnUse" x="355" y="2" width="128" height="29">
<path d="M355.875 2.36071H482.732V30.9043H355.875V2.36071Z" fill="white"/>
</mask>
<g mask="url(#mask0_889_5489)">
<path d="M421.557 15.4632C421.557 16.2924 421.002 19.1888 417.598 19.2003C414.195 19.1888 413.639 16.2924 413.639 15.4632V9.61318C413.639 8.78399 414.195 5.88967 417.598 5.87682C421.002 5.88967 421.557 8.78399 421.557 9.61318V15.4632ZM424.641 5.89252C423.794 4.25983 422.04 2.41377 418.423 2.39879V2.39736H418.4H418.382V2.39879C415.996 2.40806 414.418 3.38354 413.381 4.39969V3.01533C413.381 2.8776 413.27 2.76557 413.131 2.76557H409.892C409.754 2.76557 409.643 2.8776 409.643 3.01533V30.156C409.643 30.2937 409.754 30.4058 409.892 30.4058H413.384C413.522 30.4058 413.633 30.2937 413.633 30.156V20.9122C414.673 21.8127 416.18 22.669 418.382 22.6762H418.4H418.423C422.04 22.6633 423.794 20.8165 424.641 19.1838C425.529 17.4705 425.565 15.6637 425.565 15.2984V9.77445C425.565 9.41195 425.529 7.60442 424.641 5.89252Z" fill="#E94B22"/>
<path d="M376.151 15.4472C376.151 16.2763 376.709 19.17 380.112 19.1842C383.514 19.17 384.073 16.2763 384.073 15.4472V9.59786C384.073 8.76938 383.514 5.87078 380.112 5.85864C376.709 5.87078 376.151 8.76938 376.151 9.59786V15.4472ZM372.158 9.77554C372.158 9.41232 372.198 7.60551 373.179 5.89219C374.119 4.2602 376.071 2.41415 380.088 2.39988V2.39845H380.112H380.131V2.39988C384.15 2.41415 386.101 4.2602 387.039 5.89219C388.023 7.60551 388.063 9.41232 388.063 9.77554V15.2987C388.063 15.6648 388.023 17.4716 387.039 19.1842C386.101 20.8169 384.15 22.6637 380.131 22.6772H380.112H380.088C376.071 22.6637 374.119 20.8169 373.179 19.1842C372.198 17.4716 372.158 15.6648 372.158 15.2987V9.77554Z" fill="#894F24"/>
<path d="M406.614 3.01585C406.614 2.88099 406.508 2.7661 406.364 2.7661H402.878C402.734 2.7661 402.628 2.88099 402.628 3.01585L402.614 15.4637C402.614 16.2915 402.064 19.1865 398.662 19.2008C395.254 19.1865 394.698 16.2915 394.698 15.4637V3.01585C394.698 2.88099 394.584 2.7661 394.447 2.7661H390.938C390.804 2.7661 390.689 2.88099 390.689 3.01585V15.2996C390.689 15.6642 390.724 17.4753 391.616 19.1865C392.458 20.8199 394.22 22.6667 397.835 22.6738H397.857H397.871C399.069 22.6738 400.053 22.4241 400.88 22.0537C401.7 21.6827 402.357 21.191 402.878 20.6772V22.0566C402.878 22.1943 402.989 22.3056 403.127 22.3056H406.367C406.505 22.3056 406.616 22.1943 406.616 22.0566L406.614 3.01585Z" fill="#894F24"/>
<path d="M439.295 15.7849C439.295 16.5628 438.753 19.2865 435.44 19.2994C432.125 19.2865 431.584 16.5628 431.584 15.7849V15.4681C431.584 14.6889 432.125 11.9665 435.44 11.9551C438.753 11.9665 439.295 14.6889 439.295 15.4681V15.7849ZM442.994 9.58456C442.992 8.02822 442.215 4.38249 438.68 2.93247C435.265 1.53241 430.77 3.06877 429.307 3.66248L429.04 3.77023C428.912 3.82232 428.851 3.96861 428.903 4.09634L429.9 6.9243C429.944 7.04632 430.074 7.11483 430.197 7.08129C430.237 7.07058 430.296 7.03919 430.314 7.02991C431.668 6.34486 435.172 5.1917 437.327 6.17431C439.447 7.14051 439.262 9.39617 439.274 9.63737V10.1911C438.246 9.44256 436.812 8.72968 434.787 8.72254H434.768H434.751C431.129 8.7361 429.377 10.4794 428.527 12.0236C427.643 13.6406 427.605 15.3475 427.605 15.6936V15.7C427.605 16.0411 427.643 17.7509 428.527 19.3679C429.377 20.9107 431.129 22.6532 434.751 22.6689H434.768H434.787C436.896 22.6611 438.364 21.9025 439.398 21.1019V22.056C439.398 22.193 439.51 22.3057 439.647 22.3057H442.744C442.882 22.3057 442.994 22.193 442.994 22.056L442.998 9.71729C442.998 9.67233 442.998 9.6288 442.994 9.58456Z" fill="#FAC000"/>
<path d="M476.539 9.64374C476.539 10.4044 475.983 13.171 472.579 13.1831C469.173 13.171 468.62 10.4044 468.62 9.64374V9.3947C468.62 8.63187 469.173 5.86456 472.579 5.85315C475.983 5.86456 476.539 8.63187 476.539 9.3947V9.64374ZM482.466 2.49285C480.417 2.43505 479.088 3.28137 478.233 4.21475C477.084 3.21429 475.312 2.40794 472.604 2.39937V2.39795H472.579H472.558V2.39937C468.541 2.41364 466.59 4.1705 465.648 5.72898C464.669 7.36453 464.625 9.08571 464.625 9.4318V9.62019C464.625 9.96914 464.669 11.6917 465.652 13.3223C466.071 14.0216 466.697 14.7573 467.62 15.3617C466.108 16.2309 464.773 17.7665 464.773 20.5388L464.772 22.0317C464.772 22.1701 464.884 22.2814 465.022 22.2814L476.53 22.2807C477.912 22.2807 478.609 23.1912 478.804 24.0475C479.047 25.1208 478.635 26.5722 476.841 27.557L476.721 27.6262C476.604 27.694 476.562 27.8431 476.627 27.9623L478.165 30.7738C478.232 30.8966 478.387 30.9401 478.509 30.8709C478.509 30.8709 479.303 30.3849 479.56 30.2123C479.819 30.0381 480.046 29.8376 480.261 29.6371C482.235 27.7953 482.647 25.2607 482.204 23.2833C481.601 20.5995 479.323 18.9861 476.53 18.9861H468.592C469.029 16.5877 471.827 16.6326 472.162 16.6462C472.162 16.6462 472.595 16.6526 472.604 16.6526C476.62 16.6405 478.569 14.8815 479.508 13.3223C480.49 11.6917 480.534 9.96914 480.534 9.62019V9.4318C480.534 9.13566 480.5 7.86119 479.895 6.48539C480.421 6.12074 481.24 5.78322 482.442 5.84744L482.473 5.84815C482.611 5.85029 482.724 5.7404 482.727 5.60268L482.731 2.78685V2.78543V2.77258C482.731 2.62344 482.633 2.49285 482.466 2.49285Z" fill="#3DACDC"/>
<path d="M370.843 18.4678L367.751 16.9207C367.628 16.8593 367.478 16.9093 367.417 17.0328L367.395 17.0749L367.394 17.0756C366.915 18.1003 365.902 19.1757 363.829 19.1849C360.427 19.1692 359.869 16.2771 359.869 15.4479V9.59786C359.869 8.77009 360.427 5.8722 363.829 5.85936C365.932 5.86792 366.942 6.97399 367.413 8.01511C367.453 8.11858 367.553 8.19494 367.674 8.19494C367.718 8.19494 367.758 8.18138 367.799 8.1614C367.802 8.16283 370.829 6.58223 370.829 6.58223C370.951 6.51872 370.999 6.36815 370.935 6.24541L370.932 6.2397L370.931 6.23685C370.877 6.12267 370.822 6.0085 370.756 5.89361C369.818 4.26092 367.867 2.41486 363.848 2.39988V2.39845H363.826H363.804V2.39988C359.789 2.41486 357.837 4.26092 356.9 5.89361C355.915 7.60551 355.875 9.41304 355.875 9.77554V15.2994C355.875 15.6648 355.915 17.4716 356.9 19.1849C357.837 20.8176 359.789 22.6644 363.804 22.6772H363.848C367.867 22.6644 369.818 20.8176 370.756 19.1849C370.76 19.1785 370.952 18.8032 370.952 18.8032C371.015 18.6797 370.965 18.5299 370.843 18.4678Z" fill="#894F24"/>
<path d="M461.09 5.88003C460.241 4.24662 458.486 2.40199 454.868 2.38914V2.38629C454.861 2.38629 454.859 2.38914 454.845 2.38914C454.843 2.38914 454.836 2.38629 454.827 2.38629V2.38914C452.449 2.39557 450.879 3.36534 449.84 4.37292L449.842 3.01567C449.842 2.87867 449.731 2.76663 449.593 2.76663H446.353C446.215 2.76663 446.104 2.87867 446.104 3.01567V22.0557C446.104 22.1934 446.215 22.3062 446.353 22.3062H449.843C449.981 22.3062 450.092 22.1934 450.092 22.0557V9.39802C450.176 8.3833 450.875 5.87503 454.042 5.8629C457.448 5.87574 458.003 8.77221 458.003 9.6014V22.0557C458.003 22.1934 458.115 22.3062 458.252 22.3062H461.759C461.897 22.3062 462.009 22.1934 462.009 22.0557V9.76481C462.009 9.40016 461.974 7.59336 461.09 5.88003Z" fill="#80BC27"/>
</g>
<path d="M134.388 66.9042V70.3885H142.765C142.542 72.316 141.875 73.7986 140.837 74.7624C139.651 75.9485 137.724 77.2829 134.388 77.2829C129.272 77.2829 125.269 73.1314 125.269 68.0162C125.269 62.9009 129.198 58.7494 134.388 58.7494C137.13 58.7494 139.206 59.8614 140.689 61.27L143.135 58.8236C141.06 56.822 138.242 55.2651 134.388 55.2651C127.345 55.2651 121.414 60.9735 121.414 68.0162C121.414 75.0589 127.345 80.7672 134.388 80.7672C138.168 80.7672 141.06 79.507 143.284 77.2088C145.582 74.9106 146.323 71.6488 146.323 69.0541C146.323 68.2386 146.249 67.4972 146.175 66.9042H134.388Z" fill="#4285F4"/>
<path d="M156.703 64.0127C152.181 64.0127 148.4 67.497 148.4 72.2416C148.4 76.9861 152.107 80.4704 156.703 80.4704C161.3 80.4704 165.006 77.0603 165.006 72.3157C165.006 67.497 161.3 64.0127 156.703 64.0127ZM156.703 77.2827C154.183 77.2827 152.033 75.2069 152.033 72.3157C152.033 69.3503 154.183 67.3487 156.703 67.3487C159.224 67.3487 161.374 69.3503 161.374 72.3157C161.374 75.2069 159.224 77.2827 156.703 77.2827Z" fill="#EA4335"/>
<path d="M197.256 65.866H197.107C196.292 64.9023 194.735 64.0127 192.733 64.0127C188.582 64.0127 185.023 67.5711 185.023 72.2416C185.023 76.8379 188.582 80.4704 192.733 80.4704C194.735 80.4704 196.292 79.5808 197.107 78.6171H197.256V79.8032C197.256 82.9169 195.55 84.6219 192.882 84.6219C190.658 84.6219 189.323 83.0651 188.73 81.6566L185.617 82.991C186.506 85.1409 188.953 87.8838 192.956 87.8838C197.181 87.8838 200.814 85.3633 200.814 79.2843V64.4575H197.404V65.866H197.256ZM193.104 77.2827C190.583 77.2827 188.73 75.1328 188.73 72.3157C188.73 69.4245 190.658 67.3487 193.104 67.3487C195.55 67.3487 197.478 69.4986 197.478 72.3898C197.552 75.2069 195.625 77.2827 193.104 77.2827Z" fill="#4285F4"/>
<path d="M175.16 64.0127C170.638 64.0127 166.857 67.497 166.857 72.2416C166.857 76.9861 170.564 80.4704 175.16 80.4704C179.757 80.4704 183.463 77.0603 183.463 72.3157C183.463 67.497 179.757 64.0127 175.16 64.0127ZM175.16 77.2827C172.64 77.2827 170.49 75.2069 170.49 72.3157C170.49 69.3503 172.64 67.3487 175.16 67.3487C177.681 67.3487 179.831 69.3503 179.831 72.3157C179.831 75.2069 177.681 77.2827 175.16 77.2827Z" fill="#FBBC05"/>
<path d="M203.555 55.6357H207.113V80.5448H203.555V55.6357Z" fill="#34A853"/>
<path d="M218.084 77.2827C216.231 77.2827 214.971 76.4672 214.081 74.7621L225.127 70.24L224.756 69.2762C224.089 67.4229 221.939 64.0127 217.714 64.0127C213.488 64.0127 209.93 67.3487 209.93 72.2416C209.93 76.8379 213.414 80.4704 218.084 80.4704C221.865 80.4704 224.015 78.1723 224.979 76.8379L222.162 74.9845C221.198 76.3931 219.938 77.2827 218.084 77.2827ZM217.862 67.1263C219.345 67.1263 220.605 67.8677 220.976 68.9055L213.562 72.0192C213.488 68.609 216.009 67.1263 217.862 67.1263Z" fill="#EA4335"/>
<path d="M359.711 81.3512C359.781 81.3519 359.851 81.3381 359.916 81.3108C359.98 81.2835 360.039 81.2432 360.087 81.1924C360.135 81.1416 360.173 81.0814 360.197 81.0155C360.221 80.9497 360.232 80.8795 360.228 80.8094C360.228 80.4253 359.996 80.2417 359.52 80.2417H358.752V82.2531H359.041V81.3763H359.396L359.404 81.387L359.955 82.2531H360.264L359.671 81.3567L359.711 81.3512ZM359.377 81.1497H359.042V80.4697H359.467C359.686 80.4697 359.936 80.5055 359.936 80.7928C359.936 81.1232 359.683 81.1497 359.375 81.1497" fill="#0A66C2"/>
<path d="M247.127 59.3579H251.393V74.896H259.29V78.8326H247.127V59.3579Z" fill="#0A66C2"/>
<path d="M261.176 65.6284H265.274V78.8256H261.176V65.6284ZM263.225 59.0674C263.695 59.0675 264.155 59.207 264.546 59.4682C264.937 59.7295 265.241 60.1008 265.421 60.5352C265.601 60.9696 265.648 61.4476 265.556 61.9087C265.465 62.3698 265.238 62.7933 264.906 63.1258C264.573 63.4582 264.15 63.6845 263.689 63.7762C263.227 63.8679 262.749 63.8208 262.315 63.6409C261.881 63.4609 261.509 63.1562 261.248 62.7653C260.987 62.3744 260.848 61.9148 260.848 61.4446C260.848 61.1324 260.909 60.8232 261.029 60.5348C261.148 60.2464 261.323 59.9843 261.544 59.7635C261.765 59.5428 262.027 59.3677 262.315 59.2482C262.604 59.1288 262.913 59.0673 263.225 59.0674Z" fill="#0A66C2"/>
<path d="M282.416 59.355H286.514V70.9936L291.158 65.6223H296.183L290.804 71.7321L296.07 78.831H290.919L286.569 72.3076H286.515V78.8301H282.417L282.416 59.355Z" fill="#0A66C2"/>
<path d="M267.547 65.6297H271.482V67.4332H271.538C271.931 66.7598 272.5 66.2057 273.183 65.8303C273.867 65.4548 274.639 65.272 275.418 65.3014C279.574 65.3014 280.339 68.0355 280.339 71.5875V78.8247H276.241V72.4084C276.241 70.8768 276.213 68.908 274.107 68.908C271.977 68.908 271.648 70.5758 271.648 72.297V78.823H267.55L267.547 65.6297Z" fill="#0A66C2"/>
<path d="M304.812 70.692C304.82 70.3595 304.76 70.0289 304.637 69.7202C304.513 69.4115 304.328 69.1311 304.093 68.8961C303.858 68.661 303.577 68.4761 303.268 68.3526C302.959 68.2292 302.629 68.1696 302.296 68.1777C301.58 68.1332 300.875 68.3718 300.334 68.8421C299.792 69.3124 299.457 69.9768 299.4 70.692H304.812ZM308.284 76.5401C307.603 77.3659 306.747 78.0299 305.777 78.484C304.808 78.9382 303.75 79.171 302.68 79.1658C298.582 79.1658 295.301 76.4304 295.301 72.1946C295.301 67.9587 298.581 65.2246 302.68 65.2246C306.51 65.2246 308.912 67.9566 308.912 72.1946V73.4795H299.4C299.519 74.2082 299.897 74.8695 300.464 75.3417C301.032 75.8138 301.751 76.0649 302.489 76.0488C303.072 76.0452 303.645 75.8957 304.156 75.6141C304.667 75.3324 305.099 74.9274 305.413 74.4361L308.284 76.5401Z" fill="#0A66C2"/>
<path d="M317.456 68.8186C315.407 68.8186 314.178 70.1867 314.178 72.1802C314.178 74.1737 315.407 75.5431 317.456 75.5431C319.505 75.5431 320.737 74.1771 320.737 72.1802C320.737 70.1833 319.507 68.8186 317.456 68.8186ZM324.51 78.8232H320.737V77.073H320.681C320.208 77.7096 319.594 78.2284 318.888 78.5888C318.181 78.9492 317.401 79.1416 316.607 79.151C312.67 79.151 310.076 76.3093 310.076 72.2908C310.076 68.6 312.371 65.2111 316.145 65.2111C317.841 65.2111 319.425 65.6751 320.354 66.9613H320.408V59.354H324.51L324.51 78.8232Z" fill="#0A66C2"/>
<path d="M352.175 78.8303H348.077V72.4128C348.077 70.8824 348.05 68.9124 345.945 68.9124C343.811 68.9124 343.485 70.5798 343.485 72.3013V78.8299H339.387V65.6327H343.321V67.4363H343.376C343.769 66.7631 344.338 66.2093 345.022 65.8339C345.705 65.4585 346.478 65.2756 347.257 65.3045C351.411 65.3045 352.177 68.0365 352.177 71.5906L352.175 78.8303ZM334.763 63.8288C334.292 63.8289 333.833 63.6895 333.441 63.4282C333.05 63.167 332.745 62.7956 332.565 62.3611C332.385 61.9266 332.338 61.4485 332.43 60.9872C332.521 60.5258 332.748 60.1021 333.08 59.7694C333.413 59.4368 333.837 59.2102 334.298 59.1184C334.759 59.0265 335.237 59.0735 335.672 59.2534C336.107 59.4334 336.478 59.7381 336.739 60.1291C337.001 60.5202 337.14 60.9799 337.14 61.4503C337.14 61.7626 337.079 62.0718 336.96 62.3604C336.84 62.6489 336.665 62.9111 336.444 63.132C336.223 63.3528 335.961 63.528 335.673 63.6476C335.384 63.7672 335.075 63.8287 334.763 63.8288ZM336.812 78.8303H332.709V65.6327H336.812V78.8303ZM354.218 55.267H330.65C330.115 55.261 329.6 55.4676 329.217 55.8414C328.835 56.2152 328.616 56.7256 328.609 57.2605V80.9259C328.616 81.461 328.834 81.9718 329.217 82.346C329.599 82.7202 330.115 82.9272 330.65 82.9215H354.218C354.754 82.9282 355.271 82.7218 355.655 82.3476C356.039 81.9735 356.259 81.4621 356.267 80.9259V57.2588C356.259 56.7228 356.039 56.2118 355.655 55.838C355.271 55.4642 354.754 55.2582 354.218 55.2653" fill="#0A66C2"/>
<path d="M359.415 79.3457C358.916 79.3505 358.44 79.5525 358.09 79.9076C357.74 80.2627 357.544 80.742 357.547 81.2406C357.549 81.7392 357.749 82.2166 358.102 82.5683C358.456 82.92 358.934 83.1174 359.433 83.1174C359.931 83.1174 360.41 82.92 360.763 82.5683C361.117 82.2166 361.316 81.7392 361.319 81.2406C361.321 80.742 361.126 80.2627 360.776 79.9076C360.426 79.5525 359.95 79.3505 359.451 79.3457H359.415ZM359.415 82.9015C359.088 82.907 358.766 82.8153 358.491 82.6382C358.216 82.461 358 82.2063 357.87 81.9063C357.74 81.6062 357.702 81.2743 357.76 80.9525C357.819 80.6307 357.971 80.3334 358.199 80.0984C358.426 79.8633 358.718 79.7009 359.038 79.6317C359.357 79.5626 359.69 79.5898 359.994 79.7099C360.299 79.83 360.56 80.0377 360.747 80.3066C360.933 80.5754 361.035 80.8935 361.041 81.2205C361.041 81.2299 361.041 81.2389 361.041 81.2483C361.05 81.6773 360.888 82.0924 360.591 82.4022C360.295 82.7121 359.887 82.8914 359.458 82.9007H359.415" fill="#0A66C2"/>
</svg>
