<svg width="50" height="50" viewBox="0 0 50 50" fill="none" xmlns="http://www.w3.org/2000/svg">
<g filter="url(#filter0_i_1024_462)">
<rect width="50" height="50" rx="12" fill="white"/>
<path d="M37 25.0015C36.9997 27.3748 36.2957 29.6948 34.9769 31.6679C33.6581 33.6411 31.7839 35.179 29.5912 36.087C27.3984 36.995 24.9857 37.2324 22.658 36.7692C20.3303 36.306 18.1923 35.163 16.5142 33.4847C14.8361 31.8065 13.6934 29.6683 13.2305 27.3405C12.7676 25.0128 13.0053 22.6001 13.9136 20.4074C14.8219 18.2148 16.36 16.3408 18.3333 15.0223C20.3067 13.7037 22.6267 13 25 13C28.1823 13 31.2344 14.2641 33.4847 16.5142C35.7351 18.7643 36.9996 21.8161 37 24.9985V25.0015ZM32.5589 26.0883L25.7291 19.2615C25.1638 18.7539 24.4402 18.4577 23.6813 18.4233L19.6874 18.4627C19.3673 18.4681 19.0619 18.5976 18.8354 18.8238C18.609 19.05 18.4791 19.3552 18.4733 19.6753L18.4263 23.6828C18.4587 24.4418 18.7534 25.166 19.26 25.7321L26.0883 32.5589C26.3138 32.7833 26.619 32.9092 26.9371 32.9092C27.2552 32.9092 27.5604 32.7833 27.7859 32.5589L32.5574 27.7844C32.7813 27.5589 32.907 27.2541 32.907 26.9363C32.907 26.6186 32.7813 26.3137 32.5574 26.0883H32.5589ZM20.7923 19.9541C20.6263 19.9541 20.4639 20.0034 20.3258 20.0957C20.1877 20.1879 20.0801 20.3191 20.0166 20.4725C19.953 20.626 19.9364 20.7948 19.9688 20.9577C20.0012 21.1206 20.0811 21.2702 20.1986 21.3876C20.316 21.5051 20.4656 21.585 20.6285 21.6174C20.7914 21.6498 20.9603 21.6332 21.1137 21.5697C21.2671 21.5061 21.3983 21.3985 21.4905 21.2604C21.5828 21.1223 21.6321 20.9599 21.6321 20.7939C21.6321 20.5712 21.5436 20.3576 21.3861 20.2001C21.2286 20.0426 21.0151 19.9541 20.7923 19.9541ZM28.8348 28.8318C28.7222 28.9443 28.5696 29.0075 28.4104 29.0075C28.2512 29.0075 28.0985 28.9443 27.986 28.8318L27.6131 28.4589C27.4565 28.5622 27.29 28.6495 27.116 28.7196C26.8929 28.8132 26.653 28.8601 26.4111 28.8575C26.3596 28.8575 26.3081 28.8575 26.255 28.853C26.0962 28.8415 25.9485 28.7675 25.8443 28.6471C25.7401 28.5267 25.6881 28.3699 25.6995 28.2111C25.711 28.0523 25.785 27.9045 25.9054 27.8004C26.0258 27.6962 26.1826 27.6441 26.3414 27.6556C26.4435 27.667 26.5469 27.654 26.643 27.6177C26.748 27.5762 26.8485 27.5244 26.9432 27.4631C27.0394 27.3976 27.1311 27.3257 27.2175 27.2478C27.415 27.0518 27.555 26.8054 27.6222 26.5354C27.6859 26.2338 27.5843 26.1322 27.5358 26.0837C27.4598 26.0096 27.3599 25.9649 27.2539 25.9579C27.141 25.9509 27.0277 25.9632 26.9189 25.9943C26.8089 26.0295 26.7039 26.0789 26.6067 26.1413C26.5168 26.2 26.4335 26.2681 26.3581 26.3444C26.2331 26.4708 26.0977 26.5864 25.9534 26.69C25.7576 26.8302 25.542 26.9405 25.3138 27.0174C25.0475 27.1061 24.7654 27.1371 24.4862 27.1084C24.1043 27.0727 23.7463 26.9068 23.4722 26.6385C23.2699 26.4285 23.1253 26.1698 23.0523 25.8876C22.9793 25.6053 22.9803 25.309 23.0553 25.0273C23.1216 24.7465 23.2348 24.479 23.3903 24.2361L23.0265 23.8723C22.9668 23.8176 22.9187 23.7514 22.8852 23.6776C22.8517 23.6038 22.8335 23.524 22.8317 23.4431C22.8298 23.3621 22.8444 23.2815 22.8745 23.2063C22.9046 23.1311 22.9497 23.0628 23.0069 23.0054C23.0642 22.9481 23.1324 22.9029 23.2076 22.8727C23.2827 22.8424 23.3632 22.8277 23.4442 22.8294C23.5252 22.8311 23.605 22.8491 23.6789 22.8825C23.7527 22.9159 23.819 22.9638 23.8738 23.0235L24.2512 23.3994C24.4158 23.2981 24.5899 23.2133 24.7711 23.1463C25.0061 23.0573 25.255 23.0111 25.5063 23.0099C25.6654 23.0096 25.8182 23.0727 25.9309 23.1851C26.0436 23.2975 26.107 23.4501 26.1072 23.6093C26.1074 23.7685 26.0444 23.9213 25.932 24.034C25.8196 24.1467 25.667 24.2101 25.5078 24.2103C25.401 24.2114 25.2953 24.2314 25.1955 24.2694C25.0856 24.3092 24.98 24.3599 24.8803 24.421L24.8499 24.4392C24.7709 24.4866 24.6959 24.5403 24.6256 24.5998C24.4332 24.7912 24.2951 25.0303 24.2255 25.2925C24.1964 25.3765 24.1898 25.4666 24.2066 25.5539C24.2234 25.6412 24.2628 25.7225 24.321 25.7897C24.4009 25.8613 24.502 25.9049 24.6089 25.914C24.7188 25.925 24.8298 25.9131 24.9348 25.8791C25.0487 25.8395 25.1564 25.7839 25.2546 25.7139C25.3455 25.6484 25.4306 25.5754 25.5093 25.4956C25.6455 25.3588 25.7959 25.2368 25.9579 25.1319C26.1462 25.0112 26.3495 24.9159 26.5627 24.8484C26.8131 24.7735 27.0749 24.7437 27.3357 24.7605C27.7314 24.7871 28.104 24.9562 28.3846 25.2365C28.5827 25.4361 28.7247 25.6843 28.7966 25.9562C28.8684 26.2281 28.8675 26.5141 28.7939 26.7855C28.7292 27.0758 28.6148 27.3527 28.4559 27.604L28.8348 27.9845C28.8907 28.0401 28.9351 28.1062 28.9653 28.1791C28.9956 28.2519 29.0112 28.33 29.0112 28.4089C29.0112 28.4877 28.9956 28.5658 28.9653 28.6387C28.9351 28.7115 28.8907 28.7761 28.8348 28.8318Z" fill="#FE4A01"/>
</g>
<defs>
<filter id="filter0_i_1024_462" x="0" y="0" width="50" height="50" filterUnits="userSpaceOnUse" color-interpolation-filters="sRGB">
<feFlood flood-opacity="0" result="BackgroundImageFix"/>
<feBlend mode="normal" in="SourceGraphic" in2="BackgroundImageFix" result="shape"/>
<feColorMatrix in="SourceAlpha" type="matrix" values="0 0 0 0 0 0 0 0 0 0 0 0 0 0 0 0 0 0 127 0" result="hardAlpha"/>
<feMorphology radius="2" operator="erode" in="SourceAlpha" result="effect1_innerShadow_1024_462"/>
<feOffset/>
<feGaussianBlur stdDeviation="2"/>
<feComposite in2="hardAlpha" operator="arithmetic" k2="-1" k3="1"/>
<feColorMatrix type="matrix" values="0 0 0 0 0 0 0 0 0 0 0 0 0 0 0 0 0 0 0.43 0"/>
<feBlend mode="normal" in2="shape" result="effect1_innerShadow_1024_462"/>
</filter>
</defs>
</svg>
