<svg width="50" height="50" viewBox="0 0 50 50" fill="none" xmlns="http://www.w3.org/2000/svg">
<g filter="url(#filter0_i_1024_466)">
<rect width="50" height="50" rx="12" fill="white"/>
<path d="M15.0561 28.8943H34.1771C34.9067 28.8943 35.4985 28.3022 35.4985 27.5726V16.3208C35.4985 15.5918 34.9067 15 34.1771 15H15.0561C14.3265 15 13.7354 15.5918 13.7354 16.3208V27.5726C13.7354 28.3022 14.3265 28.8943 15.0561 28.8943ZM15.7552 16.7751H33.4781V26.808H15.7552V16.7751Z" fill="#FE4A01"/>
<path d="M37.0276 32.5602L34.6708 30.468C34.5192 30.3339 34.3013 30.2578 34.0712 30.2578H15.1519C14.9222 30.2578 14.7039 30.3339 14.5527 30.468L12.1955 32.5602C12.0692 32.6718 12 32.8155 12 32.9643V33.6933C12 33.8635 12.1777 34.0004 12.3973 34.0004H36.8263C37.0464 34.0004 37.2235 33.8635 37.2235 33.6933V32.9643C37.2235 32.8155 37.1539 32.6718 37.0276 32.5602ZM21.9089 32.8071L22.5911 31.8848H26.9133L27.5946 32.8071H21.9089Z" fill="#FE4A01"/>
<path d="M21.3203 21.7882L21.1014 21.757C20.5411 21.6787 20.3403 21.4835 20.3403 21.1976C20.3403 20.8752 20.5714 20.6438 20.9917 20.6438C21.3384 20.6438 21.6489 20.747 21.9838 20.9662L22.0689 20.9478L22.3614 20.4972L22.3489 20.4125C22.0203 20.1627 21.527 19.999 21.01 19.999C20.1579 19.999 19.6101 20.4972 19.6101 21.2465C19.6101 21.9341 20.0603 22.3176 20.8576 22.427L21.0771 22.4576C21.6489 22.5365 21.8313 22.731 21.8313 23.0294C21.8313 23.3758 21.5454 23.6259 21.0525 23.6259C20.5898 23.6259 20.1941 23.4008 19.9266 23.1881L19.8414 23.1938L19.4639 23.6322L19.476 23.7239C19.7987 24.0278 20.3893 24.2707 20.9976 24.2707C22.0268 24.2707 22.5562 23.7239 22.5562 22.9874C22.5563 22.2746 22.1176 21.8969 21.3203 21.7882Z" fill="#FE4A01"/>
<path d="M23.3304 20.0664L23.2695 20.1272V24.1451L23.3304 24.2059H25.923L25.9841 24.1451V23.6216L25.923 23.5608H24.0244L23.9879 23.5237V22.4769L24.0244 22.4405H25.6252L25.6863 22.3796V21.8561L25.6252 21.7953H24.0244L23.9879 21.7582V20.7483L24.0244 20.7118H25.923L25.9841 20.6507V20.1272L25.923 20.0664H23.3304Z" fill="#FE4A01"/>
<path d="M28.1832 19.999C27.4707 19.999 26.9353 20.3392 26.7221 20.9965C26.6369 21.2521 26.6123 21.4835 26.6123 22.1348C26.6123 22.7862 26.6369 23.0176 26.7221 23.2733C26.9353 23.9306 27.4707 24.2707 28.1832 24.2707C28.9012 24.2707 29.4362 23.9305 29.6496 23.2733C29.735 23.0176 29.7596 22.7862 29.7596 22.1348C29.7596 21.4835 29.735 21.2521 29.6496 20.9965C29.4363 20.3392 28.9012 19.999 28.1832 19.999ZM28.9558 23.084C28.8401 23.4195 28.597 23.6259 28.1832 23.6259C27.7751 23.6259 27.5319 23.4195 27.4159 23.084C27.3675 22.9318 27.3429 22.7188 27.3429 22.1348C27.3429 21.5443 27.3675 21.3379 27.4159 21.1851C27.5318 20.8502 27.775 20.6438 28.1832 20.6438C28.597 20.6438 28.8401 20.8502 28.9558 21.1851C29.0042 21.3379 29.0294 21.5443 29.0294 22.1348C29.0294 22.7189 29.0042 22.9318 28.9558 23.084Z" fill="#FE4A01"/>
</g>
<defs>
<filter id="filter0_i_1024_466" x="0" y="0" width="50" height="50" filterUnits="userSpaceOnUse" color-interpolation-filters="sRGB">
<feFlood flood-opacity="0" result="BackgroundImageFix"/>
<feBlend mode="normal" in="SourceGraphic" in2="BackgroundImageFix" result="shape"/>
<feColorMatrix in="SourceAlpha" type="matrix" values="0 0 0 0 0 0 0 0 0 0 0 0 0 0 0 0 0 0 127 0" result="hardAlpha"/>
<feMorphology radius="2" operator="erode" in="SourceAlpha" result="effect1_innerShadow_1024_466"/>
<feOffset/>
<feGaussianBlur stdDeviation="2"/>
<feComposite in2="hardAlpha" operator="arithmetic" k2="-1" k3="1"/>
<feColorMatrix type="matrix" values="0 0 0 0 0 0 0 0 0 0 0 0 0 0 0 0 0 0 0.43 0"/>
<feBlend mode="normal" in2="shape" result="effect1_innerShadow_1024_466"/>
</filter>
</defs>
</svg>
