<svg width="50" height="50" viewBox="0 0 50 50" fill="none" xmlns="http://www.w3.org/2000/svg">
<g filter="url(#filter0_i_1024_488)">
<rect width="50" height="50" rx="12" fill="white"/>
<g clip-path="url(#clip0_1024_488)">
<path d="M37.5102 26.9369L37.1015 25.9822C37.0957 25.9684 37.0852 25.9577 37.0777 25.9447C37.0419 25.8572 36.9986 25.7676 36.9352 25.6759C36.3285 24.7946 34.6438 24.3691 31.9323 24.4054L31.4627 27.4507C31.1868 27.4682 30.9039 27.4836 30.6126 27.4974L31.1193 24.2109L30.776 24.0492L30.3485 25.1926C29.8447 26.3548 28.7187 27.0453 27.5403 27.0453C27.1378 27.0453 26.7286 26.9644 26.3364 26.7944L17.6436 22.8732C16.6814 22.8578 15.5721 22.5723 14.3208 21.8431C14.3012 21.8319 14.2778 21.8323 14.2566 21.8244C14.2299 21.8135 14.2058 21.7981 14.1762 21.7936C13.8532 21.7386 13.4761 21.5094 13.4761 21.0427C13.4761 20.8127 13.2899 20.626 13.0594 20.626C12.8294 20.626 12.6427 20.8127 12.6427 21.0427C12.6427 21.6915 13.0361 22.2398 13.6328 22.492C13.2836 24.3467 12.7627 27.0336 12.6644 27.3291C12.6585 27.3462 12.6627 27.3641 12.6594 27.382C12.6542 27.4082 12.6426 27.4336 12.6426 27.4611V30.3738C12.6426 30.4842 12.6868 30.5905 12.7647 30.6684C12.843 30.7468 12.9489 30.7905 13.0593 30.7905C13.0593 30.7905 23.0606 30.7905 29.6216 30.7797C33.8111 30.773 35.8863 29.9112 36.8889 29.1895C37.5652 28.7029 37.824 27.7844 37.5102 26.9369ZM15.5595 24.1233C15.7899 24.1233 15.9762 24.31 15.9762 24.54C15.9762 24.7704 15.7899 24.9566 15.5595 24.9566C15.3295 24.9566 15.1428 24.7704 15.1428 24.54C15.1428 24.31 15.3295 24.1233 15.5595 24.1233ZM15.1428 25.7901C15.3732 25.7901 15.5595 25.9768 15.5595 26.2068C15.5595 26.4372 15.3732 26.6235 15.1428 26.6235C14.9128 26.6235 14.7261 26.4372 14.7261 26.2068C14.7261 25.9768 14.9128 25.7901 15.1428 25.7901ZM36.4022 28.5133C35.6626 29.0458 33.7978 29.9397 29.6199 29.9463C23.8553 29.9559 15.4333 29.9571 13.476 29.9571V27.9094C15.0141 28.0211 19.0582 28.2907 23.3831 28.3891H23.3965C24.3107 28.4099 25.2371 28.4228 26.1551 28.4249H26.2138C26.2851 28.4253 26.3563 28.4258 26.4276 28.4258C26.5714 28.4258 26.7135 28.4241 26.8568 28.4237C26.9714 28.4232 27.086 28.4232 27.2001 28.4224C27.3889 28.4207 27.5756 28.4186 27.7627 28.4161C27.8827 28.4145 28.0031 28.4132 28.1223 28.4111C28.3023 28.4082 28.4798 28.4041 28.6577 28.3999C28.7806 28.397 28.9036 28.3945 29.0253 28.3912C29.1957 28.3866 29.3636 28.3803 29.532 28.3745C29.6583 28.3704 29.7849 28.3662 29.91 28.3612C30.0691 28.3549 30.2254 28.347 30.3821 28.3395C30.5108 28.3337 30.6396 28.3275 30.7658 28.3208C30.9154 28.3124 31.0613 28.3033 31.208 28.2937C31.3359 28.2857 31.4647 28.2778 31.5901 28.2687C31.7305 28.2586 31.8668 28.2474 32.0034 28.2366C32.1289 28.2262 32.2547 28.2162 32.3768 28.2049C32.5073 28.1933 32.6331 28.1799 32.7598 28.167C32.8818 28.1545 33.0044 28.142 33.1231 28.1287C33.2435 28.1149 33.3594 28.0995 33.4757 28.0849C33.5923 28.0699 33.709 28.0549 33.8211 28.0387C33.9328 28.0228 34.0394 28.0053 34.147 27.9882C34.2553 27.9707 34.3636 27.9536 34.4674 27.9349C34.5699 27.9166 34.6666 27.8969 34.7645 27.8774C34.8641 27.8573 34.9641 27.8374 35.0587 27.8161C35.1508 27.7953 35.237 27.7732 35.3245 27.7511C35.4142 27.7286 35.5037 27.7061 35.5883 27.6819C35.67 27.6586 35.7454 27.6336 35.8217 27.609C35.9005 27.5836 35.9792 27.5582 36.0517 27.5315C36.1226 27.5053 36.1867 27.4778 36.2517 27.4503C36.318 27.4219 36.3847 27.3936 36.4447 27.364C36.5039 27.3349 36.5563 27.304 36.6088 27.2736C36.6451 27.2524 36.6884 27.2332 36.7218 27.2111L36.7364 27.2453C36.9131 27.7232 36.7756 28.2445 36.4022 28.5133Z" fill="#FE4A01"/>
<path d="M29.576 24.8802L30.0198 23.693L29.6523 23.5201L28.4184 25.577C28.3401 25.707 28.2021 25.7791 28.0605 25.7791C27.9876 25.7791 27.9138 25.7599 27.8467 25.7199C27.6491 25.6012 27.5854 25.3453 27.7037 25.1482L28.8943 23.1635L27.9625 22.7251L26.7516 24.7436C26.6732 24.8736 26.5353 24.9457 26.3936 24.9457C26.3207 24.9457 26.2469 24.9266 26.1798 24.8866C25.9823 24.7678 25.9186 24.5119 26.0369 24.3148L27.2045 22.3684L26.2727 21.93L25.0847 23.9102C25.0064 24.0402 24.8684 24.1123 24.7268 24.1123C24.6539 24.1123 24.5801 24.0931 24.513 24.0531C24.3155 23.9344 24.2517 23.6785 24.37 23.4814L25.5147 21.5733L24.583 21.1345L23.4179 23.0768C23.3395 23.2068 23.2016 23.2789 23.0599 23.2789C22.987 23.2789 22.9132 23.2597 22.8461 23.2197C22.6486 23.101 22.5849 22.8451 22.7032 22.648L23.825 20.7778L22.7003 20.2486C22.5095 20.159 22.2836 20.2261 22.1707 20.4028C22.1024 20.5107 21.0806 22.0696 19.1846 22.6534L26.6732 26.0316C27.7863 26.5141 29.0905 25.9987 29.576 24.8802Z" fill="#FE4A01"/>
</g>
</g>
<defs>
<filter id="filter0_i_1024_488" x="0" y="0" width="50" height="50" filterUnits="userSpaceOnUse" color-interpolation-filters="sRGB">
<feFlood flood-opacity="0" result="BackgroundImageFix"/>
<feBlend mode="normal" in="SourceGraphic" in2="BackgroundImageFix" result="shape"/>
<feColorMatrix in="SourceAlpha" type="matrix" values="0 0 0 0 0 0 0 0 0 0 0 0 0 0 0 0 0 0 127 0" result="hardAlpha"/>
<feMorphology radius="2" operator="erode" in="SourceAlpha" result="effect1_innerShadow_1024_488"/>
<feOffset/>
<feGaussianBlur stdDeviation="2"/>
<feComposite in2="hardAlpha" operator="arithmetic" k2="-1" k3="1"/>
<feColorMatrix type="matrix" values="0 0 0 0 0 0 0 0 0 0 0 0 0 0 0 0 0 0 0.43 0"/>
<feBlend mode="normal" in2="shape" result="effect1_innerShadow_1024_488"/>
</filter>
<clipPath id="clip0_1024_488">
<rect width="25" height="25" fill="white" transform="translate(12.6426 13)"/>
</clipPath>
</defs>
</svg>
