<svg width="50" height="50" viewBox="0 0 50 50" fill="none" xmlns="http://www.w3.org/2000/svg">
<g filter="url(#filter0_i_1024_503)">
<rect width="50" height="50" rx="12" fill="white"/>
<g clip-path="url(#clip0_1024_503)">
<path d="M38.6426 18.6562L37.4306 22.0402V22.0282C36.8066 21.8002 36.1946 21.8362 35.5946 22.1242C34.9946 22.4122 34.5746 22.8682 34.3466 23.4922C34.1186 24.1162 34.1546 24.7282 34.4306 25.3282C34.7186 25.9282 35.1746 26.3362 35.8106 26.5642V26.5762L34.5986 29.9602L16.5266 23.5042L17.7146 20.1562C18.3386 20.3842 18.9506 20.3482 19.5506 20.0602C20.1506 19.7842 20.5586 19.3282 20.7866 18.7042C21.0146 18.0802 20.9786 17.4682 20.6906 16.8682C20.4146 16.2802 19.9586 15.8722 19.3346 15.6442L20.5586 12.2002L38.6426 18.6562ZM32.6786 25.4842L34.3226 20.9722C34.4666 20.6002 34.4426 20.1922 34.2746 19.8322C34.1066 19.4722 33.8066 19.1962 33.4346 19.0522L24.4106 15.7762C23.6426 15.5002 22.7666 15.9202 22.4906 16.6642L20.8466 21.1762C20.5586 21.9562 20.9666 22.8202 21.7346 23.0962L30.7586 26.3842C30.9266 26.4442 31.0946 26.4802 31.2746 26.4802C31.8986 26.4802 32.4746 26.0842 32.6786 25.4842ZM24.2066 16.3402L33.2186 19.6162C33.4466 19.7002 33.6266 19.8682 33.7346 20.0842C33.8306 20.3002 33.8426 20.5402 33.7586 20.7682L32.1146 25.2802C31.9586 25.7362 31.4186 25.9882 30.9626 25.8202L21.9506 22.5322C21.4826 22.3642 21.2426 21.8482 21.4106 21.3802L23.0546 16.8682C23.1746 16.5202 23.5226 16.2802 23.8946 16.2802C24.0026 16.2802 24.0986 16.3042 24.2066 16.3402ZM32.3906 30.9082C32.8106 31.2322 33.2906 31.4002 33.8306 31.4002H33.8426V35.0002H14.6426V31.4482C15.3026 31.4482 15.8786 31.2082 16.3346 30.7402C16.8026 30.2842 17.0426 29.7082 17.0426 29.0482C17.0426 28.3882 16.8026 27.8242 16.3346 27.3562C15.8666 26.8882 15.3026 26.6482 14.6426 26.6482V23.0002H15.9026L15.5666 23.9602L19.0106 25.1842C18.3986 25.3762 17.9426 25.9282 17.9426 26.6002V31.4002C17.9426 32.2282 18.6146 32.9002 19.4426 32.9002H29.0426C29.8706 32.9002 30.5426 32.2282 30.5426 31.4002V29.3002L31.5386 29.6602C31.6826 30.1762 31.9706 30.5962 32.3906 30.9082ZM18.5426 31.4002V26.6002C18.5426 26.1082 18.9506 25.7002 19.4426 25.7002H20.4386L29.9426 29.0962V31.4002C29.9426 31.8922 29.5346 32.3002 29.0426 32.3002H19.4426C18.9506 32.3002 18.5426 31.8922 18.5426 31.4002Z" fill="#FE4A01"/>
</g>
</g>
<defs>
<filter id="filter0_i_1024_503" x="0" y="0" width="50" height="50" filterUnits="userSpaceOnUse" color-interpolation-filters="sRGB">
<feFlood flood-opacity="0" result="BackgroundImageFix"/>
<feBlend mode="normal" in="SourceGraphic" in2="BackgroundImageFix" result="shape"/>
<feColorMatrix in="SourceAlpha" type="matrix" values="0 0 0 0 0 0 0 0 0 0 0 0 0 0 0 0 0 0 127 0" result="hardAlpha"/>
<feMorphology radius="2" operator="erode" in="SourceAlpha" result="effect1_innerShadow_1024_503"/>
<feOffset/>
<feGaussianBlur stdDeviation="2"/>
<feComposite in2="hardAlpha" operator="arithmetic" k2="-1" k3="1"/>
<feColorMatrix type="matrix" values="0 0 0 0 0 0 0 0 0 0 0 0 0 0 0 0 0 0 0.43 0"/>
<feBlend mode="normal" in2="shape" result="effect1_innerShadow_1024_503"/>
</filter>
<clipPath id="clip0_1024_503">
<rect width="24" height="24" fill="white" transform="translate(14.6426 11)"/>
</clipPath>
</defs>
</svg>
