<svg width="50" height="50" viewBox="0 0 50 50" fill="none" xmlns="http://www.w3.org/2000/svg">
<g filter="url(#filter0_i_1024_481)">
<rect width="50" height="50" rx="12" fill="white"/>
<path d="M27.9652 23.3828C28.0226 23.9455 28.0555 24.4901 28.0555 24.9998C28.0555 25.9539 27.9402 27.0313 27.7638 28.1206C26.6745 28.297 25.5971 28.4123 24.643 28.4123C23.6932 28.4123 22.6161 28.2973 21.5221 28.1203C21.3458 27.031 21.2305 25.9538 21.2305 24.9998C21.2305 24.4903 21.2634 23.9456 21.3209 23.3828C22.469 23.5666 23.6145 23.6873 24.643 23.6873C25.6716 23.6873 26.817 23.5666 27.9652 23.3828Z" fill="#FE4A01"/>
<path d="M29.5176 23.0991C29.5886 23.7576 29.6299 24.3987 29.6299 24.9997C29.6299 25.8766 29.5421 26.8386 29.4023 27.815C31.3849 27.4013 33.2174 26.8728 34.1991 26.5719C34.5163 26.4747 34.641 26.436 34.8082 26.3691C34.8918 26.3357 34.9684 26.3017 35.0683 26.254C35.1172 25.8427 35.1424 25.4241 35.1424 24.9997C35.1424 23.8777 34.9664 22.7969 34.6406 21.7832L34.5557 21.8099C33.5292 22.1222 31.6076 22.6742 29.5176 23.0991Z" fill="#FE4A01"/>
<path d="M34.0444 20.3196C33.0125 20.6323 31.2217 21.1405 29.3026 21.5361C28.8605 18.8493 28.0857 16.1696 27.7129 14.9561C30.4849 15.8023 32.77 17.7647 34.0444 20.3196Z" fill="#FE4A01"/>
<path d="M27.7545 21.8223C26.6681 21.9978 25.5941 22.1125 24.6428 22.1125C23.6915 22.1125 22.6176 21.9978 21.5312 21.8223C21.9475 19.2801 22.6906 16.6831 23.0706 15.4433C23.1678 15.1261 23.2065 15.0014 23.2734 14.8342C23.3068 14.7506 23.3408 14.674 23.3885 14.5741C23.7998 14.5252 24.2184 14.5 24.6428 14.5C25.0862 14.5 25.5231 14.5275 25.9521 14.5808C25.9612 14.6156 25.9696 14.6468 25.9779 14.6763C26.0025 14.7633 26.041 14.8857 26.1056 15.091L26.1124 15.1126C26.4363 16.1422 27.2947 19.014 27.7545 21.8223Z" fill="#FE4A01"/>
<path d="M19.9829 21.5361C20.423 18.8612 21.1927 16.1958 21.5648 14.9819L21.5727 14.9561C18.8006 15.8023 16.5156 17.7647 15.2412 20.3195C16.273 20.6323 18.0638 21.1404 19.9829 21.5361Z" fill="#FE4A01"/>
<path d="M14.6444 21.7832C14.3186 22.7969 14.1426 23.8778 14.1426 24.9998C14.1426 25.4387 14.1695 25.8713 14.2218 26.2961L14.3873 26.3513L14.3886 26.3517L14.3902 26.3523L14.3914 26.3526C14.4446 26.3703 16.0056 26.8858 18.0614 27.3973C18.6414 27.5416 19.2556 27.6842 19.8826 27.8149C19.7428 26.8386 19.6551 25.8767 19.6551 24.9998C19.6551 24.3986 19.6963 23.7575 19.7673 23.0992C17.6769 22.6741 15.7548 22.1219 14.7285 21.8096L14.7214 21.8075L14.6444 21.7832Z" fill="#FE4A01"/>
<path d="M24.6424 29.9874C25.5193 29.9874 26.4813 29.8996 27.4577 29.7598C27.044 31.7424 26.5155 33.5749 26.2146 34.5565C26.1174 34.8738 26.0787 34.9984 26.0118 35.1657C25.9784 35.2493 25.9444 35.3259 25.8967 35.4258C25.4854 35.4747 25.0668 35.4999 24.6424 35.4999C24.218 35.4999 23.7994 35.4747 23.3881 35.4258C23.3404 35.3259 23.3064 35.2493 23.273 35.1657C23.2061 34.9985 23.1674 34.8738 23.0702 34.5566C22.7693 33.575 22.2408 31.7426 21.8271 29.7602C22.8003 29.8995 23.7625 29.9874 24.6424 29.9874Z" fill="#FE4A01"/>
<path d="M17.6812 28.926C16.3812 28.6025 15.274 28.2776 14.5986 28.0703C15.6152 31.4003 18.2425 34.0275 21.5725 35.0441L21.5646 35.0183C21.2397 33.9583 20.6116 31.7918 20.1646 29.4785C19.2952 29.3104 18.4499 29.1172 17.6812 28.926Z" fill="#FE4A01"/>
<path d="M34.6609 28.0782C33.6009 28.4031 31.4342 29.0312 29.1208 29.4782C28.6738 31.7916 28.0457 33.9582 27.7208 35.0183L27.7129 35.0441C31.0429 34.0275 33.6701 31.4003 34.6867 28.0703L34.6609 28.0782Z" fill="#FE4A01"/>
<path d="M14.2529 26.3232C14.2893 26.3279 14.3189 26.3329 14.3287 26.3351C14.3373 26.3372 14.3508 26.3408 14.3557 26.3421L14.3665 26.3452L14.3724 26.347L14.3785 26.3489L14.3836 26.3505C14.3807 26.3496 14.3224 26.335 14.2529 26.3232Z" fill="#FE4A01"/>
</g>
<defs>
<filter id="filter0_i_1024_481" x="0" y="0" width="50" height="50" filterUnits="userSpaceOnUse" color-interpolation-filters="sRGB">
<feFlood flood-opacity="0" result="BackgroundImageFix"/>
<feBlend mode="normal" in="SourceGraphic" in2="BackgroundImageFix" result="shape"/>
<feColorMatrix in="SourceAlpha" type="matrix" values="0 0 0 0 0 0 0 0 0 0 0 0 0 0 0 0 0 0 127 0" result="hardAlpha"/>
<feMorphology radius="2" operator="erode" in="SourceAlpha" result="effect1_innerShadow_1024_481"/>
<feOffset/>
<feGaussianBlur stdDeviation="2"/>
<feComposite in2="hardAlpha" operator="arithmetic" k2="-1" k3="1"/>
<feColorMatrix type="matrix" values="0 0 0 0 0 0 0 0 0 0 0 0 0 0 0 0 0 0 0.43 0"/>
<feBlend mode="normal" in2="shape" result="effect1_innerShadow_1024_481"/>
</filter>
</defs>
</svg>
