<svg width="55" height="55" viewBox="0 0 55 55" fill="none" xmlns="http://www.w3.org/2000/svg">
<path d="M46.4062 6.875H8.59375C4.79679 6.875 1.71875 9.95304 1.71875 13.75V41.25C1.71875 45.047 4.79679 48.125 8.59375 48.125H46.4062C50.2032 48.125 53.2812 45.047 53.2812 41.25V13.75C53.2812 9.95304 50.2032 6.875 46.4062 6.875Z" fill="#061B65"/>
<path d="M11.1719 23.6741V27.5H18.0469V23.6723L23.2667 27.5H27.5V25.367L21.0341 20.625H27.5V13.75H22.7906L27.5 10.297V6.875H25.0233L18.0469 11.9917V6.875H11.1719V11.6772L5.57391 7.57109C4.25563 8.21391 3.18656 9.26063 2.50422 10.5583L6.85609 13.7517H1.71875V20.6267H8.18641L1.71875 25.3705V27.5017H5.95375L11.1719 23.6741Z" fill="white"/>
<path d="M3.10254 9.60688L8.74863 13.7508H11.093L4.05473 8.58594C3.7041 8.89531 3.38441 9.23391 3.10254 9.60688Z" fill="#D22D32"/>
<path d="M1.71875 27.5L11.0928 20.625V22.3438L4.06141 27.5H1.71875Z" fill="#D22D32"/>
<path d="M11.7532 32.2109L12.6745 35.0744L15.4864 34.0088L13.8226 36.513L16.4093 38.0478L13.4136 38.3091L13.8261 41.2877L11.755 39.1083L9.68387 41.2877L10.0964 38.3091L7.10059 38.0478L9.6873 36.513L8.02356 34.0088L10.8354 35.0744L11.7567 32.2109H11.7532Z" fill="white"/>
<path d="M39.7251 37.3906L40.2252 38.9478L41.7549 38.3686L40.8491 39.7316L42.2568 40.5669L40.6274 40.7078L40.8526 42.3286L39.7251 41.1427L38.5976 42.3286L38.8227 40.7078L37.1934 40.5669L38.601 39.7316L37.6952 38.3686L39.2249 38.9478L39.7251 37.3906Z" fill="white"/>
<path d="M34.6606 22.5625L35.1608 24.1197L36.6905 23.5405L35.7847 24.9034L37.1923 25.7388L35.563 25.8797L35.7881 27.5005L34.6606 26.3145L33.5331 27.5005L33.7583 25.8797L32.1289 25.7388L33.5366 24.9034L32.6308 23.5405L34.1605 24.1197L34.6606 22.5625Z" fill="white"/>
<path d="M40.27 12.25L40.7702 13.8072L42.2998 13.228L41.3941 14.5909L42.8017 15.4263L41.1723 15.5672L41.3975 17.188L40.27 16.002L39.1425 17.188L39.3677 15.5672L37.7383 15.4263L39.1459 14.5909L38.2402 13.228L39.7698 13.8072L40.27 12.25Z" fill="white"/>
<path d="M48.352 18.5898L48.8522 20.147L50.3819 19.5678L49.4761 20.9308L50.8837 21.7661L49.2544 21.907L49.4795 23.5278L48.352 22.3419L47.2245 23.5278L47.4497 21.907L45.8203 21.7661L47.228 20.9308L46.3222 19.5678L47.8519 20.147L48.352 18.5898Z" fill="white"/>
<path d="M44.244 27.5L44.6393 28.4711L45.6843 28.5484L44.8834 29.2239L45.1343 30.2414L44.244 29.6897L43.3537 30.2414L43.6047 29.2239L42.8037 28.5484L43.8487 28.4711L44.244 27.5Z" fill="white"/>
<path d="M16.3281 27.5H12.8906V18.9062H1.71875V15.4688H12.8906V6.875H16.3281V15.4688H27.5V18.9062H16.3281V27.5Z" fill="#D22D32"/>
<path d="M27.5 26.9277L18.9062 20.625V22.3438L25.9377 27.5H27.5V26.9277Z" fill="#D22D32"/>
<path d="M27.4998 6.875H27.0736L17.6875 13.7569H20.0319L27.4998 8.28094V6.875Z" fill="#D22D32"/>
<path opacity="0.15" d="M46.4062 6.875H8.59375C4.79703 6.875 1.71875 9.95328 1.71875 13.75V41.25C1.71875 45.0467 4.79703 48.125 8.59375 48.125H46.4062C50.203 48.125 53.2812 45.0467 53.2812 41.25V13.75C53.2812 9.95328 50.203 6.875 46.4062 6.875ZM51.5625 41.25C51.5625 44.0928 49.2491 46.4062 46.4062 46.4062H8.59375C5.75094 46.4062 3.4375 44.0928 3.4375 41.25V13.75C3.4375 10.9072 5.75094 8.59375 8.59375 8.59375H46.4062C49.2491 8.59375 51.5625 10.9072 51.5625 13.75V41.25Z" fill="black"/>
<path opacity="0.2" d="M46.4062 8.59375H8.59375C5.74578 8.59375 3.4375 10.902 3.4375 13.75V15.4688C3.4375 12.6208 5.74578 10.3125 8.59375 10.3125H46.4062C49.2542 10.3125 51.5625 12.6208 51.5625 15.4688V13.75C51.5625 10.902 49.2542 8.59375 46.4062 8.59375Z" fill="white"/>
</svg>
