<svg width="55" height="55" viewBox="0 0 55 55" fill="none" xmlns="http://www.w3.org/2000/svg">
<path d="M13.75 6.875H41.25V48.125H13.75V6.875Z" fill="white"/>
<path d="M8.59375 6.875H15.4688V48.125H8.59375C4.79875 48.125 1.71875 45.045 1.71875 41.25V13.75C1.71875 9.955 4.79875 6.875 8.59375 6.875Z" fill="#C53A28"/>
<path d="M46.4062 48.125H39.5312L39.5312 6.875H46.4062C50.2012 6.875 53.2812 9.955 53.2812 13.75L53.2812 41.25C53.2812 45.045 50.2012 48.125 46.4062 48.125Z" fill="#C53A28"/>
<path opacity="0.15" d="M46.4062 6.875H8.59375C4.79703 6.875 1.71875 9.95328 1.71875 13.75V41.25C1.71875 45.0467 4.79703 48.125 8.59375 48.125H46.4062C50.203 48.125 53.2812 45.0467 53.2812 41.25V13.75C53.2812 9.95328 50.203 6.875 46.4062 6.875ZM51.5625 41.25C51.5625 44.0928 49.2491 46.4062 46.4062 46.4062H8.59375C5.75094 46.4062 3.4375 44.0928 3.4375 41.25V13.75C3.4375 10.9072 5.75094 8.59375 8.59375 8.59375H46.4062C49.2491 8.59375 51.5625 10.9072 51.5625 13.75V41.25Z" fill="black"/>
<path d="M27.9731 38.0992L27.7359 33.56C27.7239 33.285 27.937 33.0513 28.212 33.0375C28.2481 33.0375 28.2842 33.0375 28.3203 33.0444L32.8389 33.8384L32.2287 32.1558C32.1771 32.0183 32.2201 31.8636 32.3336 31.7725L37.2836 27.7644L36.1681 27.2436C36.0117 27.1697 35.9361 26.9927 35.9893 26.8277L36.9673 23.8181L34.1159 24.4231C33.9561 24.4558 33.7962 24.3733 33.7326 24.2238L33.1809 22.9244L30.9551 25.3117C30.8245 25.4492 30.6096 25.4544 30.4721 25.3238C30.3879 25.243 30.3501 25.1261 30.3725 25.0109L31.445 19.4766L29.7245 20.47C29.5612 20.5663 29.3515 20.5113 29.257 20.348C29.2536 20.3411 29.2501 20.3342 29.2467 20.3273L27.5004 16.8984L25.7542 20.3273C25.67 20.4958 25.4637 20.5645 25.2953 20.4803C25.2884 20.4769 25.2815 20.4734 25.2746 20.47L23.5542 19.4766L24.6267 25.0109C24.6628 25.1966 24.5407 25.3753 24.3551 25.4114C24.24 25.4338 24.1231 25.3959 24.0423 25.3117L21.8165 22.9244L21.2648 24.2238C21.2012 24.3733 21.0396 24.4575 20.8815 24.4231L18.0301 23.8181L19.0081 26.8277C19.0614 26.9909 18.9857 27.1697 18.8293 27.2436L17.7139 27.7644L22.6639 31.7725C22.7773 31.8653 22.8203 32.02 22.7687 32.1558L22.1586 33.8384L26.6771 33.0444C26.9487 32.998 27.2082 33.1802 27.2546 33.4517C27.2615 33.4878 27.2632 33.5239 27.2615 33.56L27.0243 38.0992H27.9731Z" fill="#C53A28"/>
<path opacity="0.2" d="M46.4062 8.59375H8.59375C5.74578 8.59375 3.4375 10.902 3.4375 13.75V15.4688C3.4375 12.6208 5.74578 10.3125 8.59375 10.3125H46.4062C49.2542 10.3125 51.5625 12.6208 51.5625 15.4688V13.75C51.5625 10.902 49.2542 8.59375 46.4062 8.59375Z" fill="white"/>
</svg>
