<svg width="55" height="55" viewBox="0 0 55 55" fill="none" xmlns="http://www.w3.org/2000/svg">
<path d="M46.4062 6.875H8.59375C4.79679 6.875 1.71875 9.95304 1.71875 13.75V41.25C1.71875 45.047 4.79679 48.125 8.59375 48.125H46.4062C50.2032 48.125 53.2812 45.047 53.2812 41.25V13.75C53.2812 9.95304 50.2032 6.875 46.4062 6.875Z" fill="#DB362F"/>
<path opacity="0.15" d="M46.4062 6.875H8.59375C4.79703 6.875 1.71875 9.95328 1.71875 13.75V41.25C1.71875 45.0467 4.79703 48.125 8.59375 48.125H46.4062C50.203 48.125 53.2812 45.0467 53.2812 41.25V13.75C53.2812 9.95328 50.203 6.875 46.4062 6.875ZM51.5625 41.25C51.5625 44.0928 49.2491 46.4062 46.4062 46.4062H8.59375C5.75094 46.4062 3.4375 44.0928 3.4375 41.25V13.75C3.4375 10.9072 5.75094 8.59375 8.59375 8.59375H46.4062C49.2491 8.59375 51.5625 10.9072 51.5625 13.75V41.25Z" fill="black"/>
<path d="M13.678 17.4494L12.358 13.3828L11.0363 17.4494H6.76172L10.2198 19.9622L8.89813 24.027L12.358 21.5142L15.8161 24.027L14.4944 19.9622L17.9542 17.4494H13.678Z" fill="#FFFF00"/>
<path d="M21.8712 14.072L22.6051 15.2941L22.7288 13.8744L24.1176 13.5547L22.8062 12.9978L22.9316 11.5781L21.9966 12.6523L20.6852 12.0955L21.4174 13.3175L20.4824 14.3917L21.8712 14.072Z" fill="#FFFF00"/>
<path d="M25.5487 17.8255L25.7498 19.2366L26.4167 17.9767L27.8209 18.2208L26.8292 17.1981L27.4944 15.9383L26.2156 16.5656L25.2222 15.543L25.425 16.9541L24.1445 17.5814L25.5487 17.8255Z" fill="#FFFF00"/>
<path d="M26.8078 23.3961L27.9301 22.5178L26.5053 22.5677L26.0171 21.2305L25.6253 22.6003L24.2021 22.6519L25.3846 23.4477L24.9928 24.8175L26.1151 23.9392L27.2959 24.735L26.8078 23.3961Z" fill="#FFFF00"/>
<path d="M22.7907 26.7005L22.856 25.2773L21.9657 26.3894L20.6337 25.8875L21.4157 27.0769L20.5254 28.1906L21.9004 27.8125L22.6841 29.0036L22.7495 27.5805L24.1245 27.2023L22.7907 26.7005Z" fill="#FFFF00"/>
<path opacity="0.2" d="M46.4062 8.59375H8.59375C5.74578 8.59375 3.4375 10.902 3.4375 13.75V15.4688C3.4375 12.6208 5.74578 10.3125 8.59375 10.3125H46.4062C49.2542 10.3125 51.5625 12.6208 51.5625 15.4688V13.75C51.5625 10.902 49.2542 8.59375 46.4062 8.59375Z" fill="white"/>
</svg>
