<svg width="55" height="55" viewBox="0 0 55 55" fill="none" xmlns="http://www.w3.org/2000/svg">
<path d="M17.1875 6.875H37.8125V48.125H17.1875V6.875Z" fill="white"/>
<path d="M8.59375 6.875H18.9062V48.125H8.59375C4.79875 48.125 1.71875 45.045 1.71875 41.25V13.75C1.71875 9.955 4.79875 6.875 8.59375 6.875Z" fill="#092050"/>
<path d="M46.4062 48.125H36.0938V6.875H46.4062C50.2012 6.875 53.2812 9.955 53.2812 13.75L53.2812 41.25C53.2812 45.045 50.2012 48.125 46.4062 48.125Z" fill="#BE2A2C"/>
<path opacity="0.15" d="M46.4062 6.875H8.59375C4.79703 6.875 1.71875 9.95328 1.71875 13.75V41.25C1.71875 45.0467 4.79703 48.125 8.59375 48.125H46.4062C50.203 48.125 53.2812 45.0467 53.2812 41.25V13.75C53.2812 9.95328 50.203 6.875 46.4062 6.875ZM51.5625 41.25C51.5625 44.0928 49.2491 46.4062 46.4062 46.4062H8.59375C5.75094 46.4062 3.4375 44.0928 3.4375 41.25V13.75C3.4375 10.9072 5.75094 8.59375 8.59375 8.59375H46.4062C49.2491 8.59375 51.5625 10.9072 51.5625 13.75V41.25Z" fill="black"/>
<path opacity="0.2" d="M46.4062 8.59375H8.59375C5.74578 8.59375 3.4375 10.902 3.4375 13.75V15.4688C3.4375 12.6208 5.74578 10.3125 8.59375 10.3125H46.4062C49.2542 10.3125 51.5625 12.6208 51.5625 15.4688V13.75C51.5625 10.902 49.2542 8.59375 46.4062 8.59375Z" fill="white"/>
</svg>
