<svg width="55" height="55" viewBox="0 0 55 55" fill="none" xmlns="http://www.w3.org/2000/svg">
<path d="M17.1875 6.875H37.8125V48.125H17.1875V6.875Z" fill="white"/>
<path d="M8.59375 6.875H18.9062V48.125H8.59375C4.79875 48.125 1.71875 45.045 1.71875 41.25V13.75C1.71875 9.955 4.79875 6.875 8.59375 6.875Z" fill="#2C6748"/>
<path d="M46.4062 48.125H36.0938V6.875H46.4062C50.2012 6.875 53.2812 9.955 53.2812 13.75L53.2812 41.25C53.2812 45.045 50.2012 48.125 46.4062 48.125Z" fill="#BE2A2C"/>
<path opacity="0.15" d="M46.4062 6.875H8.59375C4.79703 6.875 1.71875 9.95328 1.71875 13.75V41.25C1.71875 45.0467 4.79703 48.125 8.59375 48.125H46.4062C50.203 48.125 53.2812 45.0467 53.2812 41.25V13.75C53.2812 9.95328 50.203 6.875 46.4062 6.875ZM51.5625 41.25C51.5625 44.0928 49.2491 46.4062 46.4062 46.4062H8.59375C5.75094 46.4062 3.4375 44.0928 3.4375 41.25V13.75C3.4375 10.9072 5.75094 8.59375 8.59375 8.59375H46.4062C49.2491 8.59375 51.5625 10.9072 51.5625 13.75V41.25Z" fill="black"/>
<path opacity="0.2" d="M46.4062 8.59375H8.59375C5.74578 8.59375 3.4375 10.902 3.4375 13.75V15.4688C3.4375 12.6208 5.74578 10.3125 8.59375 10.3125H46.4062C49.2542 10.3125 51.5625 12.6208 51.5625 15.4688V13.75C51.5625 10.902 49.2542 8.59375 46.4062 8.59375Z" fill="white"/>
<path d="M32.1425 31.9886C31.3484 30.8027 30.8706 32.5369 30.0542 32.4218C30.2691 31.0296 28.717 31.5624 27.9986 31.8855L28.2822 31.4713C27.208 31.9715 25.9309 30.2476 25.1609 31.5194C24.9977 31.1671 23.645 30.3352 23.0967 30.9557C23.1397 29.2077 20.1353 29.3108 21.7097 31.0949C22.7925 31.4026 23.3855 32.7518 25.0011 32.0471C25.2228 32.958 26.7628 33.0491 27.4297 32.5576C27.3403 32.8343 27.3833 33.6266 27.3592 33.7865C28.1825 34.4465 28.1928 33.4032 28.772 33.0749C29.6125 32.6452 32.6822 33.9377 32.1408 31.9904L32.1425 31.9886Z" fill="#3B8288"/>
<path d="M25.1348 29.6719C25.1348 29.6719 25.1413 29.6768 25.1544 29.6833C25.1429 29.6768 25.1348 29.6719 25.1348 29.6719Z" fill="#A27037"/>
<path d="M31.3076 22.3746C31.311 21.5204 25.0857 19.7037 26.966 22.4915C26.5226 22.5551 25.7784 22.2337 25.7423 21.8865C25.7681 21.9552 25.5532 22.3127 25.4827 22.3454C25.4724 22.1735 25.4312 22.0154 25.4312 22.0154V22.0223C25.2163 21.4895 25.3831 22.7665 25.0032 22.6582C25.1338 22.6084 25.0135 22.0326 24.9138 22.1082C24.9774 22.1495 24.8331 22.8129 24.7059 22.8421C24.7832 22.7304 24.6337 22.2852 24.5993 22.3746C24.7076 22.8267 23.8259 23.356 23.9531 23.5795C23.3756 23.784 23.1263 25.2054 24.1593 24.8806C23.7193 24.6502 23.9273 24.0745 24.4549 24.1346C24.4309 24.1295 24.5288 24.1707 24.5013 24.1896C24.6371 24.8273 25.3349 24.0659 25.6099 23.9696C25.3195 25.5887 24.5752 27.1252 26.1049 28.7357C25.5979 28.2012 25.5051 28.8285 26.0774 29.0159C25.732 29.0331 25.3367 29.3682 25.9313 29.5538C25.8093 29.6776 25.3384 29.3184 25.5962 29.5693C25.591 29.5676 25.5859 29.5642 25.5807 29.5624C25.5807 29.5624 25.5842 29.5659 25.591 29.571C24.6079 29.5281 25.5481 29.9148 25.9588 29.9526C25.6254 30.4768 26.7873 29.9921 26.9007 29.9801C27.1293 30.5559 27.3098 30.0351 27.2582 29.6071C27.4215 29.7945 27.5848 29.9801 27.7515 30.164C28.0127 30.2345 28.2981 31.3981 28.494 30.7913C28.5009 30.7673 28.5043 30.7432 28.5077 30.7192C28.8962 31.1557 29.0818 31.3207 28.9116 30.6281C29.1231 30.9752 29.3121 31.0749 29.2571 30.6212C29.5768 30.9563 29.4926 30.5009 29.4599 30.2671C29.7676 31.4892 32.8716 31.2313 32.552 30.4098C32.0157 29.8873 28.6091 27.9777 29.4891 26.7849C29.8226 26.9551 31.476 29.0262 30.7576 27.8145C30.1199 26.1559 31.3007 27.8145 31.476 28.4298C31.8713 29.1431 31.256 27.1854 31.1254 27.1167C32.2168 28.4796 32.1154 29.6793 31.7699 27.1631C31.8129 27.2456 31.8834 27.3109 31.9693 27.3435C31.9057 27.2163 31.8318 27.1665 31.7906 27.1476C31.8576 27.1631 31.9401 27.2645 31.9745 27.3452C31.9727 27.3452 31.971 27.3452 31.9693 27.3435C32.552 30.4424 32.7634 29.9113 32.3973 27.1167C33.2773 30.5885 33.1535 30.5679 33.0573 27.0531C33.6881 27.9571 33.2343 29.8443 33.5042 30.7054C33.9751 29.7017 33.8066 26.7506 34.1143 25.9599C33.5351 25.4099 32.2013 22.5018 31.311 22.3763L31.3076 22.3746ZM26.3421 29.6604C26.3421 29.6604 26.3421 29.6587 26.3421 29.657H26.3456C26.3456 29.657 26.3438 29.6587 26.3421 29.6604Z" fill="#A27037"/>
<path d="M25.2917 28.507C25.4275 27.4053 24.4341 27.5566 23.7208 27.5548C22.3269 26.3861 26.3384 25.3995 24.4633 24.1294H24.4702C24.4702 24.1294 24.4564 24.1259 24.4581 24.1259L24.4702 24.1294C24.4702 24.1294 24.4306 24.0898 24.4323 24.0898C24.2708 24.1156 24.0284 24.1225 23.9477 24.3236C23.9477 24.3236 23.9528 24.327 23.958 24.3322L23.7414 24.5866C23.7414 24.5969 24.1023 24.8392 24.0869 24.8564C24.1006 24.853 24.1195 24.8719 24.1298 24.8787C24.3189 25.4752 23.1244 25.7141 22.8855 26.2572C22.1206 27.8281 23.5266 28.3386 24.6437 28.3489C23.1398 29.9748 23.2791 28.5861 22.2684 27.6339C22.4111 27.0255 22.6758 26.2572 21.837 26.0045C21.8422 25.8687 21.6136 25.7278 21.5534 25.9341C21.6102 25.8756 21.4056 25.7003 21.3214 25.8155C20.9948 25.3978 20.6116 26.4497 21.1873 26.3431C21.2011 26.472 21.4159 26.4119 21.4486 26.3827C21.4434 26.5459 21.6927 26.5288 21.7253 26.4256C22.2925 26.7539 21.4744 27.3675 21.727 27.8814C22.0622 28.5002 22.6689 28.7494 22.6878 29.5623C23.1862 30.377 25.2247 29.2994 25.2762 28.7253C25.2848 28.6583 25.2883 28.5861 25.2934 28.5139L25.2917 28.507ZM24.8552 25.1537C24.8552 25.1537 24.862 25.1606 24.8637 25.1623C24.8637 25.1623 24.8569 25.1572 24.8534 25.1537H24.8552Z" fill="#A9AC78"/>
<path d="M23.6263 23.953C23.6349 23.9891 22.8374 24.1679 22.9526 23.8138C23.1038 23.8619 23.8085 23.348 23.5232 23.4065C22.736 23.9444 22.9955 23.281 23.2551 22.8238C23.3324 22.8496 23.3444 23.2294 23.3032 23.2535C23.5318 23.1005 23.4355 22.2686 23.1158 22.7018C22.803 22.5763 21.9643 23.391 22.4335 23.7244C22.2685 24.4446 22.834 24.7488 23.439 24.5958L23.4424 24.5855H23.4957C23.4063 24.5735 23.628 23.9943 23.6263 23.9547V23.953Z" fill="#A9AC78"/>
</svg>
