<svg width="55" height="55" viewBox="0 0 55 55" fill="none" xmlns="http://www.w3.org/2000/svg">
<path d="M46.4062 6.875H8.59375C4.79679 6.875 1.71875 9.95304 1.71875 13.75V41.25C1.71875 45.047 4.79679 48.125 8.59375 48.125H46.4062C50.2032 48.125 53.2812 45.047 53.2812 41.25V13.75C53.2812 9.95304 50.2032 6.875 46.4062 6.875Z" fill="#071B65"/>
<path d="M8.76742 6.875H8.59383C5.18898 6.875 2.38055 9.35688 1.83398 12.6053L46.2327 48.125H46.4063C49.8112 48.125 52.6196 45.6431 53.1662 42.3947L8.76742 6.875Z" fill="white"/>
<path d="M38.2422 32.658H33.9453L51.0194 46.3169C51.6845 45.7102 52.2294 44.9814 52.6161 44.1564L38.2422 32.658Z" fill="#B92932"/>
<path d="M2.38379 10.8423L16.7577 22.3425H21.0546L3.98051 8.68359C3.31535 9.29031 2.77051 10.0173 2.38379 10.8423Z" fill="#B92932"/>
<path d="M8.59383 48.125H8.76742L53.1662 12.6053C52.6196 9.35516 49.8112 6.875 46.4063 6.875H46.2327L1.83398 42.3947C2.38055 45.6448 5.18898 48.125 8.59383 48.125Z" fill="white"/>
<path d="M32.6562 6.875H22.3438V48.125H32.6562V6.875Z" fill="white"/>
<path d="M53.2812 22.3438H1.71875V32.6562H53.2812V22.3438Z" fill="white"/>
<path d="M30.9375 6.875H24.0625V48.125H30.9375V6.875Z" fill="#B92932"/>
<path d="M53.2812 30.9375V24.0625L1.71875 24.0625V30.9375L53.2812 30.9375Z" fill="#B92932"/>
<path d="M48.5066 7.23438L32.6562 19.9119V22.3422H33.9453L51.0348 8.69531C50.3147 8.03531 49.457 7.54203 48.5066 7.23438Z" fill="#B92932"/>
<path d="M4.00098 46.3306C4.71254 46.9734 5.55473 47.4581 6.48801 47.7606L22.3435 35.0763V32.6562H21.0544L4.00098 46.3306Z" fill="#B92932"/>
<path opacity="0.15" d="M46.4062 6.875H8.59375C4.79703 6.875 1.71875 9.95328 1.71875 13.75V41.25C1.71875 45.0467 4.79703 48.125 8.59375 48.125H46.4062C50.203 48.125 53.2812 45.0467 53.2812 41.25V13.75C53.2812 9.95328 50.203 6.875 46.4062 6.875ZM51.5625 41.25C51.5625 44.0928 49.2491 46.4062 46.4062 46.4062H8.59375C5.75094 46.4062 3.4375 44.0928 3.4375 41.25V13.75C3.4375 10.9072 5.75094 8.59375 8.59375 8.59375H46.4062C49.2491 8.59375 51.5625 10.9072 51.5625 13.75V41.25Z" fill="black"/>
<path opacity="0.2" d="M46.4062 8.59375H8.59375C5.74578 8.59375 3.4375 10.902 3.4375 13.75V15.4688C3.4375 12.6208 5.74578 10.3125 8.59375 10.3125H46.4062C49.2542 10.3125 51.5625 12.6208 51.5625 15.4688V13.75C51.5625 10.902 49.2542 8.59375 46.4062 8.59375Z" fill="white"/>
</svg>
