<svg width="55" height="55" viewBox="0 0 55 55" fill="none" xmlns="http://www.w3.org/2000/svg">
<path d="M46.4062 6.875H8.59375C4.79679 6.875 1.71875 9.95304 1.71875 13.75V41.25C1.71875 45.047 4.79679 48.125 8.59375 48.125H46.4062C50.2032 48.125 53.2812 45.047 53.2812 41.25V13.75C53.2812 9.95304 50.2032 6.875 46.4062 6.875Z" fill="white"/>
<path d="M2.81543 10.0478H52.1848C50.9628 8.14344 48.8384 6.875 46.4064 6.875H8.59387C6.16355 6.875 4.03918 8.14344 2.81543 10.0478Z" fill="#A62842"/>
<path d="M3.48906 13.2188C3.47531 13.3958 3.4375 13.5659 3.4375 13.7481V16.3933H53.2812V13.7481C53.2812 13.5677 53.2434 13.3975 53.2297 13.2188H3.48906Z" fill="#A62842"/>
<path d="M3.4375 19.5664H53.2812V22.7392H3.4375V19.5664Z" fill="#A62842"/>
<path d="M3.4375 25.9141H53.2812V29.0869H3.4375V25.9141Z" fill="#A62842"/>
<path d="M1.71875 32.2578H53.2812V35.4306H1.71875V32.2578Z" fill="#A62842"/>
<path d="M1.71875 41.2506C1.71875 41.4311 1.75828 41.6013 1.77203 41.78H53.228C53.2417 41.603 53.2812 41.4328 53.2812 41.2506V38.6055H1.71875V41.2506Z" fill="#A62842"/>
<path d="M52.1848 44.9531H2.81543C4.03746 46.8575 6.16184 48.1259 8.59387 48.1259H46.4064C48.8367 48.1259 50.9611 46.8575 52.1848 44.9531Z" fill="#A62842"/>
<path d="M8.59375 6.875H27.5V29.0864H1.71875V13.75C1.71875 9.955 4.79875 6.875 8.59375 6.875Z" fill="#102D5E"/>
<path opacity="0.15" d="M46.4062 6.875H8.59375C4.79703 6.875 1.71875 9.95328 1.71875 13.75V41.25C1.71875 45.0467 4.79703 48.125 8.59375 48.125H46.4062C50.203 48.125 53.2812 45.0467 53.2812 41.25V13.75C53.2812 9.95328 50.203 6.875 46.4062 6.875ZM51.5625 41.25C51.5625 44.0928 49.2491 46.4062 46.4062 46.4062H8.59375C5.75094 46.4062 3.4375 44.0928 3.4375 41.25V13.75C3.4375 10.9072 5.75094 8.59375 8.59375 8.59375H46.4062C49.2491 8.59375 51.5625 10.9072 51.5625 13.75V41.25Z" fill="black"/>
<path opacity="0.2" d="M46.4062 8.59375H8.59375C5.74578 8.59375 3.4375 10.902 3.4375 13.75V15.4688C3.4375 12.6208 5.74578 10.3125 8.59375 10.3125H46.4062C49.2542 10.3125 51.5625 12.6208 51.5625 15.4688V13.75C51.5625 10.902 49.2542 8.59375 46.4062 8.59375Z" fill="white"/>
<path d="M7.90793 12.8281L8.92543 12.0891H7.66902L7.28059 10.8945L6.89215 12.0891H5.63574L6.65152 12.8281L6.26309 14.0227L7.28059 13.2853L8.29637 14.0227L7.90793 12.8281Z" fill="white"/>
<path d="M13.028 12.8281L14.0455 12.0891H12.7891L12.4007 10.8945L12.0123 12.0891H10.7559L11.7716 12.8281L11.3832 14.0227L12.4007 13.2853L13.4165 14.0227L13.028 12.8281Z" fill="white"/>
<path d="M18.1499 12.8281L19.1657 12.0891H17.9093L17.5208 10.8945L17.1324 12.0891H15.876L16.8918 12.8281L16.505 14.0227L17.5208 13.2853L18.5366 14.0227L18.1499 12.8281Z" fill="white"/>
<path d="M10.4255 15.9531L11.443 15.2158H10.1866L9.79816 14.0195L9.40973 15.2158H8.15332L9.1691 15.9531L8.78066 17.1494L9.79816 16.4103L10.8139 17.1494L10.4255 15.9531Z" fill="white"/>
<path d="M15.5483 15.9531L16.5641 15.2158H15.3077L14.9193 14.0195L14.5308 15.2158H13.2744L14.2902 15.9531L13.9035 17.1494L14.9193 16.4103L15.935 17.1494L15.5483 15.9531Z" fill="white"/>
<path d="M20.6684 15.9531L21.6842 15.2158H20.4278L20.0394 14.0195L19.6509 15.2158H18.3945L19.412 15.9531L19.0236 17.1494L20.0394 16.4103L21.0569 17.1494L20.6684 15.9531Z" fill="white"/>
<path d="M10.4255 22.2148L11.443 21.4758H10.1866L9.79816 20.2812L9.40973 21.4758H8.15332L9.1691 22.2148L8.78066 23.4094L9.79816 22.672L10.8139 23.4094L10.4255 22.2148Z" fill="white"/>
<path d="M15.5483 22.2148L16.5641 21.4758H15.3077L14.9193 20.2812L14.5308 21.4758H13.2744L14.2902 22.2148L13.9035 23.4094L14.9193 22.672L15.935 23.4094L15.5483 22.2148Z" fill="white"/>
<path d="M20.6684 22.2148L21.6842 21.4758H20.4278L20.0394 20.2812L19.6509 21.4758H18.3945L19.412 22.2148L19.0236 23.4094L20.0394 22.672L21.0569 23.4094L20.6684 22.2148Z" fill="white"/>
<path d="M23.27 12.8281L24.2858 12.0891H23.0294L22.6409 10.8945L22.2525 12.0891H20.9961L22.0136 12.8281L21.6252 14.0227L22.6409 13.2853L23.6584 14.0227L23.27 12.8281Z" fill="white"/>
<path d="M7.90793 19.0859L8.92543 18.3469H7.66902L7.28059 17.1523L6.89215 18.3469H5.63574L6.65152 19.0859L6.26309 20.2805L7.28059 19.5414L8.29637 20.2805L7.90793 19.0859Z" fill="white"/>
<path d="M13.028 19.0859L14.0455 18.3469H12.7891L12.4007 17.1523L12.0123 18.3469H10.7559L11.7716 19.0859L11.3832 20.2805L12.4007 19.5414L13.4165 20.2805L13.028 19.0859Z" fill="white"/>
<path d="M18.1499 19.0859L19.1657 18.3469H17.9093L17.5208 17.1523L17.1324 18.3469H15.876L16.8918 19.0859L16.505 20.2805L17.5208 19.5414L18.5366 20.2805L18.1499 19.0859Z" fill="white"/>
<path d="M23.27 19.0859L24.2858 18.3469H23.0294L22.6409 17.1523L22.2525 18.3469H20.9961L22.0136 19.0859L21.6252 20.2805L22.6409 19.5414L23.6584 20.2805L23.27 19.0859Z" fill="white"/>
<path d="M7.90793 25.3398L8.92543 24.6025H7.66902L7.28059 23.4062L6.89215 24.6025H5.63574L6.65152 25.3398L6.26309 26.5361L7.28059 25.797L8.29637 26.5361L7.90793 25.3398Z" fill="white"/>
<path d="M13.028 25.3398L14.0455 24.6025H12.7891L12.4007 23.4062L12.0123 24.6025H10.7559L11.7716 25.3398L11.3832 26.5361L12.4007 25.797L13.4165 26.5361L13.028 25.3398Z" fill="white"/>
<path d="M18.1499 25.3398L19.1657 24.6025H17.9093L17.5208 23.4062L17.1324 24.6025H15.876L16.8918 25.3398L16.505 26.5361L17.5208 25.797L18.5366 26.5361L18.1499 25.3398Z" fill="white"/>
<path d="M23.27 25.3398L24.2858 24.6025H23.0294L22.6409 23.4062L22.2525 24.6025H20.9961L22.0136 25.3398L21.6252 26.5361L22.6409 25.797L23.6584 26.5361L23.27 25.3398Z" fill="white"/>
</svg>
