<svg width="56" height="56" viewBox="0 0 56 56" fill="none" xmlns="http://www.w3.org/2000/svg">
<g opacity="0.9972">
<rect width="56" height="56" rx="28" fill="#FE4A01"/>
<path d="M18.7415 29.0449C18.6955 28.6764 18.6719 28.301 18.6719 27.9199C18.6719 22.9494 22.7013 18.9199 27.6719 18.9199C30.4851 18.9199 32.9967 20.2106 34.6471 22.2321M34.6471 22.2321V18.9199M34.6471 22.2321V22.2948L31.2721 22.2949M36.6022 26.7949C36.6483 27.1635 36.6719 27.5389 36.6719 27.9199C36.6719 32.8905 32.6425 36.9199 27.6719 36.9199C24.9838 36.9199 22.571 35.7415 20.9219 33.873M20.9219 33.873V33.5449H24.2969M20.9219 33.873V36.9199" stroke="white" stroke-width="2" stroke-linecap="round" stroke-linejoin="round"/>
</g>
</svg>
