<svg width="56" height="56" viewBox="0 0 56 56" fill="none" xmlns="http://www.w3.org/2000/svg">
<g opacity="0.9886">
<rect width="56" height="56" rx="28" fill="#FE4A01"/>
<path d="M32.1797 31.4707V36.083V39.0446L39.7275 31.4707H36.7763H32.1797Z" fill="white"/>
<path d="M37.2034 15.6699H19.4856C18.6544 15.6699 17.8573 16.0001 17.2695 16.5878C16.6817 17.1756 16.3516 17.9728 16.3516 18.804V36.5217C16.3516 37.3529 16.6817 38.1501 17.2695 38.7378C17.8573 39.3256 18.6544 39.6558 19.4856 39.6558H30.0891V30.426C30.0891 30.1489 30.1992 29.8832 30.3951 29.6873C30.591 29.4914 30.8567 29.3814 31.1338 29.3814H40.3374V18.804C40.3374 17.9728 40.0072 17.1756 39.4194 16.5878C38.8317 16.0001 38.0346 15.6699 37.2034 15.6699Z" fill="white"/>
</g>
</svg>
