<svg width="20" height="19" viewBox="0 0 20 19" fill="none" xmlns="http://www.w3.org/2000/svg">
<path d="M9.71289 0.5C14.8115 0.500041 18.9258 4.53985 18.9258 9.5C18.9258 14.4602 14.8115 18.5 9.71289 18.5C4.61429 18.5 0.5 14.4602 0.5 9.5C0.5 4.53982 4.61429 0.5 9.71289 0.5Z" stroke="white"/>
<path d="M6.19745 6.05974C5.90567 6.34512 5.90567 6.80782 6.19745 7.0932L8.87606 9.71312L6.19745 12.333C5.90567 12.6184 5.90567 13.0811 6.19745 13.3665C6.48923 13.6519 6.96229 13.6519 7.25406 13.3665L9.93267 10.7466L12.6113 13.3665C12.903 13.6519 13.3761 13.6519 13.6679 13.3665C13.9597 13.0811 13.9597 12.6184 13.6679 12.333L10.9893 9.71312L13.6679 7.09322C13.9597 6.80783 13.9597 6.34513 13.6679 6.05975C13.3761 5.77437 12.903 5.77437 12.6113 6.05975L9.93267 8.67966L7.25407 6.05974C6.96229 5.77436 6.48923 5.77436 6.19745 6.05974Z" fill="white"/>
</svg>
