<svg width="186" height="35" viewBox="0 0 186 35" fill="none" xmlns="http://www.w3.org/2000/svg">
<path d="M114.502 14.9736V16.1484C114.502 19.494 112.076 20.6433 108.194 20.6433H103.801V27.3091C103.265 27.4113 102.601 27.4113 102.039 27.3091V10.3254H108.194C112.076 10.3254 114.502 11.5002 114.502 14.9736ZM112.74 15.9441V15.2034C112.74 12.343 110.671 11.9088 108.169 11.9088H103.801V19.162H108.169C110.697 19.162 112.74 18.7023 112.74 15.9441Z" fill="white"/>
<path d="M118.141 27.3091V14.3095C118.601 14.2329 119.061 14.2329 119.52 14.3095L119.699 16.2761H119.827C120.312 14.7182 122.177 14.0541 124.73 14.0541C124.833 14.4883 124.833 15.229 124.73 15.6376C121.564 15.6376 120.67 16.2505 119.852 18.0638V27.3091C119.342 27.4113 118.652 27.4113 118.141 27.3091Z" fill="white"/>
<path d="M138.791 17.9361V23.7591C138.791 26.5685 136.467 27.6156 132.943 27.6156C129.444 27.6156 127.12 26.5685 127.12 23.7591V17.9361C127.12 15.0757 129.444 14.0541 132.943 14.0541C136.467 14.0541 138.791 15.0757 138.791 17.9361ZM137.08 23.4271V18.2426C137.08 15.893 135.19 15.5865 132.943 15.5865C130.695 15.5865 128.831 15.893 128.831 18.2426V23.4271C128.831 25.7512 130.695 26.0577 132.943 26.0577C135.19 26.0577 137.08 25.7512 137.08 23.4271Z" fill="white"/>
<path d="M151.235 27.3091L146.97 21.7415L142.679 27.3091C142.092 27.4113 141.53 27.4113 140.917 27.3091L145.999 20.6944L141.224 14.3861C141.76 14.284 142.475 14.284 143.037 14.3861L147.021 19.6217L151.031 14.3861C151.669 14.284 152.18 14.284 152.793 14.3861L147.992 20.6433L153.048 27.3091C152.486 27.4113 151.797 27.4113 151.235 27.3091Z" fill="white"/>
<path d="M155.991 27.3091V14.3861C156.501 14.284 157.191 14.284 157.702 14.3861V27.3091C157.191 27.4113 156.501 27.4113 155.991 27.3091ZM157.855 9.53365L157.804 11.3725C157.242 11.4746 156.45 11.4746 155.888 11.3725L155.837 9.53365C156.425 9.43149 157.268 9.43149 157.855 9.53365Z" fill="white"/>
<path d="M173.365 18.1149V21.4095C171.041 21.5117 166.546 21.5117 163.762 21.435V23.4271C163.762 25.7257 165.601 26.0577 168.027 26.0577C169.917 26.0577 171.118 25.93 172.778 25.6491C172.88 26.0832 172.88 26.7217 172.778 27.1559C170.99 27.4624 169.457 27.6156 167.823 27.6156C164.247 27.6156 162.051 26.5685 162.051 23.7591V17.9617C162.051 15.0757 164.273 14.0541 167.746 14.0541C171.143 14.0541 173.365 15.2545 173.365 18.1149ZM171.679 20.107V18.2171C171.679 15.893 169.815 15.5865 167.746 15.5865C165.652 15.5865 163.762 15.893 163.762 18.2171V20.2347L165.805 20.107H171.679Z" fill="white"/>
<path d="M185.999 23.3505V24.2444C185.999 26.6962 183.931 27.6156 180.943 27.6156C179.538 27.6156 177.776 27.5134 176.346 27.207C176.218 26.7472 176.218 26.1598 176.346 25.7001C177.827 25.9555 179.359 26.0577 180.815 26.0577C182.501 26.0577 184.288 25.8534 184.288 24.0401V23.5037C184.288 22.3545 183.522 22.0991 182.169 21.7926L179.41 21.1541C177.342 20.6689 176.218 19.9282 176.218 18.3192V17.3743C176.218 14.9991 178.312 14.0541 181.683 14.0541C182.96 14.0541 184.161 14.1563 185.846 14.4372C185.974 14.8969 185.974 15.4588 185.846 15.9185C184.186 15.6376 183.19 15.561 181.785 15.561C179.691 15.561 177.929 15.7653 177.929 17.5786V18.0894C177.929 19.1109 178.746 19.443 180.023 19.7494L182.756 20.3624C185.029 20.8987 185.999 21.5372 185.999 23.3505Z" fill="white"/>
<path d="M16.8931 17.0363L14.9359 20.3182C14.6082 20.871 14.1518 21.3446 13.602 21.7025C13.0522 22.0604 12.4236 22.293 11.7646 22.3825C11.4654 22.4206 11.1614 22.3653 10.8978 22.225L7.45818 20.42C7.42152 20.4001 7.37997 20.3899 7.3378 20.3904C7.28209 20.3905 7.22799 20.4083 7.18402 20.4409C7.14005 20.4735 7.1087 20.5192 7.09491 20.5707C7.08112 20.6222 7.08567 20.6766 7.10785 20.7254C7.13002 20.7741 7.16857 20.8145 7.21741 20.8401L10.516 22.5696C10.8938 22.7642 11.1909 23.0755 11.3587 23.4525C11.5768 23.9545 11.6891 24.4925 11.6891 25.036C11.6891 25.5794 11.5768 26.1175 11.3587 26.6195C10.8247 27.8194 10.4011 29.0613 10.0929 30.3313C9.97943 30.817 9.87625 31.3356 9.7937 31.8804C9.68626 32.6037 9.6231 33.3324 9.60452 34.0628H9.56324L9.15392 33.9381L9.06793 33.9151L8.83404 33.8429L8.68957 33.7937L8.4832 33.7215C8.04587 33.5626 7.61762 33.3819 7.20021 33.18L7.1383 33.1472C6.79434 32.9765 6.47101 32.8026 6.16488 32.6221C6.03762 32.5499 5.91723 32.4744 5.80028 32.4022C4.80117 31.7853 3.89899 31.0361 3.12081 30.1771C1.79939 28.6662 0.860147 26.8855 0.375818 24.9727C-0.108511 23.0599 -0.12493 21.0664 0.327826 19.1466C0.463674 18.5062 0.653468 17.8773 0.895363 17.2661C0.895363 17.23 0.922883 17.2037 0.929762 17.184V17.1643C0.932579 17.5217 0.964781 17.8784 1.02607 18.2309C1.40099 20.4003 2.74589 21.4177 2.74589 21.4177C1.714 18.1752 2.47072 15.9271 3.46821 13.9612C3.81218 13.2654 4.20429 12.6123 4.54826 11.9592C4.78903 11.4998 5.01604 11.0502 5.20178 10.5874C6.03762 8.70359 5.61454 7.65011 5.58702 7.58447C5.61024 7.60266 5.63208 7.6224 5.65238 7.64354C5.80028 7.76825 5.93443 7.89297 6.06169 8.0144L6.10985 8.06362L6.1752 8.13254C6.19584 8.15551 6.22336 8.17849 6.24055 8.20147L6.3231 8.29336L6.40909 8.39181L6.60859 8.64124L6.7049 8.77251V8.7922C6.7565 8.86769 6.80809 8.93989 6.85281 9.01537C6.89752 9.09085 6.9044 9.09742 6.92504 9.14009C6.99612 9.2648 7.05919 9.38623 7.11422 9.50438C7.13486 9.54705 7.15206 9.58643 7.16925 9.62581L7.22085 9.74724C7.22593 9.76746 7.23284 9.78722 7.24149 9.80631V9.84898C7.26213 9.90477 7.27932 9.95728 7.29652 10.0098C7.31372 10.0623 7.33436 10.1345 7.35155 10.1936C7.36875 10.2526 7.37219 10.2756 7.38251 10.3183C7.38394 10.3401 7.38394 10.3621 7.38251 10.3839C7.38251 10.4102 7.38251 10.4364 7.38251 10.4594C7.40085 10.5535 7.41691 10.6443 7.43067 10.7318V10.8171C7.43067 10.8893 7.43755 10.9594 7.45131 11.0272C7.45131 11.0567 7.45131 11.0863 7.45131 11.1125C7.45131 11.2011 7.45131 11.2864 7.45131 11.3652V11.4276C7.45131 11.4735 7.45131 11.5162 7.45131 11.5556C7.45131 11.595 7.45131 11.6146 7.45131 11.6409C7.45131 11.6671 7.45131 11.7295 7.45131 11.7722C7.45131 11.8148 7.45131 11.7984 7.45131 11.8116C7.45131 11.8247 7.4513 11.9133 7.43067 11.956C7.41003 11.9986 7.43067 11.9888 7.43067 12.0052C7.43067 12.0216 7.43067 12.0577 7.43067 12.0774C7.43067 12.0971 7.43067 12.1201 7.43067 12.1365V12.2119C7.43203 12.2316 7.43203 12.2513 7.43067 12.271C7.57169 12.0807 7.77463 11.8247 7.98101 11.5129C8.80308 10.3675 10.117 8.45745 11.4757 6.10104C12.4951 4.23044 12.784 2.07488 12.2909 0.0196906L12.3356 0C13.0625 0.384501 13.7361 0.854168 14.3409 1.39809C16.1173 2.92828 17.4169 4.89627 18.097 7.08561C18.6142 8.73542 18.7741 10.4684 18.5672 12.1791C18.3602 13.8897 17.7906 15.5423 16.8931 17.0363Z" fill="url(#paint0_linear_3797_20536)"/>
<path d="M26.2041 22.8158C26.0603 24.495 25.5649 26.1296 24.7472 27.6229C23.9295 29.1162 22.8062 30.4378 21.4436 31.5095C20.7026 32.1127 19.8953 32.6376 19.0359 33.075C18.7194 33.2391 18.3961 33.4032 18.0659 33.5213C17.0762 33.9323 16.0361 34.2223 14.9702 34.3845H14.9014C14.278 34.4786 13.6477 34.5258 13.0165 34.5256C12.3575 34.5252 11.6996 34.4747 11.0491 34.3746L10.6088 34.2991C10.6354 33.0441 10.7956 31.795 11.0869 30.5709C11.2866 29.7115 11.544 28.8652 11.8574 28.0373L11.9158 27.8929C12.122 27.4218 12.4301 26.9975 12.8198 26.6477C13.2095 26.2979 13.6722 26.0305 14.1777 25.8629C14.6831 25.6954 15.2199 25.6314 15.7529 25.6753C16.286 25.7191 16.8034 25.8697 17.2713 26.1174H17.2954C17.3321 26.1372 17.3736 26.1474 17.4158 26.1469C17.4613 26.1467 17.5059 26.1351 17.5452 26.1132C17.5845 26.0913 17.617 26.0599 17.6394 26.0222C17.6556 25.9942 17.6658 25.9635 17.6693 25.9318C17.6729 25.9 17.6698 25.8679 17.6602 25.8374C17.6506 25.8068 17.6346 25.7784 17.6134 25.7537C17.5921 25.7291 17.5658 25.7088 17.5362 25.694L16.1775 24.9851C15.9805 24.8798 15.8221 24.7195 15.7235 24.5256C15.4474 23.9731 15.304 23.3688 15.3039 22.7567C15.3041 22.0331 15.5008 21.3219 15.8749 20.6924L18.4271 16.4128C18.4276 16.4062 18.4276 16.3996 18.4271 16.3931L18.458 16.334C18.716 15.8877 19.796 13.8365 19.6206 11.7623C19.655 11.9494 19.8373 12.865 20.0162 13.7315L20.1262 14.273C20.1916 14.6012 20.257 14.8736 20.3051 15.0672C20.4211 15.6154 20.5704 16.1568 20.7523 16.6885C21.9699 20.2001 23.7413 19.209 23.7963 15.8056V15.6612C23.7773 14.3299 23.5796 13.0064 23.2082 11.7229C24.2549 13.7534 25.1001 15.8729 25.7328 18.0537C25.8154 18.3425 25.8842 18.6346 25.9461 18.9234C26.225 20.2026 26.3119 21.5132 26.2041 22.8158Z" fill="url(#paint1_linear_3797_20536)"/>
<path d="M7.28279 9.84898C7.23808 9.73411 7.18992 9.61268 7.13489 9.49454C7.18992 9.62253 7.24152 9.74396 7.28279 9.84898Z" fill="#681218"/>
<path d="M7.51326 11.782C7.51326 11.8116 7.51326 11.8345 7.51326 11.8608C7.49262 12.0117 7.46511 12.1299 7.44791 12.189V12.248C7.44722 12.259 7.44722 12.2699 7.44791 12.2809C5.00233 15.5989 5.56987 17.8207 5.61114 17.9618V17.9356L5.22591 17.2004C4.72716 15.9993 4.97825 14.8572 5.81408 11.8838C6.64991 8.91036 5.95511 7.87328 5.71089 7.61729C5.98568 7.84488 6.23996 8.09409 6.47105 8.36228C6.54328 8.44761 6.60864 8.52966 6.67055 8.6117C6.73247 8.69375 6.79094 8.77907 6.84941 8.86112C6.90789 8.94317 6.9526 9.02522 7.0042 9.11055C7.05579 9.19588 7.13834 9.35341 7.19338 9.47484C7.24841 9.59627 7.29656 9.71442 7.34128 9.82929C7.38599 9.94415 7.42039 10.0623 7.45135 10.1772C7.57599 10.7038 7.59699 11.248 7.51326 11.782Z" fill="url(#paint2_linear_3797_20536)"/>
<path d="M23.6827 18.93C23.5459 19.1998 23.3065 19.4098 23.0132 19.5171C22.7198 19.6244 22.3947 19.621 22.1039 19.5076C20.9275 19.058 20.7762 16.672 20.7762 16.672C21.9938 20.1837 23.7687 19.1925 23.8203 15.7892C23.8271 15.8286 24.2812 17.9454 23.6827 18.93Z" fill="url(#paint3_linear_3797_20536)"/>
<path d="M7.28279 9.84898C7.23808 9.73411 7.18992 9.61268 7.13489 9.49454C7.18992 9.62253 7.24152 9.74396 7.28279 9.84898Z" fill="#681218"/>
<path d="M9.79697 31.8771C9.68954 32.6004 9.62637 33.3292 9.60779 34.0595H9.56995L9.42205 34.0136L9.29478 33.9742L8.84075 33.8364L8.69629 33.7871L8.48991 33.7149C8.04954 33.5632 7.62084 33.3823 7.20693 33.1734L7.14501 33.1406C6.80105 32.97 6.47773 32.796 6.1716 32.6155L5.807 32.3956C4.80788 31.7788 3.90571 31.0296 3.12752 30.1705C1.80611 28.6597 0.866865 26.8789 0.382536 24.9661C-0.101793 23.0533 -0.118212 21.0598 0.334544 19.14C0.470392 18.4996 0.660186 17.8708 0.902081 17.2595C0.902081 17.2234 0.929601 17.1971 0.93648 17.1775V17.1578C0.93648 17.1578 -1.27865 28.5919 9.79697 31.8771Z" fill="url(#paint4_linear_3797_20536)"/>
<path d="M9.15365 33.9348L9.56297 34.0595C9.41507 34.0169 9.24652 33.9677 9.06766 33.9119L9.15365 33.9348Z" fill="#414242"/>
<path d="M20.0334 13.7019C19.8545 12.8421 19.6894 11.9297 19.6378 11.7328C19.7995 12.4515 19.9818 13.2786 20.1434 14.2369L20.0334 13.7019Z" fill="#414242"/>
<path d="M40.7806 26.9117V13.1862H35.8418V9.67969H50.3167V13.1862H45.3516V26.9117H40.7806Z" fill="white"/>
<path d="M56.1651 26.9128C55.0653 26.9128 54.1515 26.8464 53.4237 26.7136C52.6959 26.5808 52.1217 26.365 51.7012 26.0662C51.2807 25.7675 50.9734 25.3691 50.7793 24.8711C50.5852 24.3732 50.4558 23.7507 50.3911 23.0038C50.3426 22.2569 50.3184 21.3688 50.3184 20.3397C50.3184 19.3106 50.3426 18.4309 50.3911 17.7005C50.4558 16.9535 50.5852 16.3311 50.7793 15.8331C50.9734 15.3352 51.2807 14.9368 51.7012 14.638C52.1217 14.3393 52.6959 14.1318 53.4237 14.0156C54.1515 13.8828 55.0653 13.8164 56.1651 13.8164C57.2811 13.8164 58.203 13.8828 58.9308 14.0156C59.6586 14.1318 60.2328 14.3393 60.6533 14.638C61.0738 14.9368 61.3811 15.3352 61.5752 15.8331C61.7693 16.3311 61.8906 16.9535 61.9391 17.7005C62.0038 18.4309 62.0361 19.3106 62.0361 20.3397C62.0361 21.3688 62.0038 22.2569 61.9391 23.0038C61.8906 23.7507 61.7693 24.3732 61.5752 24.8711C61.3811 25.3691 61.0738 25.7675 60.6533 26.0662C60.2328 26.365 59.6586 26.5808 58.9308 26.7136C58.203 26.8464 57.2811 26.9128 56.1651 26.9128ZM56.1651 23.8752C56.6503 23.8752 57.0304 23.842 57.3053 23.7756C57.5803 23.7092 57.7744 23.5598 57.8876 23.3274C58.0008 23.0951 58.0655 22.7382 58.0817 22.2568C58.1141 21.7755 58.1302 21.1364 58.1302 20.3397C58.1302 19.5429 58.1141 18.9122 58.0817 18.4474C58.0655 17.9827 58.0008 17.6341 57.8876 17.4017C57.7744 17.1693 57.5803 17.02 57.3053 16.9535C57.0304 16.8872 56.6503 16.8539 56.1651 16.8539C55.6799 16.8539 55.2998 16.8872 55.0249 16.9535C54.7661 17.02 54.5801 17.1693 54.4669 17.4017C54.3536 17.6341 54.2809 17.9827 54.2485 18.4474C54.2324 18.9122 54.2243 19.5429 54.2243 20.3397C54.2243 21.1364 54.2324 21.7755 54.2485 22.2568C54.2809 22.7382 54.3536 23.0951 54.4669 23.3274C54.5801 23.5598 54.7661 23.7092 55.0249 23.7756C55.2998 23.842 55.6799 23.8752 56.1651 23.8752Z" fill="white"/>
<path d="M64.1035 26.9128V14.0187H67.9717L68.0736 16.2183H68.3026C68.5404 15.5946 68.8372 15.1058 69.1933 14.7518C69.5666 14.3979 70.0164 14.1535 70.5421 14.0187C71.0685 13.8838 71.679 13.8164 72.3749 13.8164V17.533C71.3057 17.533 70.4662 17.6678 69.8551 17.9375C69.2446 18.2071 68.8118 18.6707 68.5575 19.328C68.3026 19.9685 68.1754 20.8703 68.1754 22.0332V26.9128H64.1035Z" fill="white"/>
<path d="M79.7043 26.9128C78.6925 26.9128 77.8628 26.8215 77.2152 26.6389C76.567 26.4397 76.0531 26.1658 75.6742 25.8172C75.2947 25.4521 75.0183 25.0039 74.8445 24.4728C74.6706 23.9416 74.5599 23.3358 74.5127 22.6552C74.465 21.9581 74.4414 21.1945 74.4414 20.3646C74.4414 19.5513 74.465 18.8043 74.5127 18.1238C74.5599 17.4432 74.6783 16.8374 74.8681 16.3062C75.0578 15.7584 75.3342 15.302 75.6978 14.9368C76.0772 14.5717 76.5829 14.2978 77.2152 14.1152C77.8628 13.916 78.6848 13.8164 79.6802 13.8164C80.3124 13.8164 80.9447 13.8496 81.577 13.916C82.2247 13.9824 82.8016 14.082 83.3072 14.2148V17.0282C82.9913 16.9785 82.5806 16.937 82.0744 16.9038C81.5847 16.8705 81.1263 16.8539 80.6996 16.8539C80.1468 16.8539 79.712 16.9038 79.3961 17.0034C79.0797 17.0863 78.8428 17.2523 78.6848 17.5013C78.5269 17.7337 78.4161 18.0823 78.3531 18.547C78.3053 19.0118 78.2818 19.6176 78.2818 20.3646C78.2818 21.1115 78.3053 21.7257 78.3531 22.207C78.4161 22.6718 78.5269 23.0287 78.6848 23.2777C78.8428 23.51 79.0879 23.6677 79.4197 23.7507C79.7514 23.8337 80.1863 23.8752 80.7232 23.8752C81.1027 23.8752 81.5293 23.8586 82.0037 23.8254C82.4934 23.7922 82.9595 23.7507 83.4021 23.7009V26.5144C82.8805 26.6306 82.2877 26.7219 81.6242 26.7883C80.9606 26.8713 80.3207 26.9128 79.7043 26.9128Z" fill="white"/>
<path d="M86.8496 26.9133V8.30273H90.8556V15.6167H91.0809C91.3317 15.1993 91.6317 14.8737 91.9821 14.6399C92.3494 14.3894 92.7589 14.2141 93.2095 14.1139C93.6602 14.0137 94.1525 13.9635 94.6866 13.9635C95.538 13.9635 96.214 14.0721 96.715 14.2892C97.2323 14.4896 97.6244 14.7985 97.8914 15.216C98.1585 15.6335 98.334 16.1511 98.4174 16.7689C98.5176 17.3868 98.5674 18.1048 98.5674 18.9231V26.9133H94.5365V20.1504C94.5365 19.4658 94.5197 18.9314 94.4861 18.5473C94.4531 18.1466 94.3778 17.8543 94.2608 17.6706C94.1438 17.487 93.9602 17.3785 93.71 17.345C93.4766 17.2949 93.1591 17.2699 92.7589 17.2699C92.3413 17.2699 91.9989 17.32 91.7319 17.4202C91.4817 17.5037 91.2894 17.6539 91.1562 17.871C91.0392 18.0881 90.9558 18.397 90.9059 18.7978C90.8723 19.1819 90.8556 19.6662 90.8556 20.2506V26.9133H86.8496Z" fill="white"/>
<defs>
<linearGradient id="paint0_linear_3797_20536" x1="13.1174" y1="0.0299384" x2="13.1174" y2="34.5356" gradientUnits="userSpaceOnUse">
<stop offset="0.21" stop-color="#FF7623"/>
<stop offset="0.93" stop-color="#F5430D"/>
</linearGradient>
<linearGradient id="paint1_linear_3797_20536" x1="13.1157" y1="-0.0198766" x2="13.1157" y2="34.5355" gradientUnits="userSpaceOnUse">
<stop offset="0.21" stop-color="#FF7623"/>
<stop offset="0.93" stop-color="#F5430D"/>
</linearGradient>
<linearGradient id="paint2_linear_3797_20536" x1="12.7168" y1="32.7292" x2="12.7168" y2="7.48127" gradientUnits="userSpaceOnUse">
<stop offset="0.18" stop-color="#F13507"/>
<stop offset="0.86" stop-color="#F84814"/>
</linearGradient>
<linearGradient id="paint3_linear_3797_20536" x1="34.8177" y1="17.2377" x2="-7.07585" y2="17.2377" gradientUnits="userSpaceOnUse">
<stop offset="0.18" stop-color="#F13507"/>
<stop offset="0.86" stop-color="#F84814"/>
</linearGradient>
<linearGradient id="paint4_linear_3797_20536" x1="0.0120635" y1="17.2762" x2="26.2489" y2="17.2762" gradientUnits="userSpaceOnUse">
<stop offset="0.18" stop-color="#F13507"/>
<stop offset="0.86" stop-color="#F84814"/>
</linearGradient>
</defs>
</svg>
