<svg width="66" height="66" viewBox="0 0 66 66" fill="none" xmlns="http://www.w3.org/2000/svg">
<g filter="url(#filter0_i_3797_634)">
<rect width="66" height="66" rx="12" fill="#FE4A01"/>
<path d="M37.9993 37.9996C37.9993 39.1815 37.7665 40.3518 37.3142 41.4436C36.8619 42.5355 36.199 43.5276 35.3633 44.3633C34.5276 45.199 33.5355 45.8619 32.4436 46.3142C31.3518 46.7665 30.1815 46.9993 28.9996 46.9993C27.8178 46.9993 26.6475 46.7665 25.5556 46.3142C24.4637 45.8619 23.4716 45.199 22.6359 44.3633C21.8002 43.5276 21.1373 42.5355 20.6851 41.4436C20.2328 40.3518 20 39.1815 20 37.9996L28.9996 37.9996H37.9993Z" fill="white"/>
<path d="M29.0004 37.9993C27.8185 37.9993 26.6482 37.7665 25.5564 37.3142C24.4645 36.8619 23.4724 36.199 22.6367 35.3633C21.801 34.5276 21.1381 33.5355 20.6858 32.4436C20.2335 31.3518 20.0007 30.1815 20.0007 28.9996C20.0007 27.8178 20.2335 26.6475 20.6858 25.5556C21.1381 24.4637 21.801 23.4716 22.6367 22.6359C23.4724 21.8002 24.4645 21.1373 25.5564 20.6851C26.6482 20.2328 27.8185 20 29.0004 20L29.0004 28.9996V37.9993Z" fill="white"/>
<path d="M29.0007 29.0004C29.0007 27.8185 29.2335 26.6482 29.6858 25.5564C30.1381 24.4645 30.801 23.4724 31.6367 22.6367C32.4724 21.801 33.4645 21.1381 34.5564 20.6858C35.6482 20.2335 36.8185 20.0007 38.0004 20.0007C39.1822 20.0007 40.3525 20.2335 41.4444 20.6858C42.5363 21.1381 43.5284 21.801 44.3641 22.6367C45.1998 23.4724 45.8627 24.4645 46.3149 25.5564C46.7672 26.6482 47 27.8185 47 29.0004L38.0004 29.0004L29.0007 29.0004Z" fill="white"/>
<path d="M37.9996 29.0007C39.1815 29.0007 40.3518 29.2335 41.4436 29.6858C42.5355 30.1381 43.5276 30.801 44.3633 31.6367C45.199 32.4724 45.8619 33.4645 46.3142 34.5564C46.7665 35.6482 46.9993 36.8185 46.9993 38.0004C46.9993 39.1822 46.7665 40.3525 46.3142 41.4444C45.8619 42.5363 45.199 43.5284 44.3633 44.3641C43.5276 45.1998 42.5355 45.8627 41.4436 46.3149C40.3518 46.7672 39.1815 47 37.9996 47L37.9996 38.0004V29.0007Z" fill="white"/>
</g>
<defs>
<filter id="filter0_i_3797_634" x="0" y="0" width="66" height="66" filterUnits="userSpaceOnUse" color-interpolation-filters="sRGB">
<feFlood flood-opacity="0" result="BackgroundImageFix"/>
<feBlend mode="normal" in="SourceGraphic" in2="BackgroundImageFix" result="shape"/>
<feColorMatrix in="SourceAlpha" type="matrix" values="0 0 0 0 0 0 0 0 0 0 0 0 0 0 0 0 0 0 127 0" result="hardAlpha"/>
<feMorphology radius="2" operator="erode" in="SourceAlpha" result="effect1_innerShadow_3797_634"/>
<feOffset/>
<feGaussianBlur stdDeviation="2"/>
<feComposite in2="hardAlpha" operator="arithmetic" k2="-1" k3="1"/>
<feColorMatrix type="matrix" values="0 0 0 0 0 0 0 0 0 0 0 0 0 0 0 0 0 0 0.43 0"/>
<feBlend mode="normal" in2="shape" result="effect1_innerShadow_3797_634"/>
</filter>
</defs>
</svg>
