<svg width="56" height="56" viewBox="0 0 56 56" fill="none" xmlns="http://www.w3.org/2000/svg">
<g opacity="0.9996">
<rect width="56" height="56" rx="28" fill="#FE4A01"/>
<path d="M34.6291 16H20.5258C18.5749 16 17 17.5631 17 19.4906V32.3128C17 34.2402 18.5749 35.8033 20.5258 35.8033H21.419C22.3592 35.8033 23.2524 36.1677 23.9106 36.8258L25.9203 38.812C26.837 39.717 28.3296 39.717 29.2463 38.812L31.256 36.8258C31.9142 36.1677 32.8191 35.8033 33.7476 35.8033H34.6291C36.58 35.8033 38.1549 34.2402 38.1549 32.3128V19.4906C38.1549 17.5631 36.58 16 34.6291 16ZM25.6735 28.9397C26.1554 28.9397 26.555 29.3393 26.555 29.8212C26.555 30.3031 26.1554 30.7026 25.6735 30.7026H22.5238C22.0067 30.7026 21.5248 30.4558 21.2192 30.0327C20.9254 29.6331 20.8549 29.1395 20.9959 28.6694C21.4073 27.4119 22.418 26.7302 23.3112 26.1191C24.2514 25.4844 24.7803 25.0848 24.7803 24.4032C24.7803 23.792 24.2867 23.2984 23.6755 23.2984C23.0644 23.2984 22.5825 23.8038 22.5825 24.4149C22.5825 24.8968 22.1829 25.2964 21.7011 25.2964C21.2192 25.2964 20.8196 24.8968 20.8196 24.4149C20.8196 22.8401 22.1007 21.5473 23.6873 21.5473C25.2739 21.5473 26.555 22.8283 26.555 24.4149C26.555 26.0721 25.3092 26.9183 24.3102 27.5999C23.6873 28.023 23.0997 28.4226 22.8058 28.9515H25.6735V28.9397ZM33.4538 29.022H33.207V29.8329C33.207 30.3148 32.8074 30.7144 32.3255 30.7144C31.8437 30.7144 31.4441 30.3148 31.4441 29.8329V29.022H29.1406C29.1406 29.022 29.1406 29.022 29.1288 29.022C28.5529 29.022 28.024 28.7164 27.7302 28.2228C27.4364 27.7175 27.4364 27.0946 27.7302 26.6009C28.5294 25.2259 29.4579 23.6628 30.3041 22.2995C30.6802 21.7001 31.3971 21.4298 32.067 21.6178C32.7369 21.8176 33.207 22.4287 33.1952 23.1339V27.2709H33.4538C33.9357 27.2709 34.3352 27.6704 34.3352 28.1523C34.3352 28.6342 33.9357 29.022 33.4538 29.022Z" fill="white"/>
<path d="M31.4434 27.26V23.8047C30.75 24.9329 30.0331 26.1435 29.3867 27.2482H31.4434V27.26Z" fill="white"/>
</g>
</svg>
