<svg width="56" height="56" viewBox="0 0 56 56" fill="none" xmlns="http://www.w3.org/2000/svg">
<g opacity="0.9972">
<rect width="56" height="56" rx="28" fill="#FE4A01"/>
<path d="M28.3347 36.8359L28.3297 36.8407H28.1489H22.8289H22.8286C20.7325 36.8407 19.2082 35.231 19.0197 33.393C18.9382 32.5979 19.1063 31.7601 19.5868 30.9912L23.8956 24.0971L20.7099 19H30.2678L27.2109 23.8908C28.0197 23.679 29.2993 23.5174 29.9623 23.6138L29.7202 24.1806C29.1272 24.1401 28.0172 24.289 27.3183 24.4752L31.3908 30.9912C32.9493 33.4846 31.2263 36.7029 28.3347 36.8359ZM38 28.8491L33.1739 31.8113L29.1936 25.3483L29.7315 24.1835C29.8188 24.1884 29.9074 24.1954 29.9975 24.2048C30.5565 24.2634 31.0319 24.3988 31.3714 24.5883C31.2882 24.8385 31.3118 25.1224 31.4605 25.3647C31.7279 25.8003 32.2977 25.9366 32.7332 25.6692C33.1687 25.4019 33.305 24.8321 33.0377 24.3966C32.7703 23.9611 32.2006 23.8247 31.7651 24.0921C31.7553 24.0981 31.7458 24.1044 31.7363 24.1108C31.2556 23.8203 30.6142 23.6581 29.9732 23.6006L30.609 22.2228L34.0074 22.3334L38 28.8491ZM36.2697 28.2256L36.2737 28.2143L36.0058 27.7658L35.994 27.839C35.9206 28.2856 35.6569 28.6741 35.2698 28.9071C34.9848 29.0773 34.6608 29.1492 34.3309 29.1153C34.024 29.0839 33.7306 28.9584 33.4959 28.7603L35.2531 27.7105L35.1949 27.3193L33.2423 28.4857C33.2176 28.4503 33.1942 28.4141 33.1722 28.3772C33.1502 28.3404 33.1294 28.3026 33.1099 28.2641L35.1535 27.0433L35.0952 26.6521L32.9883 27.9107C32.8536 27.2805 33.127 26.6357 33.6749 26.2941L33.6815 26.2902C33.6854 26.2879 33.6894 26.2854 33.6933 26.2831L33.6986 26.2799C34.0852 26.049 34.5523 26.0009 34.9795 26.1467L35.0218 26.1607L34.9628 25.7592L34.9459 25.755C34.4557 25.6326 33.9471 25.7072 33.5131 25.9665L33.5065 25.9704C33.5012 25.9736 33.4973 25.9759 33.492 25.9791C32.7718 26.4218 32.4307 27.2951 32.6581 28.1043L32.3323 28.299L32.3853 28.6934L32.7942 28.4491C32.8137 28.4876 32.8344 28.5253 32.8565 28.5623C32.8786 28.5992 32.902 28.6353 32.9267 28.6707L32.6431 28.8401L32.7013 29.2313L33.1671 28.9531C33.7824 29.5486 34.7209 29.6575 35.4571 29.2177C35.8344 28.9923 36.1229 28.6392 36.2697 28.2256Z" fill="white"/>
</g>
</svg>
