<svg width="56" height="56" viewBox="0 0 56 56" fill="none" xmlns="http://www.w3.org/2000/svg">
<g opacity="0.9886">
<rect width="56" height="56" rx="28" fill="#FE4A01"/>
<path d="M42.3945 21.9355C44.0059 24.5723 42.541 28.1855 39.5137 28.5762C39.2695 28.625 39.0742 28.625 38.8301 28.625C37.3652 28.625 36.0957 27.9902 35.2168 27.0137C34.3379 27.9902 33.0684 28.625 31.6035 28.625C30.1875 28.625 28.8691 27.9902 27.9902 27.0137C27.1113 27.9902 25.8418 28.625 24.4258 28.625C22.9609 28.625 21.6914 27.9902 20.8125 27.0137C19.9336 27.9902 18.6641 28.625 17.1992 28.625C16.9551 28.625 16.7598 28.625 16.5156 28.5762C13.4883 28.1855 12.0234 24.5723 13.6836 21.9355L16.8086 16.8574C17.1016 16.418 17.6387 16.125 18.1758 16.125H37.9023C38.4395 16.125 38.9277 16.418 39.2207 16.8574L42.3945 21.9355ZM38.8301 30.1875C39.123 30.1875 39.416 30.1875 39.709 30.1387C40.002 30.1387 40.2461 30.041 40.5391 29.9922V39.5625C40.5391 40.4414 39.8066 41.125 38.9766 41.125H17.1016C16.2227 41.125 15.5391 40.4414 15.5391 39.5625V29.9922C15.7832 30.041 16.0273 30.0898 16.3203 30.1387C16.6133 30.1875 16.9062 30.1875 17.1992 30.1875C17.6875 30.1875 18.1758 30.1387 18.6641 30.041V34.875H37.4141V30.041C37.8535 30.1387 38.3418 30.1875 38.8301 30.1875Z" fill="white"/>
</g>
</svg>
