<svg width="56" height="56" viewBox="0 0 56 56" fill="none" xmlns="http://www.w3.org/2000/svg">
<g opacity="0.9661">
<rect width="56" height="56" rx="28" fill="#FE4A01"/>
<path d="M39.5054 27.7527C39.5054 34.2435 34.2435 39.5054 27.7527 39.5054C21.2619 39.5054 16 34.2435 16 27.7527C16 21.2619 21.2619 16 27.7527 16C34.2435 16 39.5054 21.2619 39.5054 27.7527Z" fill="white"/>
<path fill-rule="evenodd" clip-rule="evenodd" d="M27.7525 22.1699C28.2393 22.1699 28.634 22.5646 28.634 23.0514V27.3873L31.314 30.0674C31.6582 30.4116 31.6582 30.9696 31.314 31.3139C30.9697 31.6581 30.4117 31.6581 30.0675 31.3139L27.1293 28.3757C26.9639 28.2105 26.8711 27.9862 26.8711 27.7525V23.0514C26.8711 22.5646 27.2657 22.1699 27.7525 22.1699Z" fill="#F64802"/>
</g>
</svg>
