<svg width="56" height="56" viewBox="0 0 56 56" fill="none" xmlns="http://www.w3.org/2000/svg">
<g opacity="0.9167">
<rect width="56" height="56" rx="28" fill="#FE4A01"/>
<path d="M27.7527 39.5054C34.2435 39.5054 39.5054 34.2435 39.5054 27.7527C39.5054 21.2619 34.2435 16 27.7527 16C21.2619 16 16 21.2619 16 27.7527C16 34.2435 21.2619 39.5054 27.7527 39.5054Z" fill="white"/>
<path d="M29.5032 21.2256C29.9735 21.3516 30.2525 21.8349 30.1265 22.3051L27.0847 33.6573C26.9587 34.1276 26.4753 34.4067 26.0051 34.2807C25.5348 34.1546 25.2558 33.6713 25.3818 33.2011L28.4236 21.8488C28.5496 21.3786 29.033 21.0996 29.5032 21.2256Z" fill="#FE4A01"/>
<path d="M31.2426 23.6039C31.5868 23.2596 32.1448 23.2596 32.489 23.6039L32.734 23.8487C33.4806 24.5954 34.1033 25.218 34.5311 25.7787C34.9827 26.3706 35.2995 26.996 35.2995 27.753C35.2995 28.51 34.9827 29.1353 34.5311 29.7272C34.1033 30.2879 33.4806 30.9106 32.734 31.6572L32.489 31.902C32.1448 32.2463 31.5868 32.2463 31.2426 31.902C30.8983 31.5578 30.8983 30.9998 31.2426 30.6555L31.4441 30.4539C32.2453 29.6527 32.7822 29.1132 33.1296 28.6578C33.4615 28.2228 33.5366 27.9696 33.5366 27.753C33.5366 27.5364 33.4615 27.2831 33.1296 26.8481C32.7822 26.3927 32.2453 25.8533 31.4441 25.0521L31.2426 24.8504C30.8983 24.5062 30.8983 23.9481 31.2426 23.6039Z" fill="#FE4A01"/>
<path d="M23.0154 23.6039C23.3597 23.2596 23.9178 23.2596 24.262 23.6039C24.6062 23.9481 24.6062 24.5062 24.262 24.8504L24.0604 25.0521C23.2592 25.8533 22.7224 26.3927 22.3749 26.8481C22.043 27.2831 21.968 27.5364 21.968 27.753C21.968 27.9696 22.043 28.2228 22.3749 28.6578C22.7224 29.1132 23.2592 29.6527 24.0604 30.4539L24.262 30.6555C24.6062 30.9998 24.6062 31.5578 24.262 31.902C23.9178 32.2463 23.3597 32.2463 23.0154 31.902L22.7706 31.6572C22.0239 30.9106 21.4012 30.2879 20.9734 29.7272C20.5218 29.1353 20.2051 28.51 20.2051 27.753C20.2051 26.996 20.5218 26.3706 20.9734 25.7787C21.4012 25.218 22.0239 24.5954 22.7706 23.8487L23.0154 23.6039Z" fill="#FE4A01"/>
</g>
</svg>
