<svg width="56" height="56" viewBox="0 0 56 56" fill="none" xmlns="http://www.w3.org/2000/svg">
<rect width="56" height="56" rx="28" fill="#FE4A01"/>
<path d="M22.6386 38.2245C22.6034 38.2245 22.5564 38.248 22.5211 38.248C20.2411 37.1198 18.3842 35.2511 17.2441 32.971C17.2441 32.9358 17.2676 32.8888 17.2676 32.8535C18.7015 33.2766 20.1823 33.5939 21.6514 33.8407C21.91 35.3216 22.2155 36.7907 22.6386 38.2245Z" fill="white"/>
<path d="M38.258 32.9828C37.0945 35.3216 35.1553 37.2138 32.793 38.3538C33.2396 36.8612 33.6157 35.3568 33.8625 33.8407C35.3433 33.5939 36.8006 33.2766 38.2345 32.8535C38.2227 32.9005 38.258 32.9475 38.258 32.9828Z" fill="white"/>
<path d="M38.352 22.7114C36.8712 22.2648 35.3786 21.9004 33.8625 21.6419C33.6157 20.1258 33.2513 18.6214 32.793 17.1523C35.2258 18.3159 37.1885 20.2786 38.352 22.7114Z" fill="white"/>
<path d="M22.6409 17.2794C22.2178 18.7132 21.9122 20.1706 21.6654 21.6514C20.1493 21.8865 18.6449 22.2625 17.1523 22.7092C18.2924 20.3469 20.1845 18.4077 22.5233 17.2441C22.5586 17.2441 22.6056 17.2794 22.6409 17.2794Z" fill="white"/>
<path d="M31.8577 21.3945C29.131 21.0889 26.3809 21.0889 23.6543 21.3945C23.9481 19.7844 24.3242 18.1743 24.8531 16.6229C24.8766 16.5289 24.8648 16.4584 24.8766 16.3643C25.805 16.141 26.757 16 27.756 16C28.7432 16 29.7069 16.141 30.6236 16.3643C30.6354 16.4584 30.6354 16.5289 30.6589 16.6229C31.1878 18.186 31.5638 19.7844 31.8577 21.3945Z" fill="white"/>
<path d="M21.3945 31.8557C19.7726 31.5619 18.1743 31.1858 16.6229 30.6569C16.5289 30.6334 16.4584 30.6452 16.3643 30.6334C16.141 29.705 16 28.753 16 27.754C16 26.7668 16.141 25.8031 16.3643 24.8864C16.4584 24.8746 16.5289 24.8746 16.6229 24.8511C18.186 24.334 19.7726 23.9462 21.3945 23.6523C21.1007 26.3789 21.1007 29.1291 21.3945 31.8557Z" fill="white"/>
<path d="M39.5058 27.754C39.5058 28.753 39.3648 29.705 39.1415 30.6334C39.0475 30.6452 38.977 30.6334 38.8829 30.6569C37.3198 31.1741 35.7214 31.5619 34.1113 31.8557C34.4169 29.1291 34.4169 26.3789 34.1113 23.6523C35.7214 23.9462 37.3316 24.3222 38.8829 24.8511C38.977 24.8746 39.0475 24.8864 39.1415 24.8864C39.3648 25.8148 39.5058 26.7668 39.5058 27.754Z" fill="white"/>
<path d="M31.8577 34.1113C31.5638 35.7332 31.1878 37.3316 30.6589 38.8829C30.6354 38.977 30.6354 39.0475 30.6236 39.1415C29.7069 39.3648 28.7432 39.5058 27.756 39.5058C26.757 39.5058 25.805 39.3648 24.8766 39.1415C24.8648 39.0475 24.8766 38.977 24.8531 38.8829C24.336 37.3198 23.9481 35.7332 23.6543 34.1113C25.0176 34.2641 26.3809 34.3699 27.756 34.3699C29.131 34.3699 30.5061 34.2641 31.8577 34.1113Z" fill="white"/>
<path d="M32.1748 32.1748C29.2353 32.5457 26.2684 32.5457 23.3289 32.1748C22.9581 29.2353 22.9581 26.2684 23.3289 23.3289C26.2684 22.9581 29.2353 22.9581 32.1748 23.3289C32.5457 26.2684 32.5457 29.2353 32.1748 32.1748Z" fill="white"/>
</svg>
