<svg width="20" height="27" viewBox="0 0 20 27" fill="none" xmlns="http://www.w3.org/2000/svg">
<path d="M12.8061 12.9146L11.3224 15.4025C11.074 15.8216 10.728 16.1806 10.3112 16.4519C9.89439 16.7232 9.41786 16.8996 8.91833 16.9674C8.69154 16.9962 8.46106 16.9543 8.26125 16.848L5.65378 15.4797C5.62599 15.4646 5.59449 15.4569 5.56252 15.4573C5.52029 15.4573 5.47928 15.4708 5.44595 15.4955C5.41262 15.5203 5.38885 15.5549 5.3784 15.5939C5.36795 15.633 5.3714 15.6742 5.38821 15.7112C5.40502 15.7481 5.43424 15.7787 5.47126 15.7981L7.97182 17.1092C8.25817 17.2567 8.48344 17.4927 8.61065 17.7785C8.77598 18.159 8.86108 18.5669 8.86108 18.9789C8.86108 19.3908 8.77598 19.7987 8.61065 20.1793C8.2058 21.0889 7.88474 22.0304 7.6511 22.9931C7.56506 23.3613 7.48683 23.7544 7.42425 24.1674C7.34281 24.7157 7.29493 25.2681 7.28084 25.8218H7.24955L6.93927 25.7273L6.87408 25.7099L6.69677 25.6551L6.58726 25.6178L6.43081 25.5631C6.09929 25.4426 5.77465 25.3056 5.45822 25.1526L5.41129 25.1277C5.15055 24.9983 4.90544 24.8665 4.67338 24.7296C4.5769 24.6749 4.48564 24.6177 4.39699 24.5629C3.63959 24.0953 2.95568 23.5274 2.36577 22.8762C1.36405 21.7308 0.652047 20.3809 0.284894 18.9309C-0.0822583 17.4809 -0.0947053 15.9697 0.248513 14.5144C0.351495 14.0289 0.495371 13.5522 0.678743 13.0888C0.678743 13.0614 0.699604 13.0415 0.704819 13.0266V13.0117C0.706955 13.2826 0.731366 13.553 0.777828 13.8202C1.06204 15.4647 2.08156 16.236 2.08156 16.236C1.29932 13.7779 1.87296 12.0737 2.62913 10.5835C2.88988 10.0561 3.18713 9.56096 3.44787 9.06587C3.63039 8.71757 3.80249 8.37673 3.94329 8.02594C4.5769 6.59789 4.25618 5.79927 4.23532 5.74952C4.25292 5.76331 4.26948 5.77827 4.28487 5.7943C4.39699 5.88884 4.49868 5.98338 4.59515 6.07543L4.63166 6.11275L4.6812 6.16499C4.69685 6.18241 4.71771 6.19983 4.73074 6.21724L4.79332 6.2869L4.85851 6.36154L5.00974 6.55062L5.08275 6.65013V6.66506C5.12186 6.72228 5.16097 6.77701 5.19487 6.83423C5.22877 6.89146 5.23398 6.89643 5.24963 6.92877C5.30351 7.02331 5.35132 7.11537 5.39304 7.20493C5.40868 7.23728 5.42172 7.26713 5.43476 7.29699L5.47387 7.38904C5.47772 7.40437 5.48296 7.41935 5.48952 7.43382V7.46616C5.50516 7.50845 5.5182 7.54826 5.53123 7.58806C5.54427 7.62787 5.55992 7.6826 5.57295 7.72739C5.58599 7.77217 5.5886 7.78958 5.59642 7.82193C5.5975 7.8385 5.5975 7.85512 5.59642 7.87169C5.59642 7.89159 5.59642 7.91149 5.59642 7.9289C5.61033 8.00022 5.62249 8.06906 5.63292 8.1354V8.20009C5.63292 8.25482 5.63814 8.3079 5.64857 8.35931C5.64857 8.3817 5.64857 8.4041 5.64857 8.424C5.64857 8.49117 5.64857 8.55585 5.64857 8.61556V8.66284C5.64857 8.69767 5.64857 8.73001 5.64857 8.75987C5.64857 8.78972 5.64857 8.80464 5.64857 8.82455C5.64857 8.84445 5.64857 8.89172 5.64857 8.92406C5.64857 8.9564 5.64857 8.94397 5.64857 8.95392C5.64857 8.96387 5.64857 9.03105 5.63292 9.06339C5.61728 9.09573 5.63292 9.08827 5.63292 9.10071C5.63292 9.11315 5.63292 9.14051 5.63292 9.15544C5.63292 9.17037 5.63292 9.18778 5.63292 9.20022V9.25744C5.63396 9.27236 5.63396 9.28731 5.63292 9.30223C5.73983 9.15793 5.89367 8.96387 6.05012 8.72752C6.6733 7.85925 7.66935 6.41129 8.6993 4.62498C9.47209 3.20695 9.69113 1.5729 9.31727 0.0149267L9.35117 0C9.90218 0.291476 10.4129 0.647515 10.8713 1.05984C12.2179 2.21983 13.2032 3.71169 13.7187 5.37135C14.1107 6.62202 14.232 7.93572 14.0751 9.23252C13.9182 10.5293 13.4864 11.7821 12.8061 12.9146Z" fill="url(#paint0_linear_3797_10914)"/>
<path d="M19.8644 17.2958C19.7554 18.5688 19.3798 19.8079 18.76 20.94C18.1401 22.072 17.2885 23.0738 16.2556 23.8862C15.6939 24.3435 15.082 24.7414 14.4304 25.073C14.1905 25.1974 13.9454 25.3218 13.6951 25.4113C12.9449 25.7229 12.1564 25.9427 11.3484 26.0656H11.2963C10.8236 26.137 10.3459 26.1728 9.86736 26.1726C9.36781 26.1723 8.86908 26.134 8.37589 26.0582L8.04214 26.0009C8.06233 25.0496 8.18376 24.1026 8.40458 23.1747C8.556 22.5232 8.75109 21.8817 8.98865 21.2541L9.03298 21.1446C9.18928 20.7875 9.42279 20.4658 9.71824 20.2007C10.0137 19.9355 10.3644 19.7328 10.7476 19.6058C11.1307 19.4787 11.5376 19.4303 11.9417 19.4635C12.3459 19.4967 12.7381 19.6109 13.0928 19.7986H13.111C13.1388 19.8137 13.1703 19.8214 13.2023 19.821C13.2368 19.8209 13.2706 19.8121 13.3004 19.7955C13.3302 19.7789 13.3548 19.7551 13.3718 19.7265C13.3841 19.7053 13.3918 19.682 13.3945 19.658C13.3972 19.6339 13.3948 19.6096 13.3876 19.5864C13.3803 19.5632 13.3682 19.5417 13.3521 19.523C13.3359 19.5043 13.316 19.4889 13.2936 19.4777L12.2636 18.9403C12.1143 18.8605 11.9941 18.739 11.9194 18.592C11.7101 18.1732 11.6014 17.715 11.6013 17.251C11.6015 16.7025 11.7506 16.1633 12.0342 15.6862L13.9689 12.4419C13.9693 12.437 13.9693 12.432 13.9689 12.427L13.9924 12.3822C14.1879 12.0439 15.0067 10.4889 14.8737 8.9166C14.8998 9.05841 15.038 9.75253 15.1736 10.4093L15.257 10.8198C15.3065 11.0686 15.3561 11.2751 15.3926 11.4219C15.4805 11.8375 15.5937 12.2479 15.7315 12.6509C16.6546 15.313 17.9974 14.5616 18.0392 11.9817V11.8722C18.0247 10.863 17.8749 9.85966 17.5933 8.88674C18.3868 10.426 19.0275 12.0327 19.5072 13.6859C19.5697 13.9048 19.6219 14.1262 19.6688 14.3452C19.8802 15.3149 19.9461 16.3084 19.8644 17.2958Z" fill="url(#paint1_linear_3797_10914)"/>
<path d="M5.52083 7.46616C5.48693 7.37908 5.45042 7.28704 5.4087 7.19747C5.45042 7.2945 5.48954 7.38655 5.52083 7.46616Z" fill="#681218"/>
<path d="M5.69554 8.93153C5.69554 8.95392 5.69554 8.97134 5.69554 8.99124C5.67989 9.10568 5.65903 9.19525 5.64599 9.24003V9.28481C5.64548 9.29309 5.64548 9.3014 5.64599 9.30969C3.79209 11.8249 4.22232 13.5092 4.25361 13.6162V13.5963L3.96157 13.039C3.58349 12.1285 3.77384 11.2627 4.40745 9.00866C5.04106 6.75463 4.51435 5.96845 4.32922 5.7744C4.53753 5.94693 4.7303 6.13584 4.90548 6.33915C4.96023 6.40383 5.00977 6.46603 5.05671 6.52823C5.10364 6.59043 5.14797 6.65511 5.1923 6.7173C5.23662 6.7795 5.27052 6.8417 5.30963 6.90638C5.34874 6.97107 5.41133 7.09048 5.45304 7.18254C5.49476 7.27459 5.53127 7.36416 5.56516 7.45123C5.59906 7.53831 5.62514 7.62787 5.6486 7.71495C5.74309 8.1142 5.75901 8.52673 5.69554 8.93153Z" fill="url(#paint2_linear_3797_10914)"/>
<path d="M17.953 14.3502C17.8493 14.5547 17.6678 14.7139 17.4455 14.7952C17.2231 14.8766 16.9766 14.874 16.7562 14.788C15.8644 14.4472 15.7497 12.6385 15.7497 12.6385C16.6727 15.3005 18.0182 14.5492 18.0573 11.9692C18.0625 11.9991 18.4067 13.6038 17.953 14.3502Z" fill="url(#paint3_linear_3797_10914)"/>
<path d="M5.52083 7.46616C5.48693 7.37908 5.45042 7.28704 5.4087 7.19747C5.45042 7.2945 5.48954 7.38655 5.52083 7.46616Z" fill="#681218"/>
<path d="M7.42674 24.1649C7.3453 24.7132 7.29741 25.2657 7.28332 25.8193H7.25464L7.14252 25.7845L7.04604 25.7547L6.70186 25.6502L6.59235 25.6128L6.4359 25.5581C6.10207 25.4431 5.77709 25.3059 5.46332 25.1476L5.41638 25.1227C5.15563 24.9934 4.91054 24.8615 4.67847 24.7247L4.40208 24.558C3.64468 24.0904 2.96078 23.5224 2.37087 22.8712C1.36914 21.7259 0.65714 20.3759 0.289987 18.9259C-0.0771656 17.4759 -0.0896125 15.9647 0.253606 14.5094C0.356587 14.0239 0.500463 13.5472 0.683836 13.0838C0.683836 13.0564 0.704697 13.0365 0.709912 13.0216V13.0067C0.709912 13.0067 -0.969296 21.6745 7.42674 24.1649Z" fill="url(#paint4_linear_3797_10914)"/>
<path d="M6.93906 25.7248L7.24935 25.8193C7.13723 25.787 7.00946 25.7497 6.87387 25.7074L6.93906 25.7248Z" fill="#414242"/>
<path d="M15.1866 10.3869C15.051 9.73511 14.9258 9.04348 14.8867 8.89421C15.0093 9.43906 15.1475 10.066 15.27 10.7925L15.1866 10.3869Z" fill="#414242"/>
<defs>
<linearGradient id="paint0_linear_3797_10914" x1="9.94384" y1="0.0226952" x2="9.94384" y2="26.1802" gradientUnits="userSpaceOnUse">
<stop offset="0.21" stop-color="#FF7623"/>
<stop offset="0.93" stop-color="#F5430D"/>
</linearGradient>
<linearGradient id="paint1_linear_3797_10914" x1="9.94255" y1="-0.0150677" x2="9.94255" y2="26.1801" gradientUnits="userSpaceOnUse">
<stop offset="0.21" stop-color="#FF7623"/>
<stop offset="0.93" stop-color="#F5430D"/>
</linearGradient>
<linearGradient id="paint2_linear_3797_10914" x1="9.64018" y1="24.8108" x2="9.64018" y2="5.67129" gradientUnits="userSpaceOnUse">
<stop offset="0.18" stop-color="#F13507"/>
<stop offset="0.86" stop-color="#F84814"/>
</linearGradient>
<linearGradient id="paint3_linear_3797_10914" x1="26.3941" y1="13.0673" x2="-5.36395" y2="13.0673" gradientUnits="userSpaceOnUse">
<stop offset="0.18" stop-color="#F13507"/>
<stop offset="0.86" stop-color="#F84814"/>
</linearGradient>
<linearGradient id="paint4_linear_3797_10914" x1="0.00914489" y1="13.0965" x2="19.8984" y2="13.0965" gradientUnits="userSpaceOnUse">
<stop offset="0.18" stop-color="#F13507"/>
<stop offset="0.86" stop-color="#F84814"/>
</linearGradient>
</defs>
</svg>
