<svg width="141" height="27" viewBox="0 0 141 27" fill="none" xmlns="http://www.w3.org/2000/svg">
<path d="M86.8015 11.3517V12.2423C86.8015 14.7785 84.9622 15.6497 82.0194 15.6497H78.6894V20.7028C78.2828 20.7803 77.7794 20.7803 77.3535 20.7028V7.82806H82.0194C84.9622 7.82806 86.8015 8.71865 86.8015 11.3517ZM85.4656 12.0874V11.5259C85.4656 9.35754 83.8974 9.02841 82.0001 9.02841H78.6894V14.5268H82.0001C83.9167 14.5268 85.4656 14.1783 85.4656 12.0874Z" fill="white"/>
<path d="M89.56 20.7028V10.8483C89.9085 10.7902 90.257 10.7902 90.6055 10.8483L90.741 12.3391H90.8378C91.2057 11.1581 92.619 10.6547 94.5551 10.6547C94.6325 10.9838 94.6325 11.5453 94.5551 11.8551C92.1544 11.8551 91.4767 12.3197 90.8572 13.6943V20.7028C90.47 20.7803 89.9473 20.7803 89.56 20.7028Z" fill="white"/>
<path d="M105.214 13.5975V18.0117C105.214 20.1414 103.452 20.9352 100.781 20.9352C98.1282 20.9352 96.3663 20.1414 96.3663 18.0117V13.5975C96.3663 11.4291 98.1282 10.6547 100.781 10.6547C103.452 10.6547 105.214 11.4291 105.214 13.5975ZM103.917 17.76V13.8298C103.917 12.0487 102.484 11.8163 100.781 11.8163C99.0768 11.8163 97.6635 12.0487 97.6635 13.8298V17.76C97.6635 19.5218 99.0768 19.7542 100.781 19.7542C102.484 19.7542 103.917 19.5218 103.917 17.76Z" fill="white"/>
<path d="M114.647 20.7028L111.414 16.4822L108.161 20.7028C107.716 20.7803 107.29 20.7803 106.826 20.7028L110.678 15.6884L107.058 10.9064C107.464 10.8289 108.007 10.8289 108.433 10.9064L111.453 14.8753L114.492 10.9064C114.976 10.8289 115.364 10.8289 115.828 10.9064L112.188 15.6497L116.022 20.7028C115.596 20.7803 115.073 20.7803 114.647 20.7028Z" fill="white"/>
<path d="M118.252 20.7028V10.9064C118.639 10.8289 119.162 10.8289 119.549 10.9064V20.7028C119.162 20.7803 118.639 20.7803 118.252 20.7028ZM119.666 7.22788L119.627 8.62184C119.201 8.69929 118.601 8.69929 118.175 8.62184L118.136 7.22788C118.581 7.15044 119.22 7.15044 119.666 7.22788Z" fill="white"/>
<path d="M131.423 13.733V16.2305C129.661 16.308 126.254 16.308 124.144 16.2499V17.76C124.144 19.5025 125.538 19.7542 127.377 19.7542C128.81 19.7542 129.719 19.6574 130.978 19.4444C131.055 19.7735 131.055 20.2575 130.978 20.5867C129.623 20.819 128.461 20.9352 127.222 20.9352C124.511 20.9352 122.846 20.1414 122.846 18.0117V13.6169C122.846 11.4291 124.531 10.6547 127.164 10.6547C129.739 10.6547 131.423 11.5646 131.423 13.733ZM130.145 15.2432V13.8105C130.145 12.0487 128.732 11.8163 127.164 11.8163C125.576 11.8163 124.144 12.0487 124.144 13.8105V15.34L125.692 15.2432H130.145Z" fill="white"/>
<path d="M141.001 17.7019V18.3796C141.001 20.2382 139.433 20.9352 137.168 20.9352C136.103 20.9352 134.767 20.8577 133.683 20.6254C133.586 20.2769 133.586 19.8316 133.683 19.4831C134.806 19.6767 135.967 19.7542 137.071 19.7542C138.349 19.7542 139.704 19.5993 139.704 18.2247V17.8181C139.704 16.9469 139.123 16.7533 138.097 16.521L136.006 16.0369C134.438 15.6691 133.586 15.1076 133.586 13.8879V13.1716C133.586 11.371 135.173 10.6547 137.729 10.6547C138.697 10.6547 139.607 10.7321 140.885 10.9451C140.982 11.2936 140.982 11.7195 140.885 12.068C139.626 11.8551 138.871 11.797 137.806 11.797C136.219 11.797 134.883 11.9519 134.883 13.3265V13.7137C134.883 14.4881 135.503 14.7398 136.471 14.9721L138.542 15.4368C140.265 15.8433 141.001 16.3273 141.001 17.7019Z" fill="white"/>
<path d="M12.8061 12.9146L11.3224 15.4025C11.074 15.8216 10.728 16.1806 10.3112 16.4519C9.89439 16.7232 9.41786 16.8996 8.91833 16.9674C8.69154 16.9962 8.46106 16.9543 8.26125 16.848L5.65378 15.4797C5.62599 15.4646 5.59449 15.4569 5.56252 15.4573C5.52029 15.4573 5.47928 15.4708 5.44595 15.4955C5.41262 15.5203 5.38885 15.5549 5.3784 15.5939C5.36795 15.633 5.3714 15.6742 5.38821 15.7112C5.40502 15.7481 5.43424 15.7787 5.47126 15.7981L7.97182 17.1092C8.25817 17.2567 8.48344 17.4927 8.61065 17.7785C8.77598 18.159 8.86108 18.5669 8.86108 18.9789C8.86108 19.3908 8.77598 19.7987 8.61065 20.1793C8.2058 21.0889 7.88474 22.0304 7.6511 22.9931C7.56506 23.3613 7.48683 23.7544 7.42425 24.1674C7.34281 24.7157 7.29493 25.2681 7.28084 25.8218H7.24955L6.93927 25.7273L6.87408 25.7099L6.69677 25.6551L6.58726 25.6178L6.43081 25.5631C6.09929 25.4426 5.77465 25.3056 5.45822 25.1526L5.41129 25.1277C5.15055 24.9983 4.90544 24.8665 4.67338 24.7296C4.5769 24.6749 4.48564 24.6177 4.39699 24.5629C3.63959 24.0953 2.95568 23.5274 2.36577 22.8762C1.36405 21.7308 0.652047 20.3809 0.284894 18.9309C-0.0822583 17.4809 -0.0947052 15.9697 0.248513 14.5144C0.351495 14.0289 0.495371 13.5522 0.678743 13.0888C0.678743 13.0614 0.699605 13.0415 0.704819 13.0266V13.0117C0.706955 13.2826 0.731366 13.553 0.777828 13.8202C1.06204 15.4647 2.08156 16.236 2.08156 16.236C1.29932 13.7779 1.87296 12.0737 2.62913 10.5835C2.88987 10.0561 3.18713 9.56096 3.44787 9.06587C3.63039 8.71757 3.80249 8.37673 3.94329 8.02594C4.5769 6.59789 4.25618 5.79927 4.23532 5.74952C4.25292 5.76331 4.26948 5.77827 4.28487 5.7943C4.39699 5.88884 4.49868 5.98338 4.59515 6.07543L4.63166 6.11275L4.6812 6.16499C4.69685 6.18241 4.71771 6.19983 4.73074 6.21724L4.79332 6.2869L4.85851 6.36154L5.00974 6.55062L5.08275 6.65013V6.66506C5.12186 6.72228 5.16097 6.77701 5.19487 6.83423C5.22877 6.89146 5.23398 6.89643 5.24963 6.92877C5.30351 7.02331 5.35132 7.11537 5.39304 7.20493C5.40868 7.23728 5.42172 7.26713 5.43476 7.29699L5.47387 7.38904C5.47772 7.40437 5.48296 7.41935 5.48952 7.43382V7.46616C5.50516 7.50845 5.5182 7.54826 5.53123 7.58806C5.54427 7.62787 5.55992 7.6826 5.57295 7.72739C5.58599 7.77217 5.5886 7.78958 5.59642 7.82193C5.5975 7.8385 5.5975 7.85512 5.59642 7.87169C5.59642 7.89159 5.59642 7.91149 5.59642 7.9289C5.61033 8.00022 5.62249 8.06906 5.63292 8.1354V8.20009C5.63292 8.25482 5.63814 8.3079 5.64857 8.35931C5.64857 8.3817 5.64857 8.4041 5.64857 8.424C5.64857 8.49117 5.64857 8.55585 5.64857 8.61556V8.66284C5.64857 8.69767 5.64857 8.73001 5.64857 8.75987C5.64857 8.78972 5.64857 8.80464 5.64857 8.82455C5.64857 8.84445 5.64857 8.89172 5.64857 8.92406C5.64857 8.9564 5.64857 8.94397 5.64857 8.95392C5.64857 8.96387 5.64857 9.03105 5.63292 9.06339C5.61728 9.09573 5.63292 9.08827 5.63292 9.10071C5.63292 9.11315 5.63292 9.14051 5.63292 9.15544C5.63292 9.17037 5.63292 9.18778 5.63292 9.20022V9.25744C5.63396 9.27236 5.63396 9.28731 5.63292 9.30223C5.73983 9.15793 5.89367 8.96387 6.05012 8.72752C6.6733 7.85925 7.66935 6.41129 8.6993 4.62498C9.47209 3.20695 9.69113 1.5729 9.31727 0.0149267L9.35117 0C9.90218 0.291476 10.4129 0.647515 10.8713 1.05984C12.2179 2.21983 13.2032 3.71169 13.7187 5.37135C14.1107 6.62202 14.232 7.93572 14.0751 9.23252C13.9182 10.5293 13.4864 11.7821 12.8061 12.9146Z" fill="url(#paint0_linear_1251_7323)"/>
<path d="M19.8644 17.2958C19.7554 18.5688 19.3798 19.8079 18.76 20.94C18.1401 22.072 17.2885 23.0738 16.2556 23.8862C15.6939 24.3435 15.082 24.7414 14.4304 25.073C14.1905 25.1974 13.9454 25.3218 13.6951 25.4113C12.9449 25.7229 12.1564 25.9427 11.3484 26.0656H11.2963C10.8236 26.137 10.3459 26.1728 9.86736 26.1726C9.36781 26.1723 8.86908 26.134 8.37589 26.0582L8.04214 26.0009C8.06233 25.0496 8.18376 24.1026 8.40458 23.1747C8.556 22.5232 8.75109 21.8817 8.98865 21.2541L9.03298 21.1446C9.18928 20.7875 9.42279 20.4658 9.71824 20.2007C10.0137 19.9355 10.3644 19.7328 10.7476 19.6058C11.1307 19.4787 11.5376 19.4303 11.9417 19.4635C12.3459 19.4967 12.7381 19.6109 13.0928 19.7986H13.111C13.1388 19.8137 13.1703 19.8214 13.2023 19.821C13.2368 19.8209 13.2706 19.8121 13.3004 19.7955C13.3302 19.7789 13.3548 19.7551 13.3718 19.7265C13.3841 19.7053 13.3918 19.682 13.3945 19.658C13.3972 19.6339 13.3948 19.6096 13.3876 19.5864C13.3803 19.5632 13.3682 19.5417 13.3521 19.523C13.3359 19.5043 13.316 19.4889 13.2936 19.4777L12.2636 18.9403C12.1143 18.8605 11.9941 18.739 11.9194 18.592C11.7101 18.1732 11.6014 17.715 11.6013 17.251C11.6015 16.7025 11.7506 16.1633 12.0342 15.6862L13.9689 12.4419C13.9693 12.437 13.9693 12.432 13.9689 12.427L13.9924 12.3822C14.1879 12.0439 15.0067 10.4889 14.8737 8.9166C14.8998 9.05841 15.038 9.75253 15.1736 10.4093L15.257 10.8198C15.3065 11.0686 15.3561 11.2751 15.3926 11.4219C15.4805 11.8375 15.5937 12.2479 15.7315 12.6509C16.6546 15.313 17.9974 14.5616 18.0392 11.9817V11.8722C18.0247 10.863 17.8749 9.85966 17.5933 8.88674C18.3868 10.426 19.0275 12.0327 19.5072 13.6859C19.5697 13.9048 19.6219 14.1262 19.6688 14.3452C19.8802 15.3149 19.9461 16.3084 19.8644 17.2958Z" fill="url(#paint1_linear_1251_7323)"/>
<path d="M5.52083 7.46616C5.48693 7.37908 5.45042 7.28703 5.4087 7.19747C5.45042 7.2945 5.48954 7.38655 5.52083 7.46616Z" fill="#681218"/>
<path d="M5.69554 8.93153C5.69554 8.95392 5.69554 8.97134 5.69554 8.99124C5.67989 9.10568 5.65903 9.19525 5.64599 9.24003V9.28481C5.64548 9.29309 5.64548 9.3014 5.64599 9.30969C3.79209 11.8249 4.22232 13.5092 4.25361 13.6162V13.5963L3.96157 13.039C3.58349 12.1285 3.77384 11.2627 4.40745 9.00866C5.04106 6.75463 4.51435 5.96845 4.32922 5.7744C4.53753 5.94693 4.7303 6.13584 4.90548 6.33915C4.96023 6.40383 5.00977 6.46603 5.05671 6.52823C5.10364 6.59043 5.14797 6.65511 5.1923 6.7173C5.23662 6.7795 5.27052 6.8417 5.30963 6.90638C5.34874 6.97107 5.41132 7.09048 5.45304 7.18254C5.49476 7.27459 5.53127 7.36416 5.56516 7.45123C5.59906 7.53831 5.62514 7.62787 5.6486 7.71495C5.74309 8.1142 5.75901 8.52673 5.69554 8.93153Z" fill="url(#paint2_linear_1251_7323)"/>
<path d="M17.953 14.3502C17.8493 14.5547 17.6678 14.7139 17.4455 14.7952C17.2231 14.8766 16.9766 14.874 16.7562 14.788C15.8644 14.4472 15.7497 12.6385 15.7497 12.6385C16.6727 15.3005 18.0182 14.5492 18.0573 11.9692C18.0625 11.9991 18.4067 13.6038 17.953 14.3502Z" fill="url(#paint3_linear_1251_7323)"/>
<path d="M5.52083 7.46616C5.48693 7.37908 5.45042 7.28703 5.4087 7.19747C5.45042 7.2945 5.48954 7.38655 5.52083 7.46616Z" fill="#681218"/>
<path d="M7.42674 24.1649C7.3453 24.7132 7.29741 25.2657 7.28332 25.8193H7.25464L7.14252 25.7845L7.04604 25.7547L6.70186 25.6502L6.59235 25.6128L6.4359 25.5581C6.10207 25.4431 5.77709 25.3059 5.46332 25.1476L5.41638 25.1227C5.15563 24.9934 4.91054 24.8615 4.67847 24.7247L4.40208 24.558C3.64468 24.0904 2.96078 23.5224 2.37087 22.8712C1.36914 21.7259 0.65714 20.3759 0.289987 18.9259C-0.0771656 17.4759 -0.0896125 15.9647 0.253606 14.5094C0.356587 14.0239 0.500463 13.5472 0.683836 13.0838C0.683836 13.0564 0.704697 13.0365 0.709912 13.0216V13.0067C0.709912 13.0067 -0.969296 21.6745 7.42674 24.1649Z" fill="url(#paint4_linear_1251_7323)"/>
<path d="M6.93906 25.7248L7.24935 25.8193C7.13723 25.787 7.00946 25.7497 6.87387 25.7074L6.93906 25.7248Z" fill="#414242"/>
<path d="M15.1866 10.3869C15.051 9.73511 14.9258 9.04348 14.8867 8.89421C15.0093 9.43906 15.1475 10.066 15.27 10.7925L15.1866 10.3869Z" fill="#414242"/>
<path d="M30.9158 20.4013V9.99651H27.1719V7.33832H38.1448V9.99651H34.3809V20.4013H30.9158Z" fill="white"/>
<path d="M42.5767 20.4014C41.743 20.4014 41.0503 20.3511 40.4986 20.2504C39.9468 20.1497 39.5116 19.9862 39.1928 19.7597C38.874 19.5332 38.6411 19.2312 38.4939 18.8537C38.3468 18.4762 38.2487 18.0043 38.1997 17.4381C38.1629 16.8719 38.1445 16.1987 38.1445 15.4186C38.1445 14.6385 38.1629 13.9716 38.1997 13.4179C38.2487 12.8517 38.3468 12.3798 38.4939 12.0023C38.6411 11.6248 38.874 11.3228 39.1928 11.0964C39.5116 10.8699 39.9468 10.7126 40.4986 10.6245C41.0503 10.5238 41.743 10.4735 42.5767 10.4735C43.4227 10.4735 44.1216 10.5238 44.6733 10.6245C45.2251 10.7126 45.6603 10.8699 45.9791 11.0964C46.2979 11.3228 46.5308 11.6248 46.678 12.0023C46.8251 12.3798 46.917 12.8517 46.9538 13.4179C47.0029 13.9716 47.0274 14.6385 47.0274 15.4186C47.0274 16.1987 47.0029 16.8719 46.9538 17.4381C46.917 18.0043 46.8251 18.4762 46.678 18.8537C46.5308 19.2312 46.2979 19.5332 45.9791 19.7597C45.6603 19.9862 45.2251 20.1497 44.6733 20.2504C44.1216 20.3511 43.4227 20.4014 42.5767 20.4014ZM42.5767 18.0987C42.9446 18.0987 43.2327 18.0736 43.4411 18.0232C43.6496 17.9729 43.7967 17.8597 43.8825 17.6835C43.9683 17.5074 44.0174 17.2368 44.0296 16.8719C44.0542 16.507 44.0664 16.0225 44.0664 15.4186C44.0664 14.8146 44.0542 14.3365 44.0296 13.9841C44.0174 13.6318 43.9683 13.3676 43.8825 13.1914C43.7967 13.0152 43.6496 12.902 43.4411 12.8517C43.2327 12.8013 42.9446 12.7762 42.5767 12.7762C42.2089 12.7762 41.9208 12.8013 41.7124 12.8517C41.5162 12.902 41.3752 13.0152 41.2894 13.1914C41.2035 13.3676 41.1484 13.6318 41.1239 13.9841C41.1116 14.3365 41.1055 14.8146 41.1055 15.4186C41.1055 16.0225 41.1116 16.507 41.1239 16.8719C41.1484 17.2368 41.2035 17.5074 41.2894 17.6835C41.3752 17.8597 41.5162 17.9729 41.7124 18.0232C41.9208 18.0736 42.2089 18.0987 42.5767 18.0987Z" fill="white"/>
<path d="M48.5938 20.4014V10.6268H51.5261L51.6033 12.2943H51.7769C51.9572 11.8215 52.1822 11.451 52.4522 11.1826C52.7351 10.9143 53.0761 10.7291 53.4746 10.6268C53.8736 10.5246 54.3365 10.4735 54.864 10.4735V13.2909C54.0535 13.2909 53.4171 13.3931 52.9538 13.5976C52.491 13.802 52.163 14.1533 51.9702 14.6516C51.7769 15.1372 51.6805 15.8208 51.6805 16.7024V20.4014H48.5938Z" fill="white"/>
<path d="M60.4212 20.4014C59.6543 20.4014 59.0253 20.3322 58.5343 20.1938C58.0429 20.0428 57.6534 19.8352 57.3662 19.5709C57.0785 19.2941 56.869 18.9543 56.7372 18.5517C56.6054 18.1491 56.5214 17.6898 56.4857 17.1739C56.4495 16.6454 56.4316 16.0666 56.4316 15.4375C56.4316 14.8209 56.4495 14.2546 56.4857 13.7388C56.5214 13.2229 56.6112 12.7636 56.7551 12.3609C56.8989 11.9457 57.1084 11.5997 57.384 11.3228C57.6717 11.046 58.055 10.8384 58.5343 10.7C59.0253 10.549 59.6484 10.4735 60.403 10.4735C60.8823 10.4735 61.3616 10.4987 61.8409 10.549C62.3319 10.5993 62.7692 10.6748 63.1525 10.7755V12.9083C62.913 12.8706 62.6017 12.8391 62.218 12.8139C61.8467 12.7887 61.4992 12.7762 61.1758 12.7762C60.7567 12.7762 60.4271 12.8139 60.1876 12.8894C59.9477 12.9523 59.7682 13.0781 59.6484 13.2669C59.5287 13.4431 59.4447 13.7073 59.3969 14.0596C59.3608 14.412 59.3429 14.8712 59.3429 15.4375C59.3429 16.0037 59.3608 16.4693 59.3969 16.8341C59.4447 17.1865 59.5287 17.457 59.6484 17.6458C59.7682 17.8219 59.954 17.9414 60.2055 18.0043C60.457 18.0673 60.7867 18.0987 61.1936 18.0987C61.4813 18.0987 61.8047 18.0862 62.1643 18.061C62.5356 18.0358 62.8889 18.0043 63.2244 17.9666V20.0994C62.8291 20.1875 62.3797 20.2567 61.8767 20.307C61.3736 20.3699 60.8885 20.4014 60.4212 20.4014Z" fill="white"/>
<path d="M65.8379 20.4016V6.29352H68.8747V11.838H69.0455C69.2356 11.5215 69.463 11.2747 69.7287 11.0975C70.0071 10.9076 70.3175 10.7747 70.6591 10.6987C71.0007 10.6228 71.374 10.5848 71.7788 10.5848C72.4243 10.5848 72.9367 10.6671 73.3165 10.8317C73.7086 10.9836 74.0059 11.2177 74.2083 11.5342C74.4107 11.8507 74.5438 12.2431 74.607 12.7114C74.683 13.1798 74.7207 13.7241 74.7207 14.3444V20.4016H71.6651V15.2748C71.6651 14.7558 71.6523 14.3507 71.6269 14.0596C71.6019 13.7558 71.5448 13.5342 71.4561 13.395C71.3674 13.2558 71.2282 13.1735 71.0385 13.1482C70.8615 13.1102 70.6209 13.0912 70.3175 13.0912C70.0009 13.0912 69.7414 13.1292 69.539 13.2051C69.3493 13.2684 69.2035 13.3823 69.1025 13.5469C69.0138 13.7115 68.9506 13.9456 68.9129 14.2494C68.8874 14.5406 68.8747 14.9077 68.8747 15.3508V20.4016H65.8379Z" fill="white"/>
<defs>
<linearGradient id="paint0_linear_1251_7323" x1="9.94384" y1="0.0226952" x2="9.94384" y2="26.1802" gradientUnits="userSpaceOnUse">
<stop offset="0.21" stop-color="#FF7623"/>
<stop offset="0.93" stop-color="#F5430D"/>
</linearGradient>
<linearGradient id="paint1_linear_1251_7323" x1="9.94255" y1="-0.0150677" x2="9.94255" y2="26.1801" gradientUnits="userSpaceOnUse">
<stop offset="0.21" stop-color="#FF7623"/>
<stop offset="0.93" stop-color="#F5430D"/>
</linearGradient>
<linearGradient id="paint2_linear_1251_7323" x1="9.64018" y1="24.8108" x2="9.64018" y2="5.67129" gradientUnits="userSpaceOnUse">
<stop offset="0.18" stop-color="#F13507"/>
<stop offset="0.86" stop-color="#F84814"/>
</linearGradient>
<linearGradient id="paint3_linear_1251_7323" x1="26.3941" y1="13.0673" x2="-5.36395" y2="13.0673" gradientUnits="userSpaceOnUse">
<stop offset="0.18" stop-color="#F13507"/>
<stop offset="0.86" stop-color="#F84814"/>
</linearGradient>
<linearGradient id="paint4_linear_1251_7323" x1="0.00914489" y1="13.0965" x2="19.8984" y2="13.0965" gradientUnits="userSpaceOnUse">
<stop offset="0.18" stop-color="#F13507"/>
<stop offset="0.86" stop-color="#F84814"/>
</linearGradient>
</defs>
</svg>
