<svg width="66" height="66" viewBox="0 0 66 66" fill="none" xmlns="http://www.w3.org/2000/svg">
<g filter="url(#filter0_i_809_188)">
<rect width="66" height="66" rx="12" fill="#FE4A01"/>
<path d="M37.9993 37.9994C37.9993 39.1812 37.7665 40.3515 37.3142 41.4434C36.8619 42.5353 36.199 43.5274 35.3633 44.3631C34.5276 45.1988 33.5355 45.8617 32.4436 46.314C31.3518 46.7662 30.1815 46.999 28.9996 46.999C27.8178 46.999 26.6475 46.7662 25.5556 46.314C24.4637 45.8617 23.4716 45.1988 22.6359 44.3631C21.8002 43.5274 21.1373 42.5353 20.6851 41.4434C20.2328 40.3515 20 39.1812 20 37.9994L28.9996 37.9994H37.9993Z" fill="white"/>
<path d="M29.0004 37.999C27.8185 37.999 26.6482 37.7662 25.5564 37.314C24.4645 36.8617 23.4724 36.1988 22.6367 35.3631C21.801 34.5274 21.1381 33.5353 20.6858 32.4434C20.2335 31.3515 20.0007 30.1812 20.0007 28.9994C20.0007 27.8175 20.2335 26.6473 20.6858 25.5554C21.1381 24.4635 21.801 23.4714 22.6367 22.6357C23.4724 21.8 24.4645 21.1371 25.5564 20.6848C26.6482 20.2325 27.8185 19.9998 29.0004 19.9998L29.0004 28.9994V37.999Z" fill="white"/>
<path d="M29.0007 29.0001C29.0007 27.8183 29.2335 26.648 29.6858 25.5561C30.1381 24.4642 30.801 23.4721 31.6367 22.6364C32.4724 21.8007 33.4645 21.1378 34.5564 20.6856C35.6482 20.2333 36.8185 20.0005 38.0004 20.0005C39.1822 20.0005 40.3525 20.2333 41.4444 20.6856C42.5363 21.1378 43.5284 21.8007 44.3641 22.6364C45.1998 23.4721 45.8627 24.4642 46.3149 25.5561C46.7672 26.648 47 27.8183 47 29.0001L38.0004 29.0001L29.0007 29.0001Z" fill="white"/>
<path d="M37.9996 29.0005C39.1815 29.0005 40.3518 29.2333 41.4436 29.6856C42.5355 30.1378 43.5276 30.8007 44.3633 31.6364C45.199 32.4721 45.8619 33.4642 46.3142 34.5561C46.7665 35.648 46.9993 36.8183 46.9993 38.0001C46.9993 39.182 46.7665 40.3523 46.3142 41.4441C45.8619 42.536 45.199 43.5281 44.3633 44.3638C43.5276 45.1995 42.5355 45.8624 41.4436 46.3147C40.3518 46.767 39.1815 46.9998 37.9996 46.9998L37.9996 38.0001V29.0005Z" fill="white"/>
</g>
<defs>
<filter id="filter0_i_809_188" x="0" y="0" width="66" height="66" filterUnits="userSpaceOnUse" color-interpolation-filters="sRGB">
<feFlood flood-opacity="0" result="BackgroundImageFix"/>
<feBlend mode="normal" in="SourceGraphic" in2="BackgroundImageFix" result="shape"/>
<feColorMatrix in="SourceAlpha" type="matrix" values="0 0 0 0 0 0 0 0 0 0 0 0 0 0 0 0 0 0 127 0" result="hardAlpha"/>
<feMorphology radius="2" operator="erode" in="SourceAlpha" result="effect1_innerShadow_809_188"/>
<feOffset/>
<feGaussianBlur stdDeviation="2"/>
<feComposite in2="hardAlpha" operator="arithmetic" k2="-1" k3="1"/>
<feColorMatrix type="matrix" values="0 0 0 0 0 0 0 0 0 0 0 0 0 0 0 0 0 0 0.43 0"/>
<feBlend mode="normal" in2="shape" result="effect1_innerShadow_809_188"/>
</filter>
</defs>
</svg>
