<svg width="56" height="56" viewBox="0 0 56 56" fill="none" xmlns="http://www.w3.org/2000/svg">
<g opacity="0.9996">
<rect width="56" height="56" rx="28" fill="#FE4A01"/>
<path d="M35.1981 26.179C35.6072 25.9788 36.0347 25.7374 36.4531 25.4531V27.7296C36.4531 30.087 32.5461 31.9981 27.7266 31.9981C22.907 31.9981 19 30.087 19 27.7296V25.4531C19.4185 25.7374 19.8459 25.9788 20.2551 26.179C22.3175 27.1878 24.9631 27.7296 27.7266 27.7296C30.49 27.7296 33.1356 27.1878 35.1981 26.179Z" fill="white"/>
<path d="M19 31.998V34.5275C19 37.1469 22.907 39.2702 27.7266 39.2702C32.5461 39.2702 36.4531 37.1469 36.4531 34.5275V31.998C36.0347 32.3139 35.6072 32.5822 35.1981 32.8046C33.1356 33.9255 30.49 34.5275 27.7266 34.5275C24.9631 34.5275 22.3175 33.9255 20.2551 32.8046C19.8459 32.5822 19.4185 32.3139 19 31.998Z" fill="white"/>
<path d="M27.7266 16C32.5461 16 36.4531 17.9535 36.4531 20.3633C36.4531 22.7731 32.5461 24.7266 27.7266 24.7266C22.907 24.7266 19 22.7731 19 20.3633C19 17.9535 22.907 16 27.7266 16Z" fill="white"/>
</g>
</svg>
