<svg width="56" height="56" viewBox="0 0 56 56" fill="none" xmlns="http://www.w3.org/2000/svg">
<g opacity="0.9886">
<rect width="56" height="56" rx="28" fill="#FE4A01"/>
<path d="M32.1807 31.4707V36.083V39.0446L39.7285 31.4707H36.7773H32.1807Z" fill="white"/>
<path d="M37.2053 15.6699H19.4876C18.6564 15.6699 17.8592 16.0001 17.2715 16.5878C16.6837 17.1756 16.3535 17.9728 16.3535 18.804V36.5217C16.3535 37.3529 16.6837 38.1501 17.2715 38.7378C17.8592 39.3256 18.6564 39.6558 19.4876 39.6558H30.0911V30.426C30.0911 30.1489 30.2011 29.8832 30.397 29.6873C30.5929 29.4914 30.8587 29.3814 31.1357 29.3814H40.3394V18.804C40.3394 17.9728 40.0091 17.1756 39.4214 16.5878C38.8337 16.0001 38.0365 15.6699 37.2053 15.6699Z" fill="white"/>
</g>
</svg>
