<svg width="56" height="56" viewBox="0 0 56 56" fill="none" xmlns="http://www.w3.org/2000/svg">
<g opacity="0.9661">
<rect width="56" height="56" rx="28" fill="#FE4A01"/>
<path d="M28.5 18.3301C23.2655 18.3301 19 22.5956 19 27.8301C19 33.0646 23.2655 37.3301 28.5 37.3301C33.7345 37.3301 38 33.0646 38 27.8301C38 22.5956 33.7345 18.3301 28.5 18.3301ZM33.041 25.6451L27.6545 31.0316C27.5215 31.1646 27.341 31.2406 27.151 31.2406C26.961 31.2406 26.7805 31.1646 26.6475 31.0316L23.959 28.3431C23.6835 28.0676 23.6835 27.6116 23.959 27.3361C24.2345 27.0606 24.6905 27.0606 24.966 27.3361L27.151 29.5211L32.034 24.6381C32.3095 24.3626 32.7655 24.3626 33.041 24.6381C33.3165 24.9136 33.3165 25.3601 33.041 25.6451Z" fill="white"/>
</g>
</svg>
