<svg width="56" height="56" viewBox="0 0 56 56" fill="none" xmlns="http://www.w3.org/2000/svg">
<g opacity="0.9167">
<rect width="56" height="56" rx="28" fill="#FE4A01"/>
<path d="M34.266 34.4488C32.2353 34.4488 30.3616 33.4938 29.1408 31.8136C28.8506 31.4148 28.9353 30.8466 29.3342 30.5444C29.733 30.2423 30.3013 30.339 30.6035 30.7378C31.4859 31.9345 32.8155 32.6235 34.266 32.6235C36.7924 32.6235 38.8592 30.5686 38.8592 28.0302C38.8592 25.4918 36.8044 23.4369 34.266 23.4369C32.5496 23.4369 30.9297 24.3556 30.0473 25.8182L26.8441 31.1488C25.6353 33.1675 23.4234 34.4125 21.0784 34.4125C17.5488 34.4125 14.6719 31.5356 14.6719 28.006C14.6719 24.4765 17.5488 21.5996 21.0784 21.5996C23.1091 21.5996 24.9826 22.5545 26.2035 24.2347C26.4936 24.6336 26.4089 25.2017 26.0101 25.5039C25.5991 25.8061 25.0431 25.7094 24.7409 25.3105C23.8585 24.1138 22.5289 23.4248 21.0784 23.4248C18.552 23.4248 16.485 25.4797 16.485 28.0181C16.485 30.5565 18.5399 32.6114 21.0784 32.6114C22.7948 32.6114 24.4145 31.6928 25.2969 30.2302L28.5001 24.8995C29.7089 22.8809 31.921 21.6359 34.266 21.6359C37.7956 21.6359 40.6724 24.5127 40.6724 28.0423C40.6724 31.5719 37.7956 34.4488 34.266 34.4488Z" fill="white"/>
<path d="M21.0298 30.4601C22.365 30.4601 23.4474 29.3777 23.4474 28.0425C23.4474 26.7073 22.365 25.625 21.0298 25.625C19.6947 25.625 18.6123 26.7073 18.6123 28.0425C18.6123 29.3777 19.6947 30.4601 21.0298 30.4601Z" fill="white"/>
<path d="M34.3257 30.4601C35.6609 30.4601 36.7433 29.3777 36.7433 28.0425C36.7433 26.7073 35.6609 25.625 34.3257 25.625C32.9905 25.625 31.9082 26.7073 31.9082 28.0425C31.9082 29.3777 32.9905 30.4601 34.3257 30.4601Z" fill="white"/>
</g>
</svg>
