<svg width="56" height="56" viewBox="0 0 56 56" fill="none" xmlns="http://www.w3.org/2000/svg">
<rect width="56" height="56" rx="28" fill="#FE4A01"/>
<path d="M36.4734 19.2793H32.1183C31.0918 19.2793 29.658 19.864 28.9321 20.5787L21.6172 27.7804C20.8913 28.4951 20.8913 29.6645 21.6172 30.3792L27.0656 35.7433C27.7915 36.458 28.9793 36.458 29.7052 35.7433L37.02 28.5416C37.746 27.8269 38.3398 26.4153 38.3398 25.4046V21.1169C38.3398 20.1062 37.4999 19.2793 36.4734 19.2793ZM33.9848 25.4046C32.9539 25.4046 32.1183 24.5819 32.1183 23.567C32.1183 22.5521 32.9539 21.7294 33.9848 21.7294C35.0156 21.7294 35.8512 22.5521 35.8512 23.567C35.8512 24.5819 35.0156 25.4046 33.9848 25.4046ZM18.8708 29.5129L25.5274 36.0666C24.8224 36.4333 23.9242 36.3257 23.3327 35.7433L17.8842 30.3792C17.1584 29.6645 17.1584 28.4951 17.8842 27.7804L25.1991 20.5787C25.925 19.864 27.3588 19.2793 28.3854 19.2793L18.8708 28.6467C18.6289 28.8849 18.6289 29.2747 18.8708 29.5129Z" fill="#F8F8F8"/>
</svg>
