<svg width="66" height="66" viewBox="0 0 66 66" fill="none" xmlns="http://www.w3.org/2000/svg">
<g filter="url(#filter0_i_811_8427)">
<rect width="66" height="66" rx="12" fill="#FE4A01"/>
<circle cx="23.25" cy="33.25" r="9.25005" fill="white"/>
<path d="M32.5 42.5001C33.7147 42.5001 34.9175 42.2608 36.0398 41.796C37.1621 41.3311 38.1818 40.6498 39.0407 39.7908C39.8997 38.9319 40.581 37.9122 41.0459 36.7899C41.5107 35.6676 41.75 34.4648 41.75 33.25C41.75 32.0353 41.5107 30.8325 41.0459 29.7102C40.581 28.5879 39.8997 27.5682 39.0407 26.7093C38.1818 25.8503 37.1621 25.169 36.0398 24.7041C34.9175 24.2393 33.7147 24 32.5 24L32.5 33.25V42.5001Z" fill="white"/>
<path d="M41.75 42.5001C42.9647 42.5001 44.1675 42.2608 45.2898 41.796C46.4121 41.3311 47.4318 40.6498 48.2907 39.7908C49.1497 38.9319 49.831 37.9122 50.2959 36.7899C50.7607 35.6676 51 34.4648 51 33.25C51 32.0353 50.7607 30.8325 50.2959 29.7102C49.831 28.5879 49.1497 27.5682 48.2907 26.7093C47.4318 25.8503 46.4121 25.169 45.2898 24.7041C44.1675 24.2393 42.9647 24 41.75 24L41.75 33.25V42.5001Z" fill="white"/>
</g>
<defs>
<filter id="filter0_i_811_8427" x="0" y="0" width="66" height="66" filterUnits="userSpaceOnUse" color-interpolation-filters="sRGB">
<feFlood flood-opacity="0" result="BackgroundImageFix"/>
<feBlend mode="normal" in="SourceGraphic" in2="BackgroundImageFix" result="shape"/>
<feColorMatrix in="SourceAlpha" type="matrix" values="0 0 0 0 0 0 0 0 0 0 0 0 0 0 0 0 0 0 127 0" result="hardAlpha"/>
<feMorphology radius="2" operator="erode" in="SourceAlpha" result="effect1_innerShadow_811_8427"/>
<feOffset/>
<feGaussianBlur stdDeviation="2"/>
<feComposite in2="hardAlpha" operator="arithmetic" k2="-1" k3="1"/>
<feColorMatrix type="matrix" values="0 0 0 0 0 0 0 0 0 0 0 0 0 0 0 0 0 0 0.43 0"/>
<feBlend mode="normal" in2="shape" result="effect1_innerShadow_811_8427"/>
</filter>
</defs>
</svg>
