<svg width="218" height="22" viewBox="0 0 218 22" fill="none" xmlns="http://www.w3.org/2000/svg">
<path d="M24.6232 8.07374C24.596 10.2154 26.5318 11.4106 27.9901 12.1211C29.4884 12.8503 29.9916 13.3178 29.9859 13.9697C29.9744 14.9676 28.7907 15.4079 27.6827 15.4251C25.7498 15.4551 24.6261 14.9033 23.7325 14.4858L23.0363 17.744C23.9327 18.1572 25.5925 18.5175 27.3138 18.5332C31.3541 18.5332 33.9975 16.5388 34.0118 13.4464C34.0276 9.522 28.5834 9.30469 28.6206 7.55048C28.6334 7.01865 29.141 6.45107 30.2532 6.30667C30.8037 6.23376 32.3234 6.178 34.0461 6.97147L34.7224 3.81905C33.796 3.48164 32.605 3.15854 31.1225 3.15854C27.3196 3.15854 24.6446 5.18009 24.6232 8.07374ZM41.2202 3.43018C40.4825 3.43018 39.8606 3.86051 39.5833 4.52101L33.8117 18.3016H37.8491L38.6525 16.0813H43.5863L44.0524 18.3016H47.6109L44.5056 3.43018H41.2202ZM41.785 7.44755L42.9501 13.0318H39.7591L41.785 7.44755ZM19.728 3.43018L16.5456 18.3016H20.3928L23.5738 3.43018H19.728ZM14.0365 3.43018L10.032 13.5522L8.41217 4.94563C8.22203 3.98489 7.47145 3.43018 6.63796 3.43018H0.0914988L0 3.86194C1.34389 4.15359 2.87078 4.62395 3.79577 5.12719C4.36192 5.43457 4.52347 5.70335 4.70933 6.43391L7.7774 18.3016H11.8434L18.0767 3.43018H14.0365Z" fill="#3A3A3A"/>
<path d="M89.9765 21.6894H61.7803C60.5828 21.6894 59.6113 20.7179 59.6113 19.5204V2.16894C59.6113 0.971504 60.5828 0 61.7803 0H89.9765C91.1739 0 92.1454 0.971504 92.1454 2.16894V19.5204C92.1454 20.7179 91.1739 21.6894 89.9765 21.6894ZM85.353 17.8205C85.3494 17.8205 85.3449 17.8205 85.3404 17.8205C85.0801 17.8205 84.846 17.9317 84.6825 18.1088L84.6815 18.1097C84.5107 18.2977 84.4059 18.548 84.4059 18.8228C84.4059 19.0975 84.5107 19.3487 84.6825 19.5367L84.6815 19.5358C84.846 19.7138 85.0801 19.825 85.3404 19.825H85.353C85.3666 19.8259 85.3828 19.8268 85.3991 19.8268C85.6287 19.8268 85.832 19.7157 85.9585 19.5448L85.9594 19.543V19.7834H86.3688V17.1003H85.9594V18.1034C85.8275 17.9308 85.6214 17.8196 85.3892 17.8196C85.3765 17.8196 85.3639 17.8196 85.3512 17.8205H85.353ZM81.5122 17.8205C81.5059 17.8205 81.4986 17.8205 81.4914 17.8205C81.2302 17.8205 80.9944 17.929 80.8272 18.1034C80.6564 18.2941 80.5515 18.5462 80.5515 18.8237C80.5515 19.1011 80.6564 19.3542 80.8281 19.5448L80.8272 19.5439C80.9953 19.7184 81.2311 19.8268 81.4923 19.8268H81.514C81.5266 19.8277 81.5393 19.8277 81.5538 19.8277C81.7806 19.8277 81.9812 19.7166 82.1041 19.5458L82.1059 19.5439V19.7843H82.5307V17.8775H82.1068V18.1034C81.9776 17.9308 81.7734 17.8196 81.5438 17.8196C81.533 17.8196 81.5221 17.8196 81.5122 17.8205ZM79.6614 17.8205C79.6496 17.8196 79.637 17.8196 79.6234 17.8196C79.0694 17.8196 78.6203 18.2688 78.6203 18.8228C78.6203 19.3768 79.0694 19.8259 79.6234 19.8259C79.637 19.8259 79.6505 19.8259 79.6632 19.825H79.6614C79.6722 19.825 79.6849 19.8259 79.6984 19.8259C79.9424 19.8259 80.1656 19.741 80.3419 19.5982L80.3401 19.6L80.1421 19.2611C80.0165 19.3605 79.8575 19.4237 79.6849 19.431H79.683C79.6722 19.4319 79.6586 19.4319 79.646 19.4319C79.4842 19.4319 79.3378 19.3668 79.2312 19.2611C79.1309 19.1445 79.0694 18.9909 79.0694 18.8237C79.0694 18.6565 79.1309 18.5029 79.2321 18.3854L79.2312 18.3863C79.3324 18.2814 79.4734 18.2164 79.6297 18.2164H79.6487H79.6478C79.8349 18.2173 80.0066 18.2805 80.1439 18.3872L80.1421 18.3854L80.3401 18.0465C80.1611 17.9046 79.9325 17.8196 79.684 17.8196C79.6767 17.8196 79.6686 17.8205 79.6614 17.8205ZM75.9742 17.8205C75.9669 17.8205 75.9597 17.8205 75.9516 17.8205C75.6931 17.8205 75.4608 17.929 75.2964 18.1034C75.1301 18.2832 75.0271 18.5245 75.0271 18.7902C75.0271 18.8029 75.0271 18.8155 75.028 18.8282V18.8264C75.0271 18.839 75.0271 18.8535 75.0271 18.868C75.0271 19.1346 75.1328 19.3768 75.3036 19.5539C75.4753 19.7247 75.7121 19.8295 75.9733 19.8295C75.9832 19.8295 75.994 19.8295 76.004 19.8286H76.0022C76.013 19.8286 76.0266 19.8295 76.0392 19.8295C76.3221 19.8295 76.5806 19.7274 76.7812 19.5584L76.7794 19.5602L76.5815 19.2502C76.4351 19.3795 76.2426 19.4599 76.032 19.4617C76.0175 19.4626 76.0004 19.4635 75.9841 19.4635C75.7121 19.4635 75.4871 19.2602 75.4527 18.9981V18.9954H76.8788V18.8264C76.8797 18.8119 76.8797 18.7957 76.8797 18.7794C76.8797 18.5182 76.783 18.2796 76.623 18.098L76.6239 18.0989C76.4685 17.9272 76.2444 17.8196 75.9949 17.8196C75.9886 17.8196 75.9814 17.8196 75.9751 17.8196L75.9742 17.8205ZM73.1934 17.8775V18.2589H73.5883V19.121C73.5883 19.5891 73.8116 19.8268 74.2517 19.8268H74.267C74.4496 19.8268 74.6186 19.7726 74.7605 19.6804L74.7568 19.6822L74.643 19.3289C74.5372 19.3894 74.4107 19.4256 74.2761 19.4283C74.0971 19.4283 74.0059 19.3243 74.0059 19.1183V18.2598H74.6836V17.8784H74.0059V17.3H73.582V17.8784L73.1934 17.8775ZM71.4158 19.2602L71.2323 19.5855C71.4555 19.7364 71.7303 19.8259 72.0258 19.8259H72.0529H72.0511C72.0692 19.8268 72.09 19.8277 72.1107 19.8277C72.3267 19.8277 72.5283 19.7635 72.6973 19.6533L72.6927 19.656C72.8337 19.5593 72.9259 19.3984 72.9259 19.2159C72.9259 19.2114 72.9259 19.2078 72.9259 19.2032C72.9259 18.8851 72.7027 18.6981 72.2626 18.6393L72.0656 18.6104C71.8487 18.5733 71.7402 18.5074 71.7402 18.4134C71.7402 18.2724 71.8586 18.2019 72.0936 18.2019H72.0981C72.3195 18.2019 72.5274 18.2598 72.7072 18.361L72.7009 18.3574L72.8708 18.0185C72.6629 17.8937 72.4117 17.8196 72.1433 17.8196C72.1261 17.8196 72.108 17.8196 72.0909 17.8205H72.0936C72.0791 17.8196 72.0619 17.8196 72.0448 17.8196C71.846 17.8196 71.6616 17.8838 71.5125 17.9923L71.5152 17.9904C71.386 18.0917 71.3037 18.248 71.3037 18.4242V18.4432V18.4423C71.3037 18.7514 71.5269 18.9366 71.967 18.9927L72.1505 19.0216C72.3755 19.0595 72.4894 19.1255 72.4894 19.2195C72.4894 19.3786 72.3448 19.4599 72.0511 19.4599C72.0484 19.4599 72.0457 19.4599 72.043 19.4599C71.808 19.4599 71.5902 19.3858 71.4122 19.2593L71.4158 19.262V19.2602ZM69.8053 17.8196C69.799 17.8196 69.7909 17.8196 69.7827 17.8196C69.5252 17.8196 69.292 17.9281 69.1285 18.1025C68.9613 18.2941 68.8591 18.5471 68.8591 18.8228C68.8591 19.0984 68.9613 19.3515 69.1294 19.5448L69.1285 19.5439C69.2929 19.7184 69.5252 19.8268 69.7837 19.8268H69.8071C69.818 19.8277 69.8297 19.8277 69.8433 19.8277C70.0756 19.8277 70.2825 19.7175 70.4135 19.5458L70.4145 19.5439V19.7843H70.8238V17.8775H70.4145V18.1034C70.2726 17.9299 70.0593 17.8205 69.8198 17.8205C69.8153 17.8205 69.8108 17.8196 69.8053 17.8196ZM83.0792 17.8766V19.7834H83.4886V18.7107C83.4886 18.3836 83.626 18.2173 83.898 18.2173H83.9071C83.9965 18.2173 84.0815 18.2381 84.1565 18.2751L84.1529 18.2733L84.2794 17.8775C84.1999 17.8413 84.1077 17.8205 84.0101 17.8205C84.0001 17.8205 83.9911 17.8205 83.9812 17.8214H83.983C83.9785 17.8214 83.973 17.8214 83.9676 17.8214C83.7625 17.8214 83.5835 17.9344 83.4904 18.1016L83.4886 18.1043V17.8784L83.0792 17.8766ZM77.3044 17.8766V19.7834H77.7283V18.7107C77.7283 18.3836 77.8657 18.2173 78.1377 18.2173H78.1467C78.2362 18.2173 78.3211 18.2381 78.3961 18.2751L78.3925 18.2733L78.52 17.8775C78.4368 17.8413 78.341 17.8205 78.2398 17.8205C78.2344 17.8205 78.229 17.8205 78.2226 17.8205C78.2181 17.8205 78.2127 17.8205 78.2073 17.8205C78.0021 17.8205 77.8241 17.9335 77.731 18.1007L77.7292 18.1034V17.8775L77.3044 17.8766ZM67.6454 18.2155C67.9265 18.2155 68.0693 18.3863 68.0693 18.7216V19.7807H68.4931V18.5806C68.4931 18.5715 68.494 18.5616 68.494 18.5508C68.494 18.3519 68.4154 18.1721 68.288 18.0392C68.1443 17.9046 67.95 17.8224 67.7376 17.8224C67.7349 17.8224 67.7322 17.8224 67.7295 17.8224C67.7159 17.8214 67.6997 17.8205 67.6834 17.8205C67.4249 17.8205 67.1972 17.9552 67.068 18.1585L67.0662 18.1612C66.946 17.9561 66.7273 17.8205 66.476 17.8205C66.4607 17.8205 66.4444 17.8214 66.429 17.8224H66.4308C66.4281 17.8224 66.4254 17.8224 66.4227 17.8224C66.1995 17.8224 66.0016 17.9335 65.8814 18.1034L65.8796 18.1052V17.8793H65.4575V19.7861H65.8814V18.7252C65.8814 18.3881 66.0386 18.2191 66.3477 18.2191C66.6287 18.2191 66.7715 18.3899 66.7715 18.7252V19.7843H67.1809V18.7252C67.1809 18.3872 67.3382 18.2191 67.6463 18.2191L67.6454 18.2155ZM80.312 1.80745C80.303 1.80745 80.2931 1.80745 80.2822 1.80745C78.8137 1.80745 77.4499 2.2557 76.3194 3.02386L76.3438 3.0085C77.515 3.96283 78.3907 5.23979 78.8363 6.70383L78.8507 6.75805C79.064 7.43133 79.186 8.20492 79.186 9.00833C79.186 9.8027 79.0658 10.5682 78.8435 11.2893L78.8579 11.2351C78.4025 12.7516 77.5231 14.0249 76.3582 14.9566L76.3438 14.9684C77.4572 15.7203 78.8299 16.1685 80.3066 16.1685C81.3188 16.1685 82.2813 15.958 83.1533 15.5784L83.1073 15.5965C84.8406 14.8617 86.1926 13.5098 86.9092 11.8234L86.9264 11.7773C87.2879 10.9549 87.4985 9.9961 87.4985 8.98844C87.4985 7.98079 87.2879 7.02194 86.9083 6.15436L86.9264 6.19955C86.1917 4.4653 84.8361 3.11333 83.1461 2.39939L83.1 2.38222C82.2804 2.02073 81.3251 1.81016 80.3211 1.81016C80.3175 1.81016 80.3148 1.81016 80.3111 1.81016L80.312 1.80745ZM71.4447 1.80745C71.442 1.80745 71.4384 1.80745 71.4348 1.80745C70.4307 1.80745 69.4746 2.01802 68.6106 2.39668L68.6558 2.3786C66.9179 3.10972 65.5633 4.46259 64.8457 6.15165L64.8285 6.19774C64.467 7.02013 64.2565 7.97898 64.2565 8.98664C64.2565 9.99429 64.467 10.9531 64.8466 11.8207L64.8285 11.7755C65.5633 13.5089 66.9152 14.8608 68.6016 15.5775L68.6477 15.5947C69.4737 15.9562 70.437 16.1667 71.4483 16.1667C72.9259 16.1667 74.2978 15.7185 75.4364 14.9503L75.4111 14.9666C74.2336 14.0168 73.3543 12.738 72.9114 11.2713L72.8979 11.2179C72.6909 10.5528 72.5716 9.78824 72.5716 8.99567C72.5716 6.58725 73.6724 4.43548 75.3985 3.01663L75.412 3.00579C74.3068 2.25389 72.9431 1.80564 71.4745 1.80564C71.4637 1.80564 71.4528 1.80564 71.442 1.80564H71.4438L71.4447 1.80745ZM75.8784 3.34649C74.7424 4.22943 73.8938 5.43138 73.4627 6.8186L73.4492 6.86831C73.2431 7.50543 73.1238 8.23926 73.1238 9.00019C73.1238 9.7539 73.2404 10.4796 73.4564 11.1619L73.4428 11.1113C73.8848 12.5491 74.737 13.7511 75.8621 14.6168L75.8784 14.6286C77.0198 13.7511 77.872 12.5491 78.3013 11.161L78.3148 11.1122C78.5172 10.4805 78.6338 9.7539 78.6338 9.00019C78.6338 8.23835 78.5145 7.50543 78.2949 6.81679L78.3085 6.8674C77.8638 5.43048 77.0153 4.22853 75.8955 3.35734L75.8793 3.34559L75.8784 3.34649ZM85.409 19.4301C85.4045 19.4301 85.3991 19.4301 85.3937 19.4301C85.2355 19.4301 85.0927 19.3623 84.9933 19.2539C84.8921 19.14 84.8307 18.9882 84.8307 18.8228C84.8307 18.6574 84.8921 18.5065 84.9942 18.3908L84.9933 18.3917C85.0991 18.2823 85.2464 18.2146 85.41 18.2146C85.5735 18.2146 85.7217 18.2823 85.8266 18.3917C85.9269 18.5074 85.9883 18.6592 85.9883 18.8255C85.9883 18.9918 85.9269 19.1436 85.8257 19.2602L85.8266 19.2593C85.7253 19.365 85.5826 19.4301 85.4253 19.4301C85.4199 19.4301 85.4145 19.4301 85.409 19.4301ZM81.5547 19.4301C81.5483 19.4301 81.542 19.4301 81.5348 19.4301C81.3811 19.4301 81.2429 19.365 81.1453 19.2611C81.0486 19.1427 80.9898 18.99 80.9898 18.8237C80.9898 18.6574 81.0486 18.5047 81.1462 18.3845L81.1453 18.3854C81.2429 18.2805 81.3811 18.2155 81.5348 18.2155H81.5556H81.5709C81.7291 18.2155 81.8719 18.2833 81.9704 18.3917C82.0716 18.501 82.133 18.6475 82.133 18.8083V18.8264V18.8255C82.133 18.8327 82.1339 18.8418 82.1339 18.8499C82.1339 19.0089 82.0752 19.1535 81.9776 19.2647L81.9785 19.2638C81.8782 19.3668 81.739 19.4301 81.5845 19.4301C81.5745 19.4301 81.5637 19.4301 81.5538 19.4292H81.5556L81.5547 19.4301ZM69.8623 19.4301C69.8541 19.4301 69.8451 19.431 69.8361 19.431C69.6797 19.431 69.5387 19.3659 69.4393 19.2611C69.3426 19.1427 69.2839 18.99 69.2839 18.8237C69.2839 18.6574 69.3426 18.5047 69.4402 18.3845L69.4393 18.3854C69.5396 18.2805 69.6806 18.2155 69.837 18.2155C69.846 18.2155 69.8559 18.2155 69.865 18.2164H69.8849C70.0394 18.2164 70.1786 18.2842 70.2735 18.3926L70.2744 18.3935C70.3702 18.511 70.4289 18.6619 70.4289 18.8273C70.4289 18.9927 70.3702 19.1436 70.2735 19.262L70.2744 19.2611C70.1768 19.3659 70.0376 19.431 69.8831 19.431C69.8767 19.431 69.8695 19.431 69.8632 19.431H69.8641L69.8623 19.4301ZM76.4568 18.6529H75.469C75.4916 18.398 75.7039 18.1992 75.9633 18.1992C76.2227 18.1992 76.4351 18.398 76.4577 18.6511V18.6529H76.4568Z" fill="#3A3A3A"/>
<path d="M136.441 0.132812C137.446 0.132948 138.261 0.947419 138.261 1.95215V13.1279H136.513C136.338 13.1279 136.223 13.1338 136.125 13.1992C136.024 13.2639 135.984 13.3605 135.984 13.4873C135.984 13.638 136.07 13.7408 136.194 13.7852C136.295 13.8201 136.404 13.8301 136.563 13.8301L137.084 13.8438C137.608 13.8567 137.958 13.9471 138.172 14.166C138.211 14.1965 138.234 14.2305 138.261 14.2646V19.7383C138.261 20.7431 137.446 21.5575 136.441 21.5576H105.964C104.959 21.5576 104.145 20.7432 104.145 19.7383V10.1943H105.783L106.152 9.30664H106.979L107.349 10.1943H110.572V9.51562L110.86 10.1973H112.534L112.822 9.50586V10.1943H120.835L120.831 8.7373H120.986C121.095 8.74105 121.126 8.75141 121.126 8.92969V10.1943H125.271V9.85547C125.605 10.0338 126.125 10.1943 126.809 10.1943H128.553L128.926 9.30664H129.753L130.118 10.1943H133.478V9.35156L133.986 10.1943H136.679V4.62207H134.014V5.28027L133.641 4.62207H130.907V5.28027L130.564 4.62207H126.871C126.253 4.62208 125.709 4.70782 125.271 4.94727V4.62207H122.722V4.94727C122.442 4.70056 122.062 4.62207 121.639 4.62207H112.328L111.703 6.06055L111.062 4.62207H108.129V5.28027L107.807 4.62207H105.306L104.145 7.27148V1.95215C104.145 0.947343 104.959 0.132825 105.964 0.132812H136.441ZM110.922 17.0664H115.994L116.811 16.1992L117.579 17.0664L120.706 17.0693V15.7578H121.014C121.429 15.7642 121.918 15.7473 122.35 15.5615V17.0664H124.929V15.6133H125.053C125.211 15.6133 125.228 15.6195 125.228 15.7773V17.0664H133.062C133.559 17.0664 134.079 16.939 134.367 16.709V17.0664H136.853C137.37 17.0664 137.875 16.9944 138.259 16.8096V15.7705C138.026 16.1097 137.572 16.2812 136.957 16.2812H135.105V15.4248H136.95C137.133 15.4248 137.261 15.4001 137.338 15.3252C137.404 15.2635 137.451 15.1742 137.451 15.0654C137.451 14.949 137.405 14.8562 137.334 14.8008C137.264 14.7398 137.163 14.7119 136.996 14.7119C136.096 14.6814 134.973 14.7393 134.973 13.4746C134.973 12.895 135.342 12.2852 136.349 12.2852H138.259V11.4902H136.483C135.948 11.4903 135.559 11.6178 135.283 11.8164V11.4902H132.658C132.238 11.4902 131.745 11.5937 131.512 11.8164V11.4902H126.824V11.8164C126.451 11.5484 125.821 11.4902 125.53 11.4902H122.438V11.8164C122.143 11.5319 121.487 11.4903 121.087 11.4902H117.625L116.833 12.3438L116.092 11.4902H110.922V17.0664ZM116.823 13.6191L118.043 12.3086H121.108C121.869 12.3087 122.724 12.5187 122.725 13.625C122.725 14.7352 121.892 14.9648 121.054 14.9648H119.857V16.3057H117.993L116.812 14.9824L115.585 16.3057H111.786V12.3086H115.644L116.823 13.6191ZM125.372 12.3086C125.857 12.3086 126.211 12.33 126.525 12.4971C126.828 12.6792 127.019 12.9289 127.019 13.3848C127.018 14.0227 126.591 14.3485 126.339 14.4482C126.552 14.5266 126.727 14.6668 126.809 14.7832C126.944 14.9783 126.964 15.1606 126.968 15.5127V16.3057H126.005V15.8057C126.005 15.5653 126.028 15.2093 125.85 15.0234C125.71 14.8803 125.496 14.8457 125.146 14.8457H124.121V16.3057H123.157V12.3086H125.372ZM130.771 13.1348H128.524V13.8613H130.716V14.6768H128.524V15.4727L130.771 15.4756V16.3057H127.569V12.3086H130.771V13.1348ZM134.548 13.1592H132.788C132.614 13.1592 132.501 13.1658 132.404 13.2314C132.299 13.2962 132.261 13.3927 132.261 13.5195C132.261 13.6699 132.349 13.772 132.47 13.8164C132.571 13.8515 132.68 13.8623 132.844 13.8623L133.359 13.876C133.88 13.8886 134.238 13.9782 134.455 14.1973C134.642 14.3897 134.742 14.6327 134.742 15.0439C134.742 15.9036 134.202 16.3046 133.235 16.3047H131.367V15.4482H133.228C133.409 15.4482 133.538 15.4243 133.619 15.3496C133.685 15.2878 133.732 15.1978 133.732 15.0889C133.732 14.9724 133.681 14.8797 133.615 14.8242C133.542 14.7634 133.441 14.7354 133.274 14.7354C132.378 14.7049 131.254 14.7633 131.254 13.499C131.254 12.9194 131.62 12.3087 132.625 12.3086H134.548V13.1592ZM117.426 14.2939L118.898 15.9219V12.7178L117.426 14.2939ZM112.741 13.1279V13.8545H114.847V14.6699H112.741V15.4648H115.1L116.194 14.292L115.146 13.1279H112.741ZM119.837 13.1279V14.1455H121.076C121.445 14.1455 121.674 13.9628 121.674 13.6172C121.674 13.268 121.434 13.128 121.088 13.1279H119.837ZM124.158 13.1279V14.0254H125.323C125.51 14.0254 125.669 14.0182 125.797 13.9424C125.921 13.8676 125.995 13.7303 125.995 13.5596C125.995 13.3886 125.921 13.2639 125.797 13.1992C125.681 13.1307 125.51 13.1279 125.339 13.1279H124.158ZM108.918 9.17773V5.39453H110.483L111.738 8.10547L112.892 5.39453H114.488V9.39062H113.505L113.502 6.26172L112.111 9.39062H111.269L109.874 6.25879V9.39062H107.924L107.556 8.49902H105.559L105.186 9.39062H104.145L105.862 5.39453H107.287L108.918 9.17773ZM118.401 6.22656H116.156V6.94727H118.348V7.7666H116.156V8.56445H118.401V9.39062H115.197V5.39453H118.401V6.22656ZM121.27 5.39453C121.759 5.39453 122.121 5.40769 122.431 5.58594C122.734 5.76438 122.916 6.02525 122.916 6.4707C122.916 7.10775 122.489 7.43731 122.24 7.53613C122.45 7.6156 122.629 7.75572 122.715 7.87207C122.85 8.07077 122.874 8.24873 122.874 8.60547V9.39062H121.906L121.902 8.88672C121.902 8.64629 121.925 8.30062 121.751 8.1084C121.611 7.96803 121.398 7.93753 121.053 7.9375H120.022V9.39062H119.063V5.39453H121.27ZM124.454 9.39062H123.476V5.39453H124.454V9.39062ZM127.833 6.25098H126.925C126.575 6.25098 126.377 6.30341 126.187 6.48828C126.023 6.65653 125.911 6.97409 125.911 7.39258C125.911 7.82065 125.997 8.12943 126.175 8.33105C126.322 8.48908 126.59 8.5371 126.843 8.53711H127.273L128.625 5.39551H130.062L131.687 9.1748V5.39551H133.146L134.832 8.17773V5.39551H135.814V9.39062H134.456L132.638 6.3916V9.39062H130.685L130.312 8.49902H128.319L127.957 9.39062H126.835C126.369 9.39062 125.778 9.28749 125.443 8.94824C125.107 8.60903 124.932 8.14915 124.932 7.42285C124.932 6.83057 125.036 6.28926 125.448 5.86133C125.758 5.54244 126.244 5.39453 126.905 5.39453H127.833V6.25098ZM105.918 7.66992H107.228L106.571 6.07715L105.918 7.66992ZM128.661 7.66992H129.985L129.321 6.07715L128.661 7.66992ZM120.064 7.14648H121.229C121.416 7.14648 121.572 7.14411 121.704 7.06445C121.828 6.99972 121.901 6.85912 121.901 6.68457C121.901 6.51344 121.825 6.38926 121.7 6.33105C121.587 6.2665 121.412 6.25879 121.245 6.25879H120.064V7.14648Z" fill="#3A3A3A"/>
<path d="M181.191 0.476562C182.517 0.476562 183.699 1.44491 183.699 2.7627V18.9277C183.699 20.2456 182.517 21.2129 181.191 21.2129H152.768C151.442 21.2125 150.261 20.2454 150.261 18.9277V2.7627C150.261 1.44515 151.443 0.476923 152.768 0.476562H181.191ZM171.219 8.61328C170.6 8.61332 170.202 8.87641 169.98 9.05957L169.898 8.7041H168.509V15.3799L170.088 15.0771L170.095 13.4561C170.322 13.6049 170.657 13.8174 171.213 13.8174C172.343 13.8172 173.373 12.9924 173.373 11.1777C173.367 9.51744 172.324 8.61328 171.219 8.61328ZM157.746 8.61328C156.464 8.61328 155.611 9.22002 155.611 10.2334C155.611 11.1869 156.485 11.4733 157.179 11.7002C157.634 11.8492 158.012 11.9731 158.012 12.2432C158.011 12.5061 157.759 12.5917 157.405 12.5918C156.881 12.5918 156.211 12.3972 155.681 12.1338V13.4971C156.268 13.726 156.862 13.8232 157.405 13.8232C158.719 13.8231 159.622 13.2327 159.622 12.208C159.618 11.1508 158.692 10.8653 157.988 10.6484C157.557 10.5154 157.209 10.4078 157.209 10.1641C157.209 9.94107 157.412 9.85547 157.746 9.85547C158.226 9.85549 158.833 9.98694 159.312 10.2217V8.87598C158.788 8.68706 158.27 8.61329 157.746 8.61328ZM159.938 7.76562L159.932 12.3516C159.932 13.1989 160.633 13.8232 161.567 13.8232C162.085 13.8232 162.464 13.7368 162.673 13.6338V12.4717C162.471 12.5461 161.473 12.8093 161.473 11.9619V9.92969H162.673V8.70996H161.473L161.479 7.46777L159.938 7.76562ZM176.07 8.61328C174.567 8.61328 173.657 9.76943 173.657 11.2236C173.657 12.9468 174.731 13.8172 176.271 13.8174C177.023 13.8174 177.592 13.6628 178.021 13.4453V12.2998C177.592 12.4944 177.099 12.6152 176.474 12.6152C175.861 12.6151 175.319 12.4201 175.249 11.7451H178.338C178.338 11.7135 178.34 11.6412 178.343 11.5586C178.346 11.4466 178.35 11.3145 178.35 11.2354C178.35 9.76983 177.567 8.61351 176.07 8.61328ZM165.951 8.70996C165.749 8.64126 165.009 8.51545 164.637 9.13379L164.536 8.70996H163.172V13.7197H164.751V10.3252C165.124 9.88433 165.755 9.96435 165.951 10.0273V8.70996ZM166.336 8.70996V13.7197H167.922V8.70996H166.336ZM170.84 9.88379C171.415 9.88379 171.812 10.4678 171.812 11.2178C171.812 11.985 171.421 12.5576 170.84 12.5576C170.467 12.5576 170.246 12.437 170.095 12.2881L170.088 10.1641C170.252 9.99803 170.48 9.8838 170.84 9.88379ZM176.063 9.77539C176.449 9.77539 176.859 10.0445 176.859 10.6914H175.229C175.229 10.0445 175.666 9.77543 176.063 9.77539ZM166.336 7.10742V8.27539L167.922 7.96582V6.80371L166.336 7.10742Z" fill="#3A3A3A"/>
<path fill-rule="evenodd" clip-rule="evenodd" d="M196.02 8.25325C197.45 2.51328 203.264 -0.979423 209.002 0.451492C214.742 1.88258 218.235 7.69622 216.804 13.4359C215.373 19.1752 209.56 22.6683 203.82 21.2376C198.082 19.8067 194.589 13.9924 196.02 8.25325ZM205.49 5.79427C205.234 5.73601 204.982 5.67811 204.739 5.61751L204.741 5.61165L203.12 5.20735L202.806 6.46223C202.806 6.46223 203.679 6.66273 203.661 6.67513C204.136 6.79406 204.223 7.10903 204.208 7.35872L203.66 9.55794C203.692 9.56629 203.735 9.57831 203.782 9.597L203.658 9.56673L202.889 12.6488C202.831 12.7934 202.683 13.0104 202.35 12.9281C202.353 12.9427 201.496 12.7142 201.496 12.7142L200.913 14.0609L202.442 14.4417C202.726 14.513 203.006 14.5873 203.28 14.6575L202.793 16.6116L203.967 16.9046L204.45 14.972C204.77 15.059 205.081 15.1395 205.386 15.2152L204.906 17.139L206.081 17.432L206.568 15.4818C208.572 15.8611 210.081 15.7084 210.714 13.8958C211.226 12.4361 210.689 11.5937 209.634 11.0443C210.402 10.8665 210.981 10.3612 211.135 9.3177C211.348 7.89224 210.263 7.1258 208.779 6.61458L209.26 4.68391L208.084 4.39095L207.616 6.27083C207.307 6.19383 206.99 6.12113 206.674 6.04915L207.146 4.15657L205.971 3.8636L205.49 5.79427ZM205.477 10.9691C206.274 11.168 208.828 11.5622 208.45 13.0843C208.086 14.5437 205.629 13.7553 204.831 13.557L205.477 10.9691ZM206.357 7.43782C207.021 7.60322 209.158 7.91221 208.813 9.2972C208.481 10.6245 206.436 9.95002 205.772 9.7845L206.357 7.43782Z" fill="#3A3A3A"/>
</svg>
